<mxfile host="app.diagrams.net" agent="Mozilla/5.0 (Windows NT 10.0; Win64; x64; rv:140.0) Gecko/20100101 Firefox/140.0" version="28.0.3" pages="2">
  <diagram name="memory_address" id="VvOf1gxQFXRVkJc7QiMM">
    <mxGraphModel dx="2066" dy="1103" grid="0" gridSize="10" guides="1" tooltips="1" connect="1" arrows="1" fold="1" page="1" pageScale="1" pageWidth="564" pageHeight="624" background="light-dark(#FFFFFF,#FFFFFF)" math="0" shadow="0">
      <root>
        <mxCell id="0" />
        <mxCell id="1" parent="0" />
        <mxCell id="aza19dO2QHTu9v1M0MKG-43" value="" style="shape=image;verticalLabelPosition=bottom;labelBackgroundColor=default;verticalAlign=top;aspect=fixed;imageAspect=0;image=data:image/png,iVBORw0KGgoAAAANSUhEUgAAAjQAAAE5CAYAAACH/bpAAAAAAXNSR0IArs4c6QAAAARnQU1BAACxjwv8YQUAAAAJcEhZcwAADsIAAA7CARUoSoAAADnSSURBVHhe7d0NcBznfef5HyVRkhXJQq3sjZzsFikIEBQI8TmgAjvgJQylBbgg6BxJBcwdK7Wc0FmSKIfkHFNwFmtVsXimA8eoZUBSKRBMzIw2u9w1sSZZMUEcgZN4vF3CLpyI9XlhWBAgiDyXI2cV78KyopOsF9zzdD890zOYGczgvYnvJ9Xx9NOv04DYv3n+T2NWPfyl708JAAAgwrxA86O/d3MAAAAR8/DPSXe41wAAAJFFoAEAAJFHoAEAAJFHoAEAAJFHoAEAAJE3P4Fm8C+lK/+b9OaPXAMAAMDimV2g+c//TiX/brv07z/nzX5k6C+16r03pP/rT7351X+6Tnf+q09JH7znzQMAACyk2QWavqOafOAX9dCDq3X3yU/rvV98QvqVBpWsfktq/x/0wUP/WB/W/Lb0xqjbAAAAYOEUF2iO/5r0/rvSPz2iu9b+sv7bL23SezVNuq/8V7T23p9p6onf1Krf/Gea+pVG/fzjn5QernIbAgAA+P7vfb+gf/ap+93cdHaZXacYhQeav9yuVR/7Rd17Ybfu+i9n9cHbP9UD/+lrmvrII3rz8T167aGt+snDv6Wpsf9HZX8/ppKb3y6w5HSPOg49rqk2Nx36uGq99o/qctsj6njYm4mQfOcd1fcEAMD8OfntN/UXWz+WNdTYNrvMrlOMwgPN752X/uYVffCrW/XBp5t058C/15u/e0n65DNuBeOue6Sd/1pjn/mqXv7VP5buXO0W5PDwxzVmbvCPvfiyVrW66ay041NuOQAAuO386++8pd+/+HfTQk0QZuwyu04xiio5Tf3PZ/T+f/1/dec/eFjvf+6btiU0Fesedex8SGNff1mbv+OarB+9oXh4HgAA3HYyQ81cwoxV2JdTvvOmVn/jc7rzrrv07iNPSms+qVX/5UXd/d9/4C3+8K679eDPfqK/+9EPNXXw217bjGzvzMG71d76Q512TelseeYhvfL1t9T4Ow+pzLSMX31N5X3vekv3/O7j6nrCeyl972+06t/Yrim3zdWf6eDGB7xF4W38Ywb7+rHGNt6vV46/prh92jy0TPqp9mY5r+zHNArcb/oy/1z1PanhiZ/5x8t6DrYk94gOftxrVK8XALO1+a8BAIiSIMhYsw0zhX85Zf9RffQfPaqPPP5pE2Z+2Wx1hz7+j9fowar/UQ+t+yf6+Z9brf/2wwlNPfiP3AYFeuNnGnYvs7tHB5+SdtlS1Nd/qrKNH9Met+T0vwnKVH+j3iceCo1LMdv8w5/6y9K2MQHChAXbI2SX7dL9avDaLbvsfvUcd/v8utRSf49blpL9mDPtN9cy6x6V/1cTjLzgkuMcPvUxHfTW8du94JKtDQCAFaywQPPZr+rHG76i//7L+3Xvm3+ju6fe19/e+yn97S/t0w9LY/pBfZc+OPSfpdh/cBsU6ON3K/9zUO/q+Nk3NGBffuen6tXdqgyCy6d+0Q0k/oWMkGC2+T9cz0l4m4dNeHjjxzrqbv4DfT82yxy7zAahg25g8u88oLJ/OD3QZD3mTPvNtczzrnq+G/Qe5TiHH/1M40/8gsbCAStbGwAAERMuM4XLT7NR1Bga+zdm3vnha3p36g49ONhhGmYzdsb50ZvqeeMBbZ3NAGBbmvkdaa/XQ/Gajr/h2ufElnhc74idgnJSYEGOmSnLOfzoDZWb17v0C17QuWyvV7Y2AAAiJHPMTOaYmmIVHmjef0f3lX1Kdz/wUT348ot6c91v697nPyt94/NuBWfqQ+lPqnTv1zZJf/t915jNu4q/+FM1/E7GDdkEh46ZbtAP362yoFz18EfV6MaS5PWjdzX28Yf0rNt3bf1DqV4Wu0wPZC0zJeU65kz7zbUs0wznMND3mtZffVfloZ6jbG0AACx3mWEmMJdQU3iguetevf3pQ3p33R/qJxvadN/QBb3767u06qGP6c5/+9u643Sd9NxvSIn/Sar8Tb376Sbpfz/sNs7hOz/UquM/VrkJNX4px0w7pXMzjQn5zt/puB7SdW/9uzVWUG/Jm9r8dT9A2eM8r7dC5R+zzJyHNj6SOo/f/ahb5uQ85gz7zbksU45zSJa5Htf1jT9Tux3gnK0NAICI2P+Zj04LM4Eg1Nh1ilHYU06ZXja35Vcu6c5f3aK7/vpPtOqBf2CCzjPSh+/rzhdP68N33taHu47pE2Mv6vVfPiDdX0gXyiLznijK95QVAACIgsKfcsr0+D/VqtH/qNUmzLy79//UO//Lf9Add92lBz/+83r/89f14R8O6c5vHNXro99fnmHG2PNPHkqVkAAAQKTNrocmizueW68Pp1ZJ+/+Ta1lu0v92S66/NQMAAKLF9tDMW6ABAABYCrMvOQEAACwjBBoAABB5BBoAABB5BBoAABB5BBoAABB5BBoAABB5BBoAABB53t+heXn/J9wsAABAtDx+8nV6aAAAQPQRaAAAQOQVHWj64yUqife7uVz6FS+pV+eEm02TbxkAAEDxigs0E51qH4kpNtJOIAEAAMtGUYFm4soFadsBHdgmXbhCogEAAMtDEYFmQl6e2VSq0k1eojEtIROdqi8pUYmZ6jvHXaOTc5lfforH682yuJkzQusm28yROuuDthL5Fa8sbf1xldR3pp8XAAC47RUeaCau6IK2yeQZmURjXl1QqpPGBJPqVlV2T2pyclKnzLKEW5J/mTWokYpTZlmH6rx1zVGG/HUnu6V2W9vqP6HWym6/zUwddWazbG0AAGBFKjjQ+OWmTbJ5xiQa2U6a1hNucPDEuEZq2nTAhYrS5hbF/Jf5l3lqvF4fj13XBJzWatfz0pTQ4Oir0qMVqkk0qT48cCdbW12HJvua3TkCAICVosBA068TrYMabK1OlniqzbwSPa4kNJ9i6na9Lt5ku15Km9VnXp/SvlR5KVsbAABYkQoLNP09StS0aSgcNCaH1FaTUI8XLspUOdiqZIdNZ3uqrJRvWSa7rlnqlZmyKG3u01BbjUbGU8vT2hhDAwDAilRQoOnvSagmWW4K2LJTjRJeoqlTR3dMiSa/92aftoXKSvmWZTLrDrVJoZ4g72/e2KDi5qtbK9XSbM4kWxsAAFiR+C4nAAAQaXyXEwAAuC0QaAAAQOQVVHL66le/6l4ByPSFL3zBvQIALAVbcio40Hz5y192cwACX/ziFwk0ALDEig40f//OB64FwM/deyeBBgCWAQYFAwCA2wKBBgAARB6BBgAARN6sAk3fH9yl+z/iT089N+5afallv64/e9W29OqAWzeYDlzJ1+6beO7XQ8ua1ee1Tt8mOH6h64ePoSvNoXXTee/jD3rd3HTe8Tae4GsWAABYBooPNK+e0Nhn39db/5+dvqmqlt9zwcUPAV95/GW37D/q84/67dKv6U+Gg23e14lNrjncPnxMw1tT4WL85W9p98Vgm07Vu/bMfb34B2Vea6Hr+8ce159tNIHlm9Jub50M5j1+5Xv/XLu/98fJ95auVx0t33KvgQJ5X9cRn/6FrtPaJ9RZ7776w0x88SoAzKz4QPPoAX0+GUjKVfEZ99Lc5C9975j+wgWMoj1arioNaywZIH5NFUXtqpj1y/T5qybgPPdbbj7dRG+39MwfKv6M9I3e9B4oa+K5P5baj6nGzQP5uYDSY79LPixX+6sqa3FfAjvUppGmLCEIAJBmjmNoxjT67SqV256YK3+tM098Xx1BeafYcozd/nP/0vXqjGvse9/SH1X5+8osa01X7Pr5jKv3GybPNJSptKHJJJrL6e/j1RP6/Zf/pU40uHlgRqVq7jPhpKPRzQdytdeprs699L6BHgAwkzkFmr4/+KyG2/8wVd752rAqXHnn/BOH9PvJYJEKG+ljVkLtW6XzzwUpwfWgeGWi9LJW+r6CMTGFrp99vEyaVy/rG2pSgw1Wj27WM+pWb3Jf4/qz3+/WM/8raQaLpL9HiVijiTgAgHxmGWj8MSh2vEwwhsWT7GGR6j/7zzX48pg/kzaOJcf4luFf0leSA4nDGrTlc98KlX6yjYkJy7d++NjZ+eWmzeazs1WmhmekP/pTf3DwxHO/p28885ehsUGAMWF+r9x4l/A0l7EvE531/n56GjXZQZwBgJnMItDYMPN70l+kBuTOC9sb8plvaTRHtaiqvLhjFbu+zx/sO9jyeLIH6JN28O/X/lp9mcuqDmnw24f0SZ50Qmmz+ux4l4xpLjmktLnP309jjwk29erklwwA8io+0Fz5V/qjJ1I9MUmbfku7vxY8FWRCz1f+XLs/W0RpxpZ6vp1lYK994uhrRQz4LXb9MDuO5zPH9F3X++NPL+tPPvPnunSlQSfC7cPHVGPXvXrA9eYAC6CuQ92xQY1O67kEAIQVHWgmxoalr3022YNhJ38QrrnhDzfpG954lcdN6PlmqByUPu4lNWg31F7VrWeGg0e9Q38/puqQqi6GHwHPJt/6uY49Xd83/1w1yXJTwJadfk1nvpn7b9JghZvvklN/f+ippn71JGpUQZkTAPLiyymBWSr+yyn7FS/pUeNkR8Yg34x2G5CqWzXoLZNi3XMrXwHA7Y4vpwQWVZ06poUZK6M9Y0wOYQYAZkagAQAAkUegAQAAkUegAQAAkUegAQAAkVfUU04A0hX3lBMAYCHYp5wKDjQAsiPQAMDSKjjQAAAALFf8HRoAAHBbINAAAIDII9AAAIDII9AAAIDIKzDQ2C/PS/8m4frOCbdsgXjfYFyvog8z2+0AAEBkFdFDU6O2oeAL87pV2Vqtkni/W7YAvC/o61NzqZvPyYatUIApeDsAAHC7mGXJqU4dQ22qSfSYOAEAALC0Zj+GpnSTttUk1BMkGq/UE5Sk4i7oTKizPlWmSnXoZGv3e1ri8Xq3fbjnxb3uTx3DL3nZ9iYlNKjWatPu7SijxybtvMLn4NbrjCeXLXgZDQAALIh5GhRswkH1BW0LSlLdUrsNB/0n1FrZ7cpUk+qos+vaMFOtC9uGMtqtQY1UnDJtHUo2JZnQ0i6dstsMtUmt+0xoqVOHOVgsKIelduTY82pVZbd/HLvdSFMo7Nh9jjb6y7pjGmw9YbYAAABRM8dAU6OKR83/TIxrJOglsb0dTQkNjr4qPVqhmkRTes/HxBVdGIypJesglxpt25Rr8IsJLaea5S0tbVZLbFD2EHl55xVTY5Bzpm1n9nnALaxrNGuOaJxOGgAAImf2gcYLJpUqS+aPmLpdj4s32d4Sb4DupE5pX0a5Z64mND7iXgIAgBVvloEmKOW40lBpmSqV8MtMWZQ292morUYjtvvDjb3JtW5ug7pwxW3jenmSPS+5uPMKj/NpTxSwHQAAiJQiAk2opFTSroqh8NgX/6kns4JbbibbHdOfGnBb3Vrpykylau5zj327ZYX13NSoctTv6SkJhynz/xtj4UHBYf55jTT5xynxxvlkG58DAACiLCLftm2fSLIhir8vAwAA0vFt2wAA4LZAoAEAAJFXUMmp5Cuvu1cAAACLa/Jf5M8ptuRUcKCZanvczQEAACyOVa0vFxRoKDkBAIDII9AAAIDII9AAAIDII9AAAIDIm0Wg6dXeVau0am+vm083fny9Vq1ar+Pj3ozWB68LNZttCtS7N/d5R8+4jq8378f+LOy0/rhpAQBgZZplD02taoePZgkdvWqPD7jXRtlBXZ+6roNlbr4Qs9mmECYoHR3eoz3TztsGtHCAypxfaLM4nhf6yjXy7JSmptz0vNSzYFltsa8JAADFmXXJqapKOteTcYfrvajTe0xocLPLyXjPOWlHi1p2ZDnvSBnX8V1xVV2eUleDa7JMEDwYngcAYAWZdaCpbHlWVfF289k9YG60R4fV0bLVzVvhT/bpJRK/8pOtLaM3wOuNyFzHcusd35tctj5nF8K4vDzTWKayRi/RmBbL7mOzTmtA8XKzj717M+bdwdLOYa97z+74valldnW/5ObPp85n+rr+sszj2z1nuyYh4z06N7BHW/OFl5muWfIyhefd62nXM9s5Gnmuyd699hoEbQAALLw5DApu0NY9p3UxuGvZG612yGSG7HrbFa+6nCyReL0L2drSmBtkud8b4a0z1qHhzeEbsrnJjmz1l13eo4G0gBUSPreyRvPqnPxOmgZ1TV3WHtWqY8zso6srY947SXMOZms77x1HOpo8AXP8o9Lz7vinN6/SLj2f43xC65r3ofgu8z4yj2+ON+M1MWorVe5eTjfTNcsn2/XMco4zXJPhSnsNusyWAAAsjjkEGhMHWszN8qg/GLW33dxEnz2onENfyitVe3pzei9Ktraw8Vc0bG6lyd6IsoN6ds+ARsbcvL3JtriFDVvNmsN6Jcuu/HJTozu3MtlOmnh7gf0H3jm43gnbG7H5tAaSJ2CO/7x7z97xa71eIM+08wmtO+19hMx0TayBEWXb1DPjNcunsOs50zVJXgMAABbJnAJNsrej1w647VBwL8zKG+w7pee1y7sJepWLbG3zzh+oPBAv92++Ziq3A5dPXwz1nsxkjy7bnohgytptUoxxvTLsXmaa6ZrYa14b6hlbMvN9TQAAmL25BRqV6eCzVYpvjod6QPIrO3hdYx21Gg599M/W5il7TFUKl7VMcDo9w/iRTHagcm2HxsI336kxdRQaCtw5pEoqszWQGoxcwDiYnNfEu+Z+eSst7Jhrc9zO571m5aqsDfXW2GvjXhZl3q4JAADzY46BxmhoMeFgj56d6Tnr3tRg0/J4lb9+trY0DeryxoC40oY3bqO4sRm9F0+rdlrYsmWnWp327vp2LJArn3gJYfq8PQfTkDzX5MDYotSqasTvdVnljXEJ3kfG8Wa8JkZDlxsb487HTrukRm+H+a5ZKgx5yy7afpZCLNQ1AQBgfvBt24vCPv1zVJVjC/D3dQAAuI3xbdsAAGDFINAAAIDII9AsCvu3XCg3AQCwUAg0AAAg8gg0AAAg8gg0AAAg8gp+bBsAAGApFPLYdkGBBgAAYLni79AAAIDbAoEGAABEHoEGAABEHoEGAABEXkGBpj9eopKS6VN954RbAwAAYOkUFGjqOiY1OWmnbsVUo7Yhf76vudStAQAAsHQoOQEAgMibZaCZUGd9ieL9btbqj6ukvtMs6Ve8pF6d/Z2qz1aamki1l5TEzdoAAABzM8tAU6rmlpgSPak40t+TUKyl2SyxBtXaLp2yZaqhNql1n/xMY8JO9QVtcyWryW6pnXE4AABgjmZfcqprVCzR43pY+tUz0qYDdd6MUaO2Uy7clDarJTao0VfN64lxjdiwU+16aJoSGvQWAAAAzN4cxtDU6UDbiNfDMtHZrpFtm1zvTKYJjY+4l56Yur0Bxm7qSKYgAACAWZnToODSTdukCyd04oK0bVM4zgzqwhVXSpq4oguDMTXa3FJapkolKDMBAIB5NadA45WTKhNKVLYo/QnuGlWO7vPLStWtquzukN8PU6cOb0xNtRsUbKa0kcUAAADFKzLQmEAy2ZcRXqSY1/2SruJAX7KslFZVMiGoj5ITAACYR3ProZnoVHvaYGAAAIDFN8tA4/8dmhL7CHbwNBMAAMASWfXwl74/9fL+T7jZ7F544QX3CkCmp59+2r0CACyFx0++XnigefLJJ90cgMBLL71EoAGAJWYDzdzG0AAAACwDBBoAABB5BBoAABB5BBoAABB5BBoAABB5cw40N89s15rtZ3TTzadcVeuaNVoTmlqvukUAAADzaI6B5qq6jtxwr7NZp8PXbunWLTNdO6zRWKvZIh8bgrbrzPR0BAAAkNOcAs3NMyelw4dNbCnA2kdUoVG9RljBMvbd737XvZou3zIAwNKafaC5eUaHxvar7Sk3P5OrfTq7c792r72pM9szyk9XW7Vm+3ZtXxPTWd3QkQ1rtCZYwRxne7JsFfTw+PuglIX59NZbb+mv/uqv1NfX51pSbJtdZtcBACw/sww0JlAcuqQteze6+VxcOLHBIyYl2uz6a7V7/06d7UulkKt9Z7Vz/3mdv5XQzqBM5a17Va0bzHGCslVCOmnrUVe7dKQi4beZyVsVmKP7779fhw8fVn9/f1qosa9tm11m1wEALD+zCjQ3zxzSpS3HtHuta8gpPIamXCeD8TEb67XzbJ/rbbmqvtHDypqNbr6m0bRQdFY3xl6THinXurMxbWewDeZZZqghzABANMwq0NiBwDeObPBDxoYjunHjiDZkfdIpZO1T2rLuhmweMYlGew+Per0tdhzO6JanlDsb7VTC9cR4k+2OWbtb583rYzpEyQnzLhxqCDMAEA2zCjRt4YBx7bDWrTusa+d35wklxs0XdenGOpU/4s+ufWqLdKlLXZekLU/l2NIbSHzWLzNlsXb3eV07vE6jjDTGPAtCDWEGAKJh9oOCCxIqF3ljYc6nylRrd2t/xVmdrbADhV2bNqp+Z3hQ8Ea1mcBkGvx92Mm220HEbn7DkQrtn7n2BRTNBhnCDABEw6qHv/T9qZf3f8LNZvfCCy/oySefdHPz52rrGvXVM6gX0fXSSy/p6aefdnMAgKXw+MnXF7qHJo+bZ3Qy12BgAACAIixBoHF/Q8aWoI7NMO4GAACgAEsQaNZq93k7oDg0ngYAAGAOlq7kBAAAME8INAAAIPIKfsoJQHY85QQAS8s+5VRQoAEAAFiulvaxbQAAgHlCoAEAAJFHoAEAAJFHoAEAAJFHoAEAAJFX0FNOs3kslUe95xc/AwAAsiv4sW17M7XfKlwo+83c3EznFz8DAACyW8THtvsVL6lX54SbTcrVPp/mcIyJTtXP6/ktxvvNoz+ukpISN8XN2Rjz/h7zWeL3DwC4bTGGJp/SZvVN9qm51M1HmQ0uTVL35KQm7TRUoXGbaG6n9wgAWLEINCvFq6MarKnQo27WBpnmOvcaAICIW16Bxit/hEsiE+qsL1F9UKOwJZP6TtMazAbrminuFVB8of3Ud467RmfaMQL+sYL9+bsLl0jc6/7U9nadic765DbJ8zRynttSqWtUbLBV+6bVezLKQGnXrnP6++9Mla3C7zfndc33swAAYJ4sYqAZVGt1cMMLpiYl3FLvhll9QduGXEmkW2rvlJr7ulXZesIsNcttyaSvWUF1pK7DrWtWjiXaUzfe6lZVdvvLTunCDMewG9kwU60L24bc/ibVkbX3wryHdumUt21MiaYS7TNH8PcV06B3nr7s57aU6tQxOaRtF6q9a589Y+W7dpZ5/6ONWd5vrus60/4AAJgfixhoatQW3PCSk7nZu6WaGNdIOPQ0JTQ4+qpZYG7E5gbZZMKPujvMXEhykGsoGNn91LTpgFuxtLll5mNMXNGFwZhaZhxIYt7DKReobI+Hmd+2yW3jzY9oPAgu2c5tyZWagGiu+1CbRkwYmxZq8l07j3n/wcLw+815XWfaHwAA82OZjaGJpQat2il7N4nPljKSg1yH1Fbj2mdUxDFma9bntkhKm3XKnFSiJ2s3zSwtwnUFACCH5RNoSstUqYQrVYT1+6UmW8doCo3NCA9y9XpYvFZ/P4OtOuFWnOhsT/WQ5DpG6SZtq8l27FnKdW5Lqb8zVPaa0BVzUjUVySHCvnzXLp+c13WW+wMAoEjLqIemTh1DbVKrP8bDm+LmJlzfpJG2A2ZpnQ60jagpGBRcd0BtalW1XW/fqCqTvSC2ROWPb7H72KdtoTJHtmPYu60txdixOqn2OY3jzXluS6iuTKPJMUzVaq3sVt+0Elu+a5dPrus62/0BAFAc/lJwRCzJz8CWzqpH1TKZMXYJAIBlpKivPigWgWZ+LcXPwD563jTSpqHQk2UAACw3BQcarBT+4+utyTE/dqAvvTMAgOVtEb/LCdHgHutOPq1EmAEARAOBBgAARB6BBgAARB6BBgAARB6BBgAARB6BBgAARB6BBgAARB6BBgAARB6BBgAARB6BBgAARB6BBgAARB6BBgAARB6BBgAARB6BBgAARB6BBgAARB6BBgAARB6BBgAARN6qh7/0/amX93/CzWb39NNPu1eFe+GFF9wrAACAhfP4ydcLDzQvvfSSm5vZk08+SaABAACLwgaaRSo59SteUqKS5FSvzgm3KJ+JTtUXui4AAFix5i3Q/OAHP1BDQ4OuXLniWjLVqG1oUpOTkxpqk1r3dWrGnFLarL7JPjWXuvmcbGAi+AAAsFLNS6CxYWbPnj169NFH9Ru/8RuuNbfS5hbFBi/oCgEEAADMgzkHmnCYaW9v10c+8hG3pAheaSlVkor3u/a0nhf3ujOeXK/eW2Dbm5TQoFqrTXuwcdo+42Yty99HPF7vtQEAgNtDwYHGlpJsSckGmMBsw8xEZ7sSNdu0ySslmZBR3arKbr8cNTnUppGmXOUjE1pGG/31umMabD1htq5Tx2S3YkFJq6POrGf3eUHbXInLLFZ7coeDGqk4Zdo73DwAAIi6ggONLSXZ4GIDjA0yxYcZ14NSUqLq1kp19zXLyzMT4xoxcaTR5hCrtFktsUGNvurm05jQcsCtWNdothrReLbg4+0zdbySpoQGkzus0TY/SQEAgNtEwYHGBhYbXIJQU3zPTGpQsO0dCfLLwomp2zuWm7yeGwAAcDsqagxNONQUF2byKC1TpRLqCcbNTHSqPRHqsZkNt89UmQkAANzOih4UbAPMc889501zDjOeOnV442Zcecgb+1JsD06dGmPhQcH+Pk2Dv087pUYaAwCA2wx/KRgAAERaUV99UCwCDQAAWAwFBxoAAIDlahG/ywkAAGDhEGgAAEDkLXnJ6atf/ap7BQBL7wtf+IJ7BSAqihpDsxCDfO1gYxtovvzlL7sWAFg6X/ziF71As1D/3gFYGEUHGvs49nyxj4ETaAAsJ+FAsxD/3gFYGAwKBgAAtwUCDQAAiDwCDQAAiDwCDRZO716tWrXKm9YfH3eNeWRdv1d7XVsw7e11i4zx4+tDy/aata382/jHCdZN17vXrJ+2cjrveOuPq4B3AwBYRAQaLBATKjZLl6emNDV1WVXxXcqfaez6w+oYy7Z+rWs301iHhjenwsjYyID2XHbLprrU4NrTtjFTl7dgXMfXm8ByUdrjrZNh/LiODu/RnuGjOc61V+3xAfcamLv++IMqKfGn+s70f45Ty+5X54RtWa24WzeYMr9z19smvtrNBaZvl3mswETn/Sqpv0fe4az++7Jvs9DtM8m6Xf7r47235LL75C+a4Zp6xwnWTZf9WqdMu5azND+/I/NzbYLjL9drWcRvEFCE3os6vWerCxgNaumQzvXkSTTjr2i4docay+xMg7buGdDImLckXdljqtKwXgmFncpy93JGZTp43QScrq1uPt14zzlpR4tadmQ/1/HjR6WODnNEYB5M3KPxxp9octJOb6uy9T53U/L/gW+v+Klb9paaS/126QO1DQXb/EQdda7ZMvtrH3lPsZF7kvtJCW9nj/VA1uBzovVO99oyN6gmqXva+S10+0zsdne495O5Xeh9Dr2jkabUDfTV0TsV63bLzHapS5ftmt6hznpzk+2RYt46GfJeayvzWs7SvP6OzP3a9DV/6LUu12u5IIHmaut2nbnpZrAijb8yrNpQ0ih7rEoDIz1eD0mynGRLP0H5pqxRO3ROfo7o1cXTe7Q11d2S4gWlZ3XQCz7jemV4QPFyv6xUUFkrp3F5ecYkqrJGL9Gkl5XGj2vXyLPqanTzWKFu6sz2Vl11c3NS+q6aQzebihr30vwD3jPyjk65m0ehJq6YgLLtHR3YJl24ku+f9vfUYW5oNYnVaZ+WJzrvkdpMu5tX/2olYu+5m9V7OtDm9rvQ7TOZuEMjNe9pk3cDf0+NsTs1+qq3JF3ph6o0t7jxUNipeNS9nNGHau4zN+WO99x8upmu9bRrOVvz/DuSNKdrYy3Pa1nAb08RrrZqzZo16qs/r91rXRuQ9JgOXrflpHYTWVxJ6vpBednE9p48byKNF07sgnD5KBVa/EXBEtfjkrWsFdomx3iZNOM9Jk65HqK0cGWN6/gus7QlW8LCyrJWu8/Xq8/8O7emdV5ijWNuyoMfqszepO2NvvJOnQi67gsqW9yhKxfMfWHThyrdZG4cF1bn36b0PW2rMTfFINGYT8n7Rt9VxyY3b0yM36Gaig/cnNmk7EMNmk/mC92eYj/ZZylR2HM3N/Qr3hs07yFhQk3yph/iBSYTCLzgY27eI3eqtdq/pkWVt6aZ4VpnuZbzY66/IyFzujbL91rOT6C5eUbb7X/gffW6deuW2ja6dmCaBnVdljZnhpbx41q/S3rejXnZejE8kDc8hqZSR1etzzLGxS9TpUpF4TE04XCUnV9uakyGK9tJE2/3T2D8+C6d2/G86xUCNqrN/Dt3q77P+wA3H7mmP36fRsyn0OR9OXGHKlzXfXflvdqXvGmkbiRp4xEmVuuCXK9F2g2/ECY47FutbQeyf4Jefswn/lPv6YJ3He6TusMlj9D1seWsZK+A6yVwJZL0MlWOa5pL3mtdwLU0N+l671jpU9p4kyzm/Dsy52sTnOMyupYZ5iXQXO06ohtap8N7STLw+SWm1CCYzBJUpvRAYeLJ1j06fTFLv4rtPanNMb7GqHpsNqnDH+w7EC93PTqrVG4H/56+6PUkpS0rj2tgIK5ynnTCxr06vE46G5tLCcofX2DHQgTjEzzJT89SXeN7oZ6L8BiF1I3c77Z/T/4mH2rTNqn1ROYYmUx+2WCi8z5d2PZ2aAzGEkve8B9Q6+BqNaXdTN3yfdIp7xr8RI094TAQHifygdqTg2XD/DJVqryR/Zrmku9aF3QtS99Vnzv38JQ2HirN/PyOzP3aZDvHJb6WGeYl0GxsM59Wbh2TDq0xn1jmqb6MaCuvVK0XCCwbCmxesWEjePrJdtOkSkFeAAqNW+m9eDp7ALKloYEsA4HtE0qnixkgHGLH5dR2aMz1DvnTmDpqT+tib4O6wu1jHaq16yZLZVh57Dga+2/dIemY/bevTbP7KGdvVPeZO3NqsOXs+IMmB+1AX3fzr7aDKDPGyKSxn4y98kXGttX3anDwXlXX32P+o0wvAQUloszS0Hy3p274P1VbzXtu0HDqZpp+E/Rv5oke/yaYxiur5RhfY1Sa4xcv37XOfS2n5YaCzdfvSIZ5vjaLeS3zmZdA47O1Zfsft60vMyh4xSs7qOteacn2eHiDZXSwzD42vVnDHS1qMP/X0jGszUFPR0OXxnacU7nrIdmsy7qerPGExsOUn9OOMbsv2x76ezPlcVV5x/A2MMJjaPIPGPbCU6h3yGfLTrXZe4mwgtkwEwSZOY4V7L9XrZWpT9lJde8plgie+DA3tPbVipmbdk52PETNOxpyN35/smEgNEYmzWrFzQ2i0ivVvKeO8HZ2sLDdV9+7Kn30g9DAYXuD8cc6aKHbZ+AFodBYi34TZrwglMkLbVkGr07co/ZEsYNgnbzXOs+1dJt7iik5zdfvSKb5ujZLcC3zmcdAE7D1ZQYFwzAhJejZ8Mfx+oN4g6BSdvC6pkI9Hd580BOSHPib0UMyFQ4t6cuSm0zbJnVMn12eGlfT0JW53OedT2qnPhvU6J1ZwewHt/n59832SCiR+nsqdvIHWNqnkIIxIg+YG9rboa7+9DENdn3vhh7qsfDZ7vsPQj0X4e3u8cZe5C5xOLanpFuu5GPHqrhHgxe6PcmO1chStqh7W0PbVqva2+5BNentUO9F6H1Wr9a2oWCfJsS59e2n/cq0Y02/prkUdq1nYN93+Gbtpmw/j/n6HZnWXvC1yWYZXcsMfNs2ADh82zYQTfbbtgk0AOAsZqCxn2ABFMf2ZmVDoAGAEHpogGiygSZ3gQsAACAiCDQAACDyiio5zTdKTgCWk3DJab5RcgIWTlFjaBaKDTQAsFzYQAMgWpZFoAEAAJgLBgUDAIDbQkE9NJSFAGDuKGcBC6PgkhMDdwFgboIBxwDmHyUnAABwWyDQAACAyCPQAACAyCPQAACAyJtFoOnV3lWrtCo5rdfxcbco7zKjd29o2V6ztpO1fXbH6d27SnuTO7bsulnOw640flzrM5cVJMs+F4B9L9Pfu2/8+HqtWn9cC3wKsxP6ea4v9CJ524R+JwJZ2r33nvzZZ24zruPrg2VmSl6jzN+Z4NxytdtFs3gfAIAlMcsemlp1jE1pampKYx1SfFf4xppjmQ0Pm6XLpt0umxqr1Cv2TpSr3VP8cRq27tHpi6Fb3PgrGtaAzvWkthx/ZVi1leVS2UFdn7qug2VuwTJiw8zRyjH/mkw7x161xwfc6+XGBITkz/OyquK7Zgh+LoBclPa4Fl+udmlsZEB7Lvs/+6mpLjW4dj+glmvk2WCZmZ6XerL8PtnpevKiZmu372PYtRfyPoDF0R8vUUmJP9V3TrhWX2pZvfxF/Yq7dYMp3u+tmuRtk9mYZbvMYwUmOutVUt+p5NL+ePZtFrodK96cS05lB5/VnoFzCuWFpLRlYyMaqK2UiRE+EyYO2jtRrvYMBR+nvFK1w68kg894zzlVdZjEMzIWtMg0aUfjMkwxSb26ONyh53MkrfHjRyXznmrd/LLSe1Gn92x1IaNBLebSh8PkdGU6eN2Ehq6tbj6Qq92qlc2j6UwA2hVXlQk6XeHfnxy/TzOyQbh2h/xfkwZt3TOQ+hUClspEp8YbJzU5aaduVbbuc8HF3udL1F4x5Jb1qbnUb5dq1DYUbDOpjjrXbJn9tY/EFBtpT+4nJbydPVZ11uBzonXQvbZMEGqSuqed30K3A4s5hqZhqwkdce3K/Jibq322yhq1Q0Hw8cNLZeNjqjp90cQEa0wjA1V6zLtRhUtH7vXxHGUG79N/0P6Ka3RCy+wUlLzSy1/hYxl2G29heonEa7KhoGpE7cE+w6Uls92ukWfV1ejms0k7H1uS8Y+RVkrJ2Gf6+rnY/eRbbtYIer+csseqNDDSk//4RRnXK8MDipf755vc53iPzg3s0dbZhJds0n6PTMA8PY/7BnKaUGd93Ny2cyhtVnMykDyqihr30mzRM9KmU6kUU5CJKxekbQd0YJt04Uq+ZFCnjqE21SR60s5torNdajPtbl79PUrEGs3aVp0OtLn9LnQ7YMw50NjegtPJT7Lp0pc1qGtqTDvOlXs3otSNPld7usKPU6bHqoJP0ya8mNtSY5n9hD2sV+zNKa0HIZO5UY5s9UsPl/doIN7ubt4mjJT7n/7tsufNje60126lL5sa69DwZj+4pJW/zHGHa1O9FbbnyOtm6G1XvOqyv62Zkr0Lp4dV6cogl6uCwGd7Ic5pR0u+O6s9H7NOUEK5LB09Lh28bssm9v2Y5bYkdP2guVK51vfPcf48luf4xXI9N971yigFhXv6skoFofTftWzt5jjPm0jjtdsTDpW2gAVTqua+RvXYksq03pBMr2p0sFJlNsPYG33lqE64UkxaCSinCXl5ZlOpSjd5iSb/NqWbtK0moZ7gtCY6tW+0RR2b3LwxMT6imopH3ZzZpKxSg6OvLng7YM0y0KRuAOXxqoybU75l7mbk3fTDN5Rc7bM7TjJIeD0dj3nt5ZV+mMjsQUhXq44gLNieI7kQ5JUfOhQs8kpc/kt/mZlLfnovO6hng/JEqPzVe3FYO57dYU/CzIfKXnad05vTe4OsPc8mx83Y9zNgdjh+fJfO7Xg+/5gfN2YoeYPefNrb1guOJqxszrw551w/JNmDU674wGmzD3/dXOEzuxzHnxO/FJQsaQ2MmAibT/pYmVRpKku7fc+7pOdd29aLxb5fYLbq1GFLKo09XjjJlWv6400aaTvgeiuMxIgqXImou7JV+5K1mEG1VrugUxLq/Zm4ogvaJpNnTDIwYcXMFd7ZMaHOfWbrA8mjA0tuzoOC0wZlevItc8xN//mO2vTBu9a09lkexwWJXhNe9rikUdZowsRIz+KOn0mWLeyYmB1qbLDz5qZryyNez5Fdxw5Mtr0+u2YICRe9gcADcb8na1V5XAMDcZVnLd3sSQ2ytlPaoJJsZljfnePU1Jg6alPrZtutX2JKxYr8AXJ+VNn6ob3WtaeV+Ss1W14P2o7G6SEZmC8TnaoPelTCQSNQd0BtNSanNGUus2Upf7xMX7jEFGtJjpupa4yFei7CY2E6kgHILzdtkr9JqWwnTeuJHOkpqUa2g2Sic58ubDsVGqcDLL3FG0PTezz0lIjtoRjwb3S52ufCCxJxbY77VR2/zY6jiSueHD9TBLutCQ/t7n7mlbj8l/4yM5e815lP9keT4y3KZHPUuV1HNezdHO38sC62j6TdLK2yg9c1ZsLcsO0Ssr1Dp4+66zKu40dPm2DWpa4gcNhprEO1tR0a83qmelPjc9z5TC8buVKPrSltDo2Dybn+LHk9TsF4Jfs0VhAgcxx/LrxrHQwQLtPBZ03oSOvhM8w6x2dxMC+Yeb1pvt6Lpxc8mGGFKW1Wnxcy0oNGEFhKSvZJp7It89vTwkzR/MG8g3agrwtV1XZwb8YYmTS2R8crcWVsW92qwcFWVdd3mv9w0ktAQYkoszQ03+2AtYiDgh/TSFDWsKWLqsv+47G52ufEBodaKW3MjS1PmP/JOX4mH1su8W+W9jx3mbiUepTYLHOlMr/nxI5HSfUYeT1DA6leITs/fHo41UsU+lsntnT2rPfe7T6D8Rv+NZmxkyXJPx8FPTl22mtu6us3a7ijxSy1Tx4Na3OyZyfb+rkSgC0N5uh1C9jeHK+0ZPdlE4x95NwOJs51/GLZ8ObO0xu7ZPfvFjV0JcuWyfeyS2os/gfu7WtsxzmVu/1s1nz8XgIzSQWW9CeVnP4Taq1M9cQk1TUqlgieVDL7aE8o1pinHGTH3NS0aSgZqOw0pLbwGJk0/Yqb4FLZbcOVK4kFkx0sbPfV16zSRytCA4dt8PHH6Gih2wGDb9sGgEUwH9+2bf/mi9eTElLT5kpPtoRle0tsY6xbk97z2SaIlDQpYdscu37LaPX0kpXh7X+0xWxrPuOkbWfLVlkClmWPazOYDTR23v6dmCZ/y1h36DHxhW7Hima/bZtAAwCLYD4CDYDsbKBZvJITAADAAiHQAACAyCPQAACAyCPQAACAyCPQAACAyCv4KScAwNzwlBOwMAp+bBsAAGC54rFtAABwWyDQAACAyCPQAACAyCt4DM0LL7zgXmE5efrpp92r/Pj5LU+F/vwAALkVNSjY3hCffPJJN4fl4KWXXioq0PDzW16K+fkBAHJjUDAAALgtEGgAAEDkEWgAAEDkEWgAAEDkEWgAAEDkLatAc7V1jda0XnVzuVxV65rtOnPTzabJt8y42qo1a8wx3LQ9c8Vg+fYz8pZkzq8o9lqmrpWdZvzRLCf8rAFgRVk+gebmGZ0c3amdoydzB5K5sDes2KgOX7ulW7fsdE1bLm0I3ejMDTx2VjsTZtn53Vo7bb4YMwSryFiXul6JnTobazXvLAL4WQPAirNsAs3NFy9JW/Zq7xbp0ovzfXe4qTMn7Q3rvHYn71ZrtfvYYelIV+gmvU7lj7iXnsz5FWxjvXZqVK8t+xs3P2sAWImWSaC5KS/PPLVWa5/yEk16t//NM9qeLB285hqdfMsCN1/UpRs7Vb/RzQfWPqUt6+xN2n7KjumsbujIBrufMxnz9mzMjXK7fxw7JcsvoeOvWWN7MNL3NXMJLSKu9unsui0yPyLftPdtud6Kq6ll9u3fPLPdrZdR+knbR3BN/eucdtlsj0tQCsp63BB+1gCwIi2PQGNvQnI3S3vjMXOpThpz09hwRBW2HHDrlo6ZZWfdkvzLMqwrV/YP4Dc09tpGtd1KaKcrsZzfvTtj3pzY1S4dqUi4EsYttXk3THt8c+bJsox08swjadve8leMKHejtjfwvvpQOSbb+w5+YGabk9Ixr92WqdbokPnJ+Ovt1I1kL0n6z+7WtcMajdnSzVrt3m+260uFg6t9Z7VzvysN5TxuCD9rAFhxlkWg8ctNT7mb5VrZTpojXe6GdvM1ja47rL3uXrF2935zA3HyLct0Y0zZ+28KLDU8Uq51Z2MZPQzm+OGbfsx8Vh/L0UsUSe5GbcLGurN9LogYed+32eaYCz5emWqd1/PmCZetvH2EelLW7tb+nTZwmNd2veTxrqpv1P2MC73e/KwBYMVZBoHmqrqO3DCf3Df4NwozbTDz5iN66gY6V1654axCH/p9XnmiQo+4+21e5oZ73nwyP6ZD3jmmqgs7lXCf5L3pdvyUbt77scOjGb0hC/m+N2qvO97NMyc1mgy71gzH5WcNACvS0gcab2zGYV0L3yhuXdPh4Ka09hFV3DiiZIeNucEly0r5lqVxZYy0p3T8kocO7zW3z8Kt3X1e1w6v06jtZrDHN0fMWva4zdjer4ojh/yneebjfbt9JIPHzTM6eTbVY+OPpepS16UK7Q9G9xZ0XH7WALASLXmgseMj1qV9Ards2WmdG0exUW1uLIb9tHxIW8zn5EC+ZRk2tnnjHmJmPbvumjUxmY/b/piJQgR/p8RMG44EN1lz/Gv26ZlU75I/MHSj6ne68sRtM1DU9pqYt3rojG7mfN/F8Pcx6n52a7zxKW2m1fHGUp3V2Yr6VFuhx+VnDQArzqqHv/T9qZf3f8LN5vbCCy/oySefdHNYDl566SU9/fTTbi4/fn7LTzE/PwBAbo+ffH2ZPOUEAAAwBwQaAAAQeQQaAAAQeQQaAAAQeQQaAAAQeUU95YTlp5innLD88JQTAMydfcqp4EADAACwHPHYNgAAuC0QaAAAQOQRaAAAQOQRaAAAQOQVPCi45Cuvu1coxuS/KGzANU8hzQ5PCQEAinrKiUAzO8UEGr48sjh8uSMAwJpVoLnVfJ/3v8hvTefb3v8SaBYOgQYAYPHYNgAAuC0QaAAAQOQRaAAAQOQRaAAAQORFK9BcbdWaNWuS0/YzN90C66pa12xXqummzmw367VedfMrmbsWwbXbfsa0LJbMnwsAAPMvOoHGhpnYqA5fu6Vbt+x0TVsubcgINSlXWzfo0pZrutW20bWsUDfPaPuaDRrbH1w3Mx2TXiTnAQBuIxEJNDd15uRZ7Uyc1+61rklrtfvYYelIlzLvzTfPbFdMCZ1PrbxCmet26IgqEreUluvW7tbuFZ7zAAC3l2gEmpsv6tKNnarPvAmvfUpb1o3qtXAnzYut2nBpi66t9J4ZK9d1C7naGipFJctzrkx0JlXiS+8JSy9hJTfzeoOC9tZpQRMAgIUSnZLTunI94l6mu6Gx19xL8/rIkbPauX+3VnrfTFLO6+bb2BaUohLaefZkaKyLuZZj9f6yxE7dSPaE2TDjynmuhOVnRxOCNlzSlqAkmJBOMnAGALBIohNobowpmVvSrFN58o69TocThzUaYxBqUs7r5iQHWsd01jX5zLXc67p2NtZrp1xPmOv12Z9Zzrv5mlnDhKANrocmdtYcOu+RAQCYN9EINF5p6az6pg2WsTfXCj0Svrc+slvnExXmxkrJI+d1C9gSUUxKeD0t13R4nWuftZ1uX26i7AcAWCQR6aFZq937d+psLBxSbInjiHR4r6bdNje26drhUcUW9fHk5Si4bqFxLpYJMmfs/GtjuhGUpLxwaF/MwIWkaeWktY+oQlnaAQBYBNEpOZmQYsdlxJKDTr2uhZxPMq3dfV6JiiPasNJDjb1u12wZLrhuZjokPWVT4Ma9Oixzjby2MVUU1ENjQtL5hCqObEjuzw9LG9VmjqNQO38DCACwWPi27QXCt20vPL5tGwBg8W3bAADgtkCgAQAAkUegAQAAkUegAQAAkVf0oGAUh0HBC4dBwQAAyw4KJtAssGICDYpHoAEAFBVoAAAAliMe2wYAALcFAg0AAIg8Ag0AAIg8Ag0AAIg8Ag0AAIg8Ag0AAIg877Ft9xoAACCCpP8fmbiY9FVtAVoAAAAASUVORK5CYII=;movable=0;resizable=0;rotatable=0;deletable=0;editable=0;locked=1;connectable=0;" parent="1" vertex="1">
          <mxGeometry width="564" height="313" as="geometry" />
        </mxCell>
        <mxCell id="aza19dO2QHTu9v1M0MKG-1" value="" style="shape=image;verticalLabelPosition=bottom;labelBackgroundColor=default;verticalAlign=top;aspect=fixed;imageAspect=0;image=data:image/png,iVBORw0KGgoAAAANSUhEUgAAAToAAADqCAIAAAC9aR6QAAAAAXNSR0IArs4c6QAAAARnQU1BAACxjwv8YQUAAAAJcEhZcwAADsMAAA7DAcdvqGQAABSaSURBVHhe7Z1NiCXXdcfrTc9oWpYijSTESI6kWIyFI4+CY7U9RBPwx8jGOLEjCSeD3XaSp2jcgSTg+CPWEILbSMaNF7Y7JnijhQdMYKBxNoJeykx2xqCEoLEWAyYmeCO0SLSJyGZyzv0899atVx9dr17dev8fh+5bp869t6rm/vq+6enpV9z34usIBCKLYF2LywgEYuwBXRGIbAK6IhDZBHRFILIJ6IpAZBPQFYHIJrrqeuHrxfs/V/zVT+M8AoFYWrTR9RPfOPVbjxbvOk/tW0/dO3vsY8Vjf0TtEyffsXHiZPF3/+ErEQjEEqKNrrNjxWMfu+d9H77ltjuOn/3I7E+/e+r9F4qNW4698z2z3/98MT+I6xEIRK/RTNdbTxVf+/fiky8e/9SXZ5/99uyjz93x9Jcf/uLenV94YfbkpdkffuW+574Td0EgEKn4+X/+z59d/a8oSUFJOhUlo2ig6+lHZw+e3Tzz+PEHHp1duHTHA2eKP/iWOUUOP/TBRz7y6d9+8pmFL4Z/uf/GTcMbb57nzK8Pb769vy9rVhXJKxnP5SGmFqTl/739v5GxyWQ5Gu2us40TJz77wuwz3zi+eXt0qj7237xx8+bhVX+4z23oiljfiORs6CpFI12Lz/+Y9tXjX/xh8dc/LS7/wkapLBG8r3pXfUBXxFqHU7S5qxR1uv7tz048+Njmw79Lus6e/cGxDzy9eWaL4pb3PHHvw++d3XpnXB8Fb61v7URJDuXDVd54iRuv/FLnd15Tx8Rrv/Zlr7ylc65M79gq86b3yiZvlmYsDVszgkjyBRy+9rYZM57Cv8hXX5KiQwRiUWhRm7tKUafr2U/f88RTd33yL2fP/uPsuX86/cyXTj/1pd+8+PyDj39o45bN4r6zcX0UtL7NX1ajIA3s32Ovko2RYG5zU2XaMV/GSe3D+VdIJO+Vse7qW17sIIJhUyOkk3a00hR0Sc5/lQwOEYiFsQRddXz9tVs/8/zJv9gvPvej+NTi4O0o3utUiKUfaqA2J8LZUioLvgSIpOmoiLSJhq0aoZyUF1CeQmWiPb/iKwUCEYR2lT66RlSQjGa6zjZmv3exePYHd555X+O/tepo8ndXqZx7kVmyRZaldU1+XUgNWzVCva6JKdRW7O8xOkQgyhEp2tzYBrp+7d/e8cjWyY9fuvOJp2cXX9y8/0zxyAV/9vnrJPPmvQ8Vz/6LT8pQO5tfvonvDNs2VWphWIySLYFCi1+1hpEeNj1CKqkbpiA5BdXLfHSIQMhIytnQ2Ga76xf+WTdue/fjs4sv0E678eDZY3c/UNx+b3H63cXZJ2ef+mpx/+/4+ijYE4vZwSINdNt+q+aNtw4X7K7Uti9uK77VFL0YLg9bMUIiKS+gNIWtN3+pjg4RiFQs+cckXDz9veK9Fzb+/Hsn7zq9+dCjs2f+YfbU5eO/cfexE5vFpR/e/+E/Lv7mX+Muyw72B24g1iXa6Hr5F7ONE5t3neb289c3/uSbpy59X+c37npn/XeJlxD8LzT+L5wIxMSjla5BHLv97uK2e6LkIGFf3DLYWhFrFN11RSAQAwd0RSCyCeiKQGQT0BWByCagKwKRTUBXBCKbgK4IRDYBXRGIbMLo+t8AgNEDXQHIBugKQDY01fVgXhTzA3MQQyfP7b1qDizJJACgO810fXXv3Ln5/FyVftAVgCFopCvbuveq/mhSAdAVgCFooqv1NPKVDgvm3N6eNzORZG9pazYvpm2BfW0dHYeHUB4AQQNdySDjjG8pk6Rwzsx00nYT/h3MuUUJ3UFTPrTlAIB6XaWjLKHT0YtkrUompXNKYg8NpTK+U3QIABDU6kqyRShfu+sqd0+DktSfiA4BAJo6XYVrCicca6yNUnY5M5NJNwQXBONZqF7mzWE8OwBrTY2uZV+cr0o9JvhWUyIZjqE8NtA4tt5oXj6ErgBY6nZXAMBogK4AZAN0BSAbanT9ewCWgFleoCX1uprfvw1AT0DXzkBXMDTQtTPQFQwNdO0MdAVDA107A13B0EDXzrTR9XBH/8DR+X3/psQRtiSoCfu5EmbnUJcwfEIeh5XlSW/sn/fZcI4+M81p0jeusccKd/d8awadS5epdPDIiFSOCR7XSoGunWmuKy0Dt3Qq/thv7O+bdeJrStUV3Wk1nd/ZOS9PyUpqR6tQZfwk0bX1lWlOk75yoqihfdIj+LEs5TGV0Ts7cWHiMWpohG5fhPqnXlf+WVT9k66WION/kDUsmj6NdRUriJdEzZ+7KznciUvLK4/RHcKRw0o6J5YmHe3s+0nia+sr05wmfcUJW06fXa1vl56aLJOIWRV6hvIFUMY/rlWzUFel4nwu/t9zOXNwoFv+59fXhaa6BiuAFwn94fvFVVpLdhnxZ9oBFNXVfvh4GllJ5+za5NV3WNlp57CvjGl7qCSRJUp9k8/HVbnR/TkxI5XpRybP2WaA76Ow4wdXow6pKkqujvrdlTfTyMNyhkgmp0xnXWmR6E/RimH84qKWaKoWpyy2ox9dzuOHUdAp3cHWxJ8V1GkUulKV/hQORHXBndNZR3lkOqtHrSorDW4uQl6ObQeXuEp603XtbD2SrmYVhauMCoVkcjmZNn2KV020uGyXqNJU+WLbkt31LH1lTJugc1oWS3jXiWswDVkpimwJfbYpnsKPobGnRVmAHUYhr4EHU2d8Up5eKayr/H+UitC7Gl1N7zVzlWiqq1wY/s+dksHCLa0IuZxMmz5Fq0aNEqD7hJVmAZaKqcSMbKq4T1+ZGErbiohkX0qK5xOMaerpk8vReV+ssaPKMok9b9oRdKqUTA4zLH3urmv2/6Eb6+rXkls6eq2IFSOaFlfs+ruMJU4kK6ldGtst//K19ZWJoQpdUCLRlxqU0R8VYlTbFCkeIZzUZ0RZQHpwhb8gAyWSYwxOb7pWZadLY10JWhAKtQj8UnItbgjM2nBZs3bsKAqqKa9E7sHFsjIqUVCdSwfXpugr05ygr3sqoiUehp3A9mFKN+MvQ5bJZ0F5P5DIM/YxWuTjWims61FeDNtvDKskdldBoCsAfXDU3VWoHhVNHugKhqaBriANdAVDA107A13B0EDXzkBXMDTQtTPQFQwNdO0MdAVDA107U68rAL1jlhdoSY2uAIDxAF0ByAboCkA2QFcAsgG6ApANtboeuHdcJXr77w/8U9rNBmteCcDUaaKrs0WpO8R/gpCTAgAMrXQd7HfPQVcAErTUVfrq/9uhTsTHpQwPNZ9Tio7csKpxYApVijIW7iYuwI/nplBn90wPKA6mTWddRf5gzi1KWIcUXBn6QxWij2ly0jR9DzF4WGlmCCptVpwHYJJ00FUdsjAC0kRlfCkfRvLIoVw7GJ8OVJ9UZTjgokoAJkpLXZ0zCRsZ5aw60UVX1ydVGQ5I2cpKACZKK12p7YzhdlIO0srpFRYk1RLjeCErK83sNZUATJMmujpCGdgZC7njC63RcSqpFjfU959cGWN68rHo5WcsjxO1AZggtbouGzgGQFOgKwDZAF0ByIYaXYvLryMQiIHD6FeiXlfzC3YAAIMAXQHIBugKQDZAVwCyAboCkA296KreYlS+X6hCvWGpettQ+TamC2hYthC+lNKVjAP1PDTjeDNVkB196XqeCNegcnjghclvK7yzE1yJfC9i2e6LZmMqVf2XkRv7+z18SVnG7YBR05uukSWc29kZeD2xrfs39EeTCtb0MtZ3kzFZ1iVs+cu4HTBqetN1/wZ9dGtSK+PWk2uoXUahSqNDsf78GTeoOrtv3trf1kn0pP6z6mLhrx0WPWI0uR7/0CQp5c7buYIClZTj0xjxiAZOBwmP7+Eq1Czm5lxbNYJ7j6ZO3w59DY2uBWRNj7ryJ7M0aOmYhFhteo3JxRMdBvViKJE0WXHeYyYNWmLM6vbhjmqp8XVONFXbz2qywVWZQm6WLoqRlxPgh04P6NtcWbr3ZCU3VYvr3GkwDfrU1a1LOlYLyq0hUSDXUHQYlPmFXxotahvs5KZtB6jopab2cHHV+K4tk3wQX1V8O5bwdjxhPjGgb9cla24HTIRedeVVo14umnWSWlh2abl1Kg5tWYt17KBMhB6holc4haJqfNeWSddfJpno7hSJyZgWt1mXrLkdMBH61VU1/Q6TWlgKWl3y2B7Kerv6/EKUg8QDpmZYsPp1e8EQybbokr4qQ3R3DHcVPpnvDHO2dJu+JSaUs7h2lIyuQ54FE6FvXXm1uWVZWli8qDSqJjqU4/Ci1biRxdmgzcTHYtWbSUptMYXOVI3v2txQ37yxPRR+TNMi3EmBnM6NnbhNNyIN47617q4haPupiUW3AyZCL7quCRAArBjo2hzoClYMdG0OdAUrBroCkA3QFYBsgK4AZAN0BSAbjqQrAoEYOIx+JWp0BQCMB+gKQDZAVwCyAboCkA3QFYBsqNH1QLy7qwbvPwXAqmi4u+J94gBYPdAVgGxopeure+eK+YFJWYXVpwM6E75U5lqN7wEAOAotd1f6bO2zTfpsNWVFdcvWq6Z3GABwBFrq6iT1Fgoz3Wm/tSqwvwLQB211ZROppT9Gp7SmVlc4CkDPtNZV+TqfO1v5lFDZ7b34Jx8A+qa9rtpFv3fyKdI3ftnL6lqw0QLQBw11DSBBhYCByQCA5dFeV34xLPWErgAMRCtd9QvcSE7oCsBA1Oj6EwCWgFleoCX1uv4KgF6Brp2BrmBooGtnoCsYGujaGegKhga6dga6gqGBrp2BrmBooGtnuuh6bXer2Nq9Zo40V7b1zxsqtq+YLABloGtnOuiqzEzoalNsc5WwogysK9C1M611JRm3d3e3Fui6yEnoOnFefvll0xJESejamZa6sqxX+OMCXanJm2u4yfL5rS39WpnQJ7hk0THIi+vXr1+8ePGll14yxwo6pCSdMsfQ9Qi00tVqmtbVYV0z3somW2t7ivaVbW6JepApkbFlVwno2pkWunpJ07raFO+Ruu380zrqjCwTUKHKxAOD3HDGJl0loGtnWugqv/fLBGIJD5V2WlPttf6oTkW6JjZT5Sx22bzRxiZdJaBrZ1ro6hH+WZK7q67c3vbV0mpq+wNJYniQGyRq0lUCunamR10dwTk+IfZKU+c2X3XEUMaPgc11ykDXznTStQ3kIOQDEujamSXrite1oAR07czydNWvdCEriIGunVny7gpACejaGegKhga6dga6gqGBrp2p1xWA3jHLC7SkRlcAwHiArgBkA3QFIBugKwDZAF0ByAboCkA21Oi61QxTvZaYR1CHqQbgCNTrerOONV+LeERgMHrXtfx2rz2+AWybofjNaDvP22KiLrrS8Ab1NvRHutQkPT5zMCKmq+uRaDFR60fEcipLVXvPtPoFuk4T6JpkmboOcRODPSgwKMPqyhuLexEoXgKKEmoa7A7kep3b26sYShOl3KCqcWBOmokVdqzypOKC6uj0iKLRxXSJm1Vn6cjkbcfyE0j0BZNiGbqWEctOr6GDuWpRhpaa/hjhinlAfVqtxqqh+KRNaYIRyk3VjuaVXcLBqmn/iAgjlp1ezpu8WZv158UV+odZ7gsmxYC7q1miFr/+TNOgMgrby49XPRRngmHElbhGdZuahnKXGjrpqlB3oS7aTpe82eBiRKW5YIV+Aom+YFIMrGtklDopdfU1dvUlV2F5qMTg7krkJaXa5UmDshq66+pnFlfip3XXsPiaLem+YFIMqCs3onOUoTWnP9qEruDl6Hs5meTrw3Ao38HixnKNirbLBZO6shpaP6KDPTuym89NR43kzbqLCSpdVpHsCybFkLqadWSY7zk5vCau4tx87jYLXocql/5Wk9udbZ1JuHnlJSXb5UllWQ2dHpHFX7mdzp6Mv9VkLka0y08g0RdMit51XTuW9YjYRmMzAJp6XZtgqtcS8wjqMNWN4Z0SGyQIqdEVDEviJT4ADugKQDZAVwCyAboCkA3QFYBsgK4AZAN0BSAboCsA2QBdAcgG6ApANkBXALIBugKQDdAVgGyArgBkA3QFIBugKwDZAF0ByAboCkA21OhqfnNJHaYaALBM6nU1vx2sGugKwDD0rqv95ZnMwl8Nxr+WCL87DIAWLENXI+HRfBS/UBcAoFiirkdTDroCEDOUruI3ctpfyOnOqkbwhoiUsehq3939vnr+lft0yEcArAdL1FW8GGb9jKU+6yqVnE5DIaTuHLTFmyO60wCsCcvQ1WEMVYratqpQB05CYWMyKXZmhjvLLgCsC0vcXT096Oq7K2QXANaFQXTlpBXOu5cyszIZDSrPArAuDKOrfEErJdTtyEzTphaj1ZavhzlTMQsAk6Z3XQEAy6Je1yaYagDAMqnRFQAwHqArANkAXQHIBugKQDbU61pcfn1NwtxwBT9ZG8wNg/EBXX2YG66A1vGv1gDoOmaa6mr+MCcKdHVA1zEDXRno6oCuYwa6MtDVAV3HDHRloKsDuo4Z6MpAVwd0HTPj0PXKtvnfNkWxtXvNJDnrjq7tbhXF9hV90DsD6qpuRCNutSfkE+sIdB0zI9CVXQ20tAd+8fWwDBcykK7R15xru7s9f/2BrhNn5bryEg52TZ8wi69U0T+D6DrAfUDXibNqXRNrmFJ6zanFt7vkjVUxhK7VttJ9Gsx5e+MKcfc8hMYUxgnoOnFGoGu8wNy6Nss4vcZ7ZSBda1RysqkbdwKaFj+WcAAh55Vt1RKZrkDXMTP63fVKaZUugYF0rfrKo/RUiBs3t2zb5e6cEfBJ6DpxVq1reRn6hF18vJorFnpPDKFrla8+Ta22ukbjQdeJs3JdIxv5wK44v/h4ZR51HS5iEF31zQnD9HeG3V36m/Q3njxt4eFKmTDRHug6ZkagK8ELzyD2i2DxlddmjwykK8HSWczt2NTW9vaC3dW0DeYpydE4FTyxbkDXMTMOXVfNcLqOHug6ZqArA10d0HXMQFcGujqg65iBrgx0dUDXMQNdGejqgK5jpqmu6xDmhiuArmDlQFcf5oYroHW8JpgbBuOjXlcAwEiArgBkA3QFIBugKwDZAF0ByAboCkA2QFcAssHoikAgMogXX/9/xnKZsuSBxXIAAAAASUVORK5CYII=;movable=0;resizable=0;rotatable=0;deletable=0;editable=0;locked=1;connectable=0;" parent="1" vertex="1">
          <mxGeometry x="250" y="390" width="314" height="234" as="geometry" />
        </mxCell>
        <mxCell id="aza19dO2QHTu9v1M0MKG-4" value="" style="endArrow=none;html=1;rounded=0;strokeWidth=6;strokeColor=light-dark(#000000,#FF0000);movable=0;resizable=0;rotatable=0;deletable=0;editable=0;locked=1;connectable=0;" parent="1" edge="1">
          <mxGeometry width="50" height="50" relative="1" as="geometry">
            <mxPoint x="9" y="247" as="sourcePoint" />
            <mxPoint x="139" y="247" as="targetPoint" />
          </mxGeometry>
        </mxCell>
        <mxCell id="aza19dO2QHTu9v1M0MKG-5" value="" style="endArrow=none;html=1;rounded=0;strokeWidth=6;strokeColor=light-dark(#000000,#0000FF);movable=0;resizable=0;rotatable=0;deletable=0;editable=0;locked=1;connectable=0;" parent="1" edge="1">
          <mxGeometry width="50" height="50" relative="1" as="geometry">
            <mxPoint x="145" y="247" as="sourcePoint" />
            <mxPoint x="209" y="247" as="targetPoint" />
          </mxGeometry>
        </mxCell>
        <mxCell id="aza19dO2QHTu9v1M0MKG-6" value="&lt;div&gt;&lt;strong&gt;PPSSPP Process Base Address&lt;/strong&gt;&lt;/div&gt;&lt;div&gt;&lt;strong&gt;(&lt;/strong&gt;&lt;code&gt;0x0000_7ff?_????_????&lt;/code&gt;&lt;strong&gt;)&lt;/strong&gt;&lt;/div&gt;" style="text;html=1;align=center;verticalAlign=middle;whiteSpace=wrap;rounded=0;fontStyle=1;textShadow=0;fontColor=light-dark(#000000,#FF0000);fontFamily=Calibri;movable=0;resizable=0;rotatable=0;deletable=0;editable=0;locked=1;connectable=0;fontSize=14;" parent="1" vertex="1">
          <mxGeometry y="320" width="177" height="30" as="geometry" />
        </mxCell>
        <mxCell id="aza19dO2QHTu9v1M0MKG-7" value="" style="endArrow=none;html=1;rounded=0;strokeWidth=6;strokeColor=light-dark(#000000,#FF0000);movable=0;resizable=0;rotatable=0;deletable=0;editable=0;locked=1;connectable=0;" parent="1" edge="1">
          <mxGeometry width="50" height="50" relative="1" as="geometry">
            <mxPoint x="100" y="248" as="sourcePoint" />
            <mxPoint x="100" y="318" as="targetPoint" />
          </mxGeometry>
        </mxCell>
        <mxCell id="aza19dO2QHTu9v1M0MKG-8" value="" style="endArrow=none;html=1;rounded=0;strokeWidth=6;strokeColor=light-dark(#000000,#0000FF);movable=0;resizable=0;rotatable=0;deletable=0;editable=0;locked=1;connectable=0;" parent="1" edge="1">
          <mxGeometry width="50" height="50" relative="1" as="geometry">
            <mxPoint x="187" y="367" as="sourcePoint" />
            <mxPoint x="187" y="247" as="targetPoint" />
          </mxGeometry>
        </mxCell>
        <mxCell id="aza19dO2QHTu9v1M0MKG-9" value="&lt;div&gt;&lt;strong&gt;PPSSPP Base Offset to PSP Memory Base Pointer&lt;/strong&gt;&lt;/div&gt;&lt;div&gt;&lt;strong&gt;(&lt;/strong&gt;&lt;code&gt;&amp;gt;&amp;nbsp;&lt;/code&gt;&lt;code&gt;0x00A0_0000&lt;/code&gt;&lt;strong&gt;)&amp;nbsp; &amp;nbsp; &amp;nbsp; &amp;nbsp; &amp;nbsp; &amp;nbsp; &amp;nbsp; &amp;nbsp; &amp;nbsp; &amp;nbsp; &amp;nbsp; &amp;nbsp;&lt;/strong&gt;&lt;/div&gt;" style="text;html=1;align=center;verticalAlign=middle;whiteSpace=wrap;rounded=0;fontStyle=1;textShadow=0;fontColor=light-dark(#000000,#0000FF);fontFamily=Calibri;movable=0;resizable=0;rotatable=0;deletable=0;editable=0;locked=1;connectable=0;fontSize=14;" parent="1" vertex="1">
          <mxGeometry y="366" width="290" height="30" as="geometry" />
        </mxCell>
        <mxCell id="aza19dO2QHTu9v1M0MKG-10" value="+" style="text;html=1;align=center;verticalAlign=middle;whiteSpace=wrap;rounded=0;fontStyle=1;textShadow=0;fontColor=light-dark(#000000,#8000FF);fontFamily=Calibri;movable=0;resizable=0;rotatable=0;deletable=0;editable=0;locked=1;connectable=0;fontSize=21;" parent="1" vertex="1">
          <mxGeometry x="80" y="348" width="20" height="20" as="geometry" />
        </mxCell>
        <mxCell id="aza19dO2QHTu9v1M0MKG-11" value="&lt;div&gt;&lt;strong&gt;address of PSP Memory Base Pointer&lt;/strong&gt;&lt;/div&gt;&lt;div&gt;&lt;strong&gt;(&lt;/strong&gt;&lt;code&gt;0x0000_7ff?_????_????&lt;/code&gt;&lt;strong&gt;)&lt;/strong&gt;&lt;/div&gt;" style="text;html=1;align=center;verticalAlign=middle;whiteSpace=wrap;rounded=0;fontStyle=1;textShadow=0;fontColor=light-dark(#000000,#8000FF);fontFamily=Calibri;movable=0;resizable=0;rotatable=0;deletable=0;editable=0;locked=1;connectable=0;fontSize=14;" parent="1" vertex="1">
          <mxGeometry y="410" width="220" height="30" as="geometry" />
        </mxCell>
        <mxCell id="aza19dO2QHTu9v1M0MKG-12" value="==" style="text;html=1;align=center;verticalAlign=middle;whiteSpace=wrap;rounded=0;fontStyle=1;textShadow=0;fontColor=light-dark(#000000,#8000FF);fontFamily=Calibri;movable=0;resizable=0;rotatable=0;deletable=0;editable=0;locked=1;connectable=0;fontSize=21;" parent="1" vertex="1">
          <mxGeometry x="100" y="393" width="20" height="20" as="geometry" />
        </mxCell>
        <mxCell id="aza19dO2QHTu9v1M0MKG-13" value="" style="endArrow=none;html=1;rounded=0;strokeWidth=6;strokeColor=light-dark(#000000,#FF00FF);movable=0;resizable=0;rotatable=0;deletable=0;editable=0;locked=1;connectable=0;" parent="1" edge="1">
          <mxGeometry width="50" height="50" relative="1" as="geometry">
            <mxPoint x="213" y="67" as="sourcePoint" />
            <mxPoint x="240" y="67" as="targetPoint" />
          </mxGeometry>
        </mxCell>
        <mxCell id="aza19dO2QHTu9v1M0MKG-14" value="" style="endArrow=none;html=1;rounded=0;strokeWidth=6;strokeColor=light-dark(#000000,#FF00FF);movable=0;resizable=0;rotatable=0;deletable=0;editable=0;locked=1;connectable=0;" parent="1" edge="1">
          <mxGeometry width="50" height="50" relative="1" as="geometry">
            <mxPoint x="463" y="457" as="sourcePoint" />
            <mxPoint x="490" y="457" as="targetPoint" />
          </mxGeometry>
        </mxCell>
        <mxCell id="aza19dO2QHTu9v1M0MKG-15" value="value at&amp;nbsp;&lt;strong&gt;PSP User Memory Address&lt;/strong&gt;" style="text;html=1;align=center;verticalAlign=middle;whiteSpace=wrap;rounded=0;fontStyle=1;textShadow=0;fontColor=light-dark(#000000,#FF00FF);fontFamily=Calibri;movable=0;resizable=0;rotatable=0;deletable=0;editable=0;locked=1;connectable=0;fontSize=14;" parent="1" vertex="1">
          <mxGeometry x="240" y="40" width="210" height="30" as="geometry" />
        </mxCell>
        <mxCell id="aza19dO2QHTu9v1M0MKG-16" value="value" style="text;html=1;align=center;verticalAlign=middle;whiteSpace=wrap;rounded=0;fontStyle=1;textShadow=0;fontColor=light-dark(#000000,#FF00FF);fontFamily=Calibri;movable=0;resizable=0;rotatable=0;deletable=0;editable=0;locked=1;connectable=0;fontSize=14;" parent="1" vertex="1">
          <mxGeometry x="490" y="430" width="40" height="30" as="geometry" />
        </mxCell>
        <mxCell id="aza19dO2QHTu9v1M0MKG-17" value="" style="verticalLabelPosition=bottom;verticalAlign=top;html=1;shape=mxgraph.basic.star;fillColor=light-dark(#000000,#FF00FF);movable=0;resizable=0;rotatable=0;deletable=0;editable=0;locked=1;connectable=0;strokeColor=none;" parent="1" vertex="1">
          <mxGeometry x="450" y="47" width="16" height="16" as="geometry" />
        </mxCell>
        <mxCell id="aza19dO2QHTu9v1M0MKG-18" value="" style="verticalLabelPosition=bottom;verticalAlign=top;html=1;shape=mxgraph.basic.star;fillColor=light-dark(#000000,#FF00FF);strokeColor=none;movable=0;resizable=0;rotatable=0;deletable=0;editable=0;locked=1;connectable=0;" parent="1" vertex="1">
          <mxGeometry x="530" y="437" width="16" height="16" as="geometry" />
        </mxCell>
        <mxCell id="aza19dO2QHTu9v1M0MKG-19" value="" style="endArrow=none;html=1;rounded=0;strokeWidth=6;strokeColor=light-dark(#000000,#FF0080);movable=0;resizable=0;rotatable=0;deletable=0;editable=0;locked=1;connectable=0;" parent="1" edge="1">
          <mxGeometry width="50" height="50" relative="1" as="geometry">
            <mxPoint x="358" y="248" as="sourcePoint" />
            <mxPoint x="438" y="248" as="targetPoint" />
          </mxGeometry>
        </mxCell>
        <mxCell id="aza19dO2QHTu9v1M0MKG-21" value="" style="endArrow=none;html=1;rounded=0;strokeWidth=6;strokeColor=light-dark(#000000,#FF0080);movable=0;resizable=0;rotatable=0;deletable=0;editable=0;locked=1;connectable=0;" parent="1" edge="1">
          <mxGeometry width="50" height="50" relative="1" as="geometry">
            <mxPoint x="258" y="438" as="sourcePoint" />
            <mxPoint x="348" y="438" as="targetPoint" />
          </mxGeometry>
        </mxCell>
        <mxCell id="aza19dO2QHTu9v1M0MKG-22" value="&lt;div&gt;&lt;strong&gt;PSP Memory Base Address&lt;/strong&gt;&lt;/div&gt;&lt;div&gt;&lt;strong&gt;(&lt;/strong&gt;&lt;code&gt;0x0000_01??_????_???? or&lt;/code&gt;&lt;/div&gt;&lt;div&gt;&lt;code&gt;0x0000_02??_????_????&lt;/code&gt;&lt;strong&gt;)&lt;/strong&gt;&lt;/div&gt;" style="text;html=1;align=center;verticalAlign=middle;whiteSpace=wrap;rounded=0;fontStyle=1;textShadow=0;fontColor=light-dark(#000000,#FF0080);fontFamily=Calibri;movable=0;resizable=0;rotatable=0;deletable=0;editable=0;locked=1;connectable=0;fontSize=14;" parent="1" vertex="1">
          <mxGeometry x="343" y="264" width="192" height="30" as="geometry" />
        </mxCell>
        <mxCell id="aza19dO2QHTu9v1M0MKG-23" value="" style="endArrow=none;html=1;rounded=0;strokeWidth=6;strokeColor=light-dark(#000000,#FF0080);movable=0;resizable=0;rotatable=0;deletable=0;editable=0;locked=1;connectable=0;" parent="1" edge="1">
          <mxGeometry width="50" height="50" relative="1" as="geometry">
            <mxPoint x="338" y="437" as="sourcePoint" />
            <mxPoint x="338" y="270" as="targetPoint" />
          </mxGeometry>
        </mxCell>
        <mxCell id="aza19dO2QHTu9v1M0MKG-24" value="" style="endArrow=none;html=1;rounded=0;strokeWidth=6;strokeColor=light-dark(#000000,#008000);movable=0;resizable=0;rotatable=0;deletable=0;editable=0;locked=1;connectable=0;" parent="1" edge="1">
          <mxGeometry width="50" height="50" relative="1" as="geometry">
            <mxPoint x="146" y="202" as="sourcePoint" />
            <mxPoint x="210" y="202" as="targetPoint" />
          </mxGeometry>
        </mxCell>
        <mxCell id="aza19dO2QHTu9v1M0MKG-25" value="" style="endArrow=none;html=1;rounded=0;strokeWidth=6;strokeColor=light-dark(#000000,#008000);movable=0;resizable=0;rotatable=0;deletable=0;editable=0;locked=1;connectable=0;" parent="1" edge="1">
          <mxGeometry width="50" height="50" relative="1" as="geometry">
            <mxPoint x="354" y="438" as="sourcePoint" />
            <mxPoint x="418" y="438" as="targetPoint" />
          </mxGeometry>
        </mxCell>
        <mxCell id="aza19dO2QHTu9v1M0MKG-26" value="&lt;div&gt;&lt;strong&gt;PSP User Memory Address&lt;/strong&gt;&lt;/div&gt;&lt;div&gt;&lt;strong&gt;(&lt;/strong&gt;&lt;code&gt;&amp;gt;&amp;nbsp;&lt;/code&gt;&lt;code&gt;0x0880_0000&lt;/code&gt;&lt;strong&gt;)&lt;/strong&gt;&lt;/div&gt;" style="text;html=1;align=center;verticalAlign=middle;whiteSpace=wrap;rounded=0;fontStyle=1;textShadow=0;fontColor=light-dark(#000000,#008000);fontFamily=Calibri;movable=0;resizable=0;rotatable=0;deletable=0;editable=0;locked=1;connectable=0;fontSize=14;" parent="1" vertex="1">
          <mxGeometry x="91" y="166" width="160" height="30" as="geometry" />
        </mxCell>
        <mxCell id="aza19dO2QHTu9v1M0MKG-27" value="&lt;font&gt;}&lt;/font&gt;" style="text;html=1;align=center;verticalAlign=middle;whiteSpace=wrap;rounded=0;fontStyle=1;textShadow=0;fontColor=light-dark(#000000,#008080);fontFamily=Calibri;movable=0;resizable=0;rotatable=0;deletable=0;editable=0;locked=1;connectable=0;fontSize=32;" parent="1" vertex="1">
          <mxGeometry x="221" y="221" width="30" height="30" as="geometry" />
        </mxCell>
        <mxCell id="aza19dO2QHTu9v1M0MKG-28" value="" style="endArrow=none;html=1;rounded=0;strokeWidth=6;strokeColor=light-dark(#000000,#008080);movable=0;resizable=0;rotatable=0;deletable=0;editable=0;locked=1;connectable=0;" parent="1" edge="1">
          <mxGeometry width="50" height="50" relative="1" as="geometry">
            <mxPoint x="245" y="237" as="sourcePoint" />
            <mxPoint x="245" y="260" as="targetPoint" />
          </mxGeometry>
        </mxCell>
        <mxCell id="aza19dO2QHTu9v1M0MKG-29" value="&lt;div&gt;pointer&lt;/div&gt;&lt;div&gt;base&lt;/div&gt;" style="text;html=1;align=center;verticalAlign=middle;whiteSpace=wrap;rounded=0;fontStyle=1;textShadow=0;fontColor=light-dark(#000000,#008080);fontFamily=Calibri;movable=0;resizable=0;rotatable=0;deletable=0;editable=0;locked=1;connectable=0;fontSize=14;" parent="1" vertex="1">
          <mxGeometry x="223" y="260" width="50" height="30" as="geometry" />
        </mxCell>
        <mxCell id="aza19dO2QHTu9v1M0MKG-30" value="&lt;font&gt;}&lt;/font&gt;" style="text;html=1;align=center;verticalAlign=middle;whiteSpace=wrap;rounded=0;fontStyle=1;textShadow=0;fontColor=light-dark(#000000,#C04000);fontFamily=Calibri;movable=0;resizable=0;rotatable=0;deletable=0;editable=0;locked=1;connectable=0;fontSize=32;" parent="1" vertex="1">
          <mxGeometry x="285" y="196" width="30" height="30" as="geometry" />
        </mxCell>
        <mxCell id="aza19dO2QHTu9v1M0MKG-31" value="" style="endArrow=none;html=1;rounded=0;strokeWidth=6;strokeColor=light-dark(#000000,#C04000);movable=0;resizable=0;rotatable=0;deletable=0;editable=0;locked=1;connectable=0;" parent="1" edge="1">
          <mxGeometry width="50" height="50" relative="1" as="geometry">
            <mxPoint x="309" y="191" as="sourcePoint" />
            <mxPoint x="309" y="214" as="targetPoint" />
          </mxGeometry>
        </mxCell>
        <mxCell id="aza19dO2QHTu9v1M0MKG-32" value="offset1" style="text;html=1;align=center;verticalAlign=middle;whiteSpace=wrap;rounded=0;fontStyle=1;textShadow=0;fontColor=light-dark(#000000,#C04000);fontFamily=Calibri;movable=0;resizable=0;rotatable=0;deletable=0;editable=0;locked=1;connectable=0;fontSize=14;" parent="1" vertex="1">
          <mxGeometry x="285" y="166" width="50" height="30" as="geometry" />
        </mxCell>
        <mxCell id="aza19dO2QHTu9v1M0MKG-33" value="" style="endArrow=none;html=1;rounded=0;strokeWidth=6;strokeColor=light-dark(#000000,#008000);movable=0;resizable=0;rotatable=0;deletable=0;editable=0;locked=1;connectable=0;" parent="1" edge="1">
          <mxGeometry width="50" height="50" relative="1" as="geometry">
            <mxPoint x="237" y="184" as="sourcePoint" />
            <mxPoint x="390" y="437" as="targetPoint" />
          </mxGeometry>
        </mxCell>
        <mxCell id="aza19dO2QHTu9v1M0MKG-34" value="" style="endArrow=none;html=1;rounded=0;strokeWidth=6;strokeColor=light-dark(#000000,#804000);movable=0;resizable=0;rotatable=0;deletable=0;editable=0;locked=1;connectable=0;" parent="1" edge="1">
          <mxGeometry width="50" height="50" relative="1" as="geometry">
            <mxPoint x="484" y="226" as="sourcePoint" />
            <mxPoint x="560" y="226" as="targetPoint" />
          </mxGeometry>
        </mxCell>
        <mxCell id="aza19dO2QHTu9v1M0MKG-35" value="" style="endArrow=none;html=1;rounded=0;strokeWidth=6;strokeColor=light-dark(#000000,#804000);movable=0;resizable=0;rotatable=0;deletable=0;editable=0;locked=1;connectable=0;" parent="1" edge="1">
          <mxGeometry width="50" height="50" relative="1" as="geometry">
            <mxPoint x="484" y="202.99999999999997" as="sourcePoint" />
            <mxPoint x="560" y="202.99999999999997" as="targetPoint" />
          </mxGeometry>
        </mxCell>
        <mxCell id="aza19dO2QHTu9v1M0MKG-37" value="&lt;font&gt;}&lt;/font&gt;" style="text;html=1;align=center;verticalAlign=middle;whiteSpace=wrap;rounded=0;fontStyle=1;textShadow=0;fontColor=light-dark(#000000,#804000);fontFamily=Calibri;movable=0;resizable=0;rotatable=0;deletable=0;editable=0;locked=1;connectable=0;fontSize=32;" parent="1" vertex="1">
          <mxGeometry x="416" y="430" width="30" height="30" as="geometry" />
        </mxCell>
        <mxCell id="aza19dO2QHTu9v1M0MKG-38" value="" style="endArrow=none;html=1;rounded=0;strokeWidth=6;strokeColor=light-dark(#000000,#804000);movable=0;resizable=0;rotatable=0;deletable=0;editable=0;locked=1;connectable=0;" parent="1" edge="1">
          <mxGeometry width="50" height="50" relative="1" as="geometry">
            <mxPoint x="547" y="339" as="sourcePoint" />
            <mxPoint x="547" y="226" as="targetPoint" />
          </mxGeometry>
        </mxCell>
        <mxCell id="aza19dO2QHTu9v1M0MKG-39" value="" style="endArrow=none;html=1;rounded=0;strokeWidth=6;strokeColor=light-dark(#000000,#804000);movable=0;resizable=0;rotatable=0;deletable=0;editable=0;locked=1;connectable=0;" parent="1" edge="1">
          <mxGeometry width="50" height="50" relative="1" as="geometry">
            <mxPoint x="438" y="447" as="sourcePoint" />
            <mxPoint x="548" y="337" as="targetPoint" />
          </mxGeometry>
        </mxCell>
        <mxCell id="aza19dO2QHTu9v1M0MKG-40" value="&lt;font&gt;}&lt;/font&gt;" style="text;html=1;align=center;verticalAlign=middle;whiteSpace=wrap;rounded=0;fontStyle=1;textShadow=0;fontColor=light-dark(#000000,#804000);fontFamily=Calibri;movable=0;resizable=0;rotatable=0;deletable=0;editable=0;locked=1;connectable=0;fontSize=32;" parent="1" vertex="1">
          <mxGeometry x="99" y="40" width="30" height="30" as="geometry" />
        </mxCell>
        <mxCell id="aza19dO2QHTu9v1M0MKG-41" value="" style="endArrow=none;html=1;rounded=0;strokeWidth=6;strokeColor=light-dark(#000000,#804000);movable=0;resizable=0;rotatable=0;deletable=0;editable=0;locked=1;connectable=0;" parent="1" edge="1">
          <mxGeometry width="50" height="50" relative="1" as="geometry">
            <mxPoint x="120" y="57" as="sourcePoint" />
            <mxPoint x="530" y="203" as="targetPoint" />
          </mxGeometry>
        </mxCell>
        <mxCell id="aza19dO2QHTu9v1M0MKG-42" value="resolved address" style="text;html=1;align=center;verticalAlign=middle;whiteSpace=wrap;rounded=0;fontStyle=1;textShadow=0;fontColor=light-dark(#000000,#804000);fontFamily=Calibri;movable=0;resizable=0;rotatable=0;deletable=0;editable=0;locked=1;connectable=0;fontSize=14;" parent="1" vertex="1">
          <mxGeometry x="401" y="130" width="100" height="30" as="geometry" />
        </mxCell>
        <mxCell id="aza19dO2QHTu9v1M0MKG-44" value="static address format" style="text;html=1;align=center;verticalAlign=middle;whiteSpace=wrap;rounded=0;fontStyle=1;textShadow=0;fontColor=light-dark(#000000,#000000);fontFamily=Calibri;movable=0;resizable=0;rotatable=0;deletable=0;editable=0;locked=1;connectable=0;fontSize=14;" parent="1" vertex="1">
          <mxGeometry x="100" y="492" width="127" height="30" as="geometry" />
        </mxCell>
        <mxCell id="aza19dO2QHTu9v1M0MKG-45" value="pointer format" style="text;html=1;align=center;verticalAlign=middle;whiteSpace=wrap;rounded=0;fontStyle=1;textShadow=0;fontColor=light-dark(#000000,#000000);fontFamily=Calibri;movable=0;resizable=0;rotatable=0;deletable=0;editable=0;locked=1;connectable=0;fontSize=14;" parent="1" vertex="1">
          <mxGeometry x="371" y="313" width="137" height="30" as="geometry" />
        </mxCell>
        <mxCell id="aza19dO2QHTu9v1M0MKG-46" value="^" style="text;html=1;align=center;verticalAlign=middle;whiteSpace=wrap;rounded=0;fontStyle=1;textShadow=0;fontColor=light-dark(#000000,#000000);fontFamily=Calibri;movable=0;resizable=0;rotatable=0;deletable=0;editable=0;locked=1;connectable=0;fontSize=21;" parent="1" vertex="1">
          <mxGeometry x="371" y="315" width="30" height="30" as="geometry" />
        </mxCell>
        <mxCell id="aza19dO2QHTu9v1M0MKG-47" value="&amp;gt;" style="text;html=1;align=center;verticalAlign=middle;whiteSpace=wrap;rounded=0;fontStyle=1;textShadow=0;fontColor=light-dark(#000000,#000000);fontFamily=Calibri;movable=0;resizable=0;rotatable=0;deletable=0;editable=0;locked=1;connectable=0;fontSize=21;" parent="1" vertex="1">
          <mxGeometry x="220" y="491" width="30" height="30" as="geometry" />
        </mxCell>
      </root>
    </mxGraphModel>
  </diagram>
  <diagram id="-z_xJW-Fb17gaAVHYBr3" name="pointer_script">
    <mxGraphModel dx="2066" dy="1103" grid="0" gridSize="10" guides="1" tooltips="1" connect="1" arrows="1" fold="1" page="1" pageScale="1" pageWidth="880" pageHeight="736" background="light-dark(#FFFFFF,#FFFFFF)" math="0" shadow="0">
      <root>
        <mxCell id="0" />
        <mxCell id="1" parent="0" />
        <mxCell id="iF3ngfGkhjskTfrCsv2Q-5" value="" style="shape=image;verticalLabelPosition=bottom;labelBackgroundColor=default;verticalAlign=top;aspect=fixed;imageAspect=0;image=data:image/png,iVBORw0KGgoAAAANSUhEUgAAA3AAAALgCAIAAABamQJ3AAAAAXNSR0IArs4c6QAAAARnQU1BAACxjwv8YQUAAAAJcEhZcwAADsMAAA7DAcdvqGQAALFpSURBVHhe7f1vjDVHutiHHd7LK11Ziv5CuJIjKRFkwZGvAsdSOLAOgdi5chA4sSMJTgT/SziKrs8LJAG8ThxLHwJrIQUciEC8hwbh/RjhDQJe7GDzJcBZkB906f30ZgkOA+Lu8kMT4gYBsQuuSDALvFiBuMDkeaqe+tPdVTXVM2dmznnP74dabnd1PdXV1X26f2/1OVOrP/EPPiaRSCQSiUQikW6dVChXf5dEIpFIJBKJRLpNQihJJBKJRCKRSHdKCCWJRCKRSCQS6U4JoSSRSCQSiUQi3SkhlCQSiUQikUikOyWEkkQikUgkEol0p3RbofyN/2z1r/x7q//Nb0/zSSQSiUQikUgnlpYI5f/4P//D/62/sPpvr2X59/3hP/7SX/w3Vn/xfybLv/J7/7lf/pXfu/o/fpRKkkgkEolEIpFOJi0Rypd+afUX/40/9i//a7/n9//Bl3/9X3/pf/l/+cP/ym+sfvn3/NI//y++9Op/sDq/nJYnkUgkEolEIp1A6hPK3/eHV//p/3v1b/6Dl/+t/+Slf/f1l/6Hf/sP/vX/5M/+Rxd/6D/8+y/91d986X/6v/8Tf/sfTkNIJBKJRCKRSCFdN5kUvtf0/o//f/+r3/r/TjIlSaZsmmR2pg6h/LW/8NKf/vVf/XN/6eU/9Rde+o3f/IN/6s+t/if/Z9sklvlnXvnz//q//d/5q3+j/cp78zvX17/z2STz7umeqs3SZ7vrf7bd9mQuSqGG7T8d+qvSwoHP/+naH/6Y4R//EymZd4ss+0xLv/XzrMf+yfZzC/QVWgHj5xsr5pO0ORLbfPeuIJFIJBLpJJI8Pic5MTU23UcScfz6n/1i4pTFzP7UNUL50i//yq/8u3//pX/nP3/5V//AZFNXEhP6/Oe7z280j4V20lvtXVKxSXe3qHkNN9U5Vs/N7+S2N46ddMvIINUvd78Vil2HZbe6lWXNDDX7HL+sKe1l/Y//WRDQu3cFiUQikUgnkQ5HKCVN9PGONimpSyhX/8H/7aXf+M2X/6P/avW//e3V3/1RSLNilST+Mfzjf+L/O9k0TsvspLvau6Rik+5uUfMa2nXqUGKSv2kaxU67JXdELemXKxWKfcahymnK9xKX280mkUgkEolk6aCEUlKUyLvbpKSbhPIb/69f+dN/8Vf/7H9PhPKlv/Vf/tJ//6//6p/7y5J+z7/4V/74n/2XXvp9f2havpDEXZxz6MhZlJW5nch/A35EzQ2heUouVaw2vcN1IZPVvE7vVW7Xv2WZUkY8zC3G18SjAqNM3/hphVmabwo5wz/+p6GG0rHPrU4DZ/WnlLWn0C3aCXb4cbSyWqG2pCLo+V7icspM7991F9lOJcUjmvaJhu9+R/r851aSRCKRSKQXNMnDb5ITU2PTvSavkne3SUk3CeWv/9t/7K/8tT/ybz556W+9+dLffuvX/sZ//Gt/7T/+b/7Nv/On/9L/4Jd/z6+u/sSvT8vP08hs5kaSL08ycwuM+SEVqx2/3p2u5vX/1s+dNulezHWkcHQpXY7GEwqkZsR65hW6ZQss7MsfkdPWVlUFoQw5QXlDYU1ZbKlb4mjl6H33ZBcpqQsKSQctpb1oGyw82/WkWNb5Yb+jY4x9Mu43EolEIpH2nNxzs8qk8P2lxr4eshl5ekCh9Ok/+53f9+/8nd/7v96u/r3/63TTTSnajF8OkpGLSFzOMtXe0hBaMqGQytVqVCYopdWEhhSbkS/nmTMxKlRoJQubJCc53Lz+0Y6mSWvLBxQnhdNqtVt015l5TyucJdf+cZ/LXiIxNmuJM3KHz5FNQcr9gbs6E9P+J5FIJBLpRU7y6JvkxNTYdH/J26T8Ny5MCixKfUL50i+/9K/+zdXf+i//0J/7lxd9e3JsIZ4gGckk4nKWOTaemVDWqtWkIpXJUFotWFSxGflynqlDdzOhnFQY0nyT5NxaKKdba6uyMMG3wankb+UNiMdSTclHLRVbGDLT8SZt9Xbr/6uFb+h/EolEIpFe5CRP5UlOTI1N95QmEnl3p+wQyv/0w3/uz//l3/s/+s0/9Ff++kt/8x/86p/8c6s//xtp69/5oejmr/7xP7P6W/+PlBnT9O1t9JhMaHRkK/pQ1At1IyswF5FqtZaSxIxWtc48f7bH+XIWkppR2jpN802a4xuprpZqmCzMj06TC4mdkBXOV+vd4sLH7dFuzzrN/6b7t/5pqFZj6301y4y71l4KxWR59DN8KdxTJ4lEIpFIL2A6HKEs6uMdnbJvhPI//L/7hd//L/yll/7m33/pX/2bv/ynf/2X/uifWv2BP776tX9h9et/9aV/6/+w+pP/3VQ+pM3kjyB6s/HjXk5olN/5ebQKKe9ywotatzb+vqAVK1cb6/TuNVmVlOqcv3ItLuuC+9WIEvQrKzmt0BeobArtmf0oR8unY49yNknpcMpa1uptbUxoc0x5C22PUlVgcjj5URcyVUCV8R9y0oPK62n1P4lEIpFIL3Kyx1+FSeF7TY/0h81j+uv/xepf+o1ffu2/+L1/5Nd+9c/8hZf+xv/ppb/2d1/+b/zRX/qVX1395n/1J/+1//nqf/f9aQjptJMIZT5yTCKRSCQS6YVMS4Ty7/7opV/+lV/9I7+my3/nh7/8v/jmH/7Nb/n8X/4j/3zXL75JJ5W2+bc2SSQSiUQivbBpkVCO0i/9gT+6+v1/bJJJIrnk34DzOptEIpFIpJNItxdKEolEIpFIJBJJEkJJIpFIJBKJRLpTQihJJBKJRCKRSHdKCCWJRCKRSCQS6U4JoSSRSCQSiUQi3SkhlCQSiUQikUikOyWEkkQikUgkEol0p4RQkkgkEolEIpHulEwo/TySAAAAAABLQSgBAAAA4E4glAAAAABwJxBKAAAAALgTCCUAAAAA3Im2UO42q8Rf+dZwPXzrr7j/d5v8wu2ZViHrm122i3thdEiOPe1sDx0CAAAAcIzcKJQ1SdqHP3mDDIzX7pu9+9899xUAAADAofKoQqmDkdEhpcIH9Mn9S9499xUAAADAobJUKGNOtkm90LPUCDOjlPrSUrnmVGRSZululUb73aadZUpW3B4CRgVGmW5RlgxrdcBXP90dAAAAwHFzo1AmnP5EbZov6GJY6kXkKtYS9Kpecywkq4LbFmtYSH0vmhM8MVt0y2H3MVftMBa1goGYk2/Klpd3FwAAAMABcucRyjTe5lg66GY+mGthveZQSk1sNw9cRKP9+VEXl/NMXXEHnWXKojErX9gdAAAAwHGzF6G8ixY5IzQ79DRqdoUHP7Iny5udz7Cti2jsJT/q4nKeGePnFcbGZeULuwMAAAA4bu4slLowLbQIVaxRDa2a1dGyl92bza3fGjf2EjfVlrOQJIhhayylm2J5Kz6KBQAAAHghuLtQBiX03GL0LYmXp1lzXngauIjGXvKjLi7rgqhsihhtDdVpEYuVbUo6hMAtugsAAADgwGgLJRTJLRMAAADg1EEobwFCCQAAAJBAKG8BQgkAAACQQCgBAAAA4E6YUP4cAAAAAOBWmFB+BQAAAABwK0woL7/7/ySRSCQSiUQikW6RklDaO3AAAAAAgG6mQmmjlnfjm9/8pi3V8bsHAACAh+e9996zJYAZ5mrdSAhCCQAAcHIglNDAXK0bCUEoAQAATg6EEhqYq3UjIYculMN2vd7yB8QBAAD2CUIJDczVupGQZUJ5dXV5eXF+drY6u7iyrBK3EUoxx9Vq4o67jeQZm51l6iQ1jruLpta0ThUDAACcCAglNDBX60ZCbjVCeXm+d6EsjESKTlqOyubE+/Y1cilOiVECAMCpgVBCA3O1biTkcIVSchqqNymvyhlGMf0IZtq624aBzvVmO62xvRcAAIAXEoQSGpirjfnt3/5tW5ohIQc8Qil5G2W72w2zsch5+ZEaptFNYYjh8/FIhBIAAE4QhBIamKtliE16bH2MhByEUIo5rlfr3cwaA4P44VwEe4XS1W5DlLNX51pyH1/HBAAAOCIQSmhgrhYwlwxYboaEHO4IZS6R6oQzfewTyt1GdDG46qiMY54DAADwwoNQQgNzNYdZpPNIW5o5pYQcslDqgKKNLG7G2ypC6XOGXfaDcc3d+Ffekr8p/bgHoQQAgFMDoYQG5mqOiUFOVj0SskwoL8/N8IyzC9swZk/foVRmwud/cpMTtuuLcZchEVstZX7pfq/jsre5anrm36oEAAB44UEooYG5mmOuj3sQyk5uIZTe++ZOea8jiCqnDFACAMDpgVBCA3O1biTkYIQSAAAAHgqEEhqYq3UjIQglAADAyYFQQgNztW4kBKEEAAA4ORBKaGCu1o2EIJQAAAAnB0IJDczVupEQhBIAAODkQCihgblaNxKCUAIAAJwcCCU0MFfrRkIQSgAAgJMDoYQG5mrdSAhCCQAAcHIglNDAXK0bCVkqlJfnZ37embPz+uyLtxDK3eZ6tbK03lrmvhi216uNLU/Y3MPuAjoDuZ89cr3ZzmYj7yJO85O4XXMnEwytN2F683thNO2RHMNtDh0AAO4RhBIamKt1IyHLhPLi7Oz80nnk1ZVbdrkzFgvlTj3y/masUVutCOX9sdtk1jYM4pY3WlVxVqCRj7kVW15IPufQoBOl35dHq7yOj4P5LQEADg2EEhqYq3UjIUtHKBNilHsRyu06jU36JO5hmRvnglm+jjW6fCuwvs4tbZsVluQ3bbIcTcEsraosJxLrWUsDXCXt/RZomF+cc9yNXFo1Ut7yjCR/JpQSFSt0443rjatns/P1OV301fhYPygZZXQilGlltw3t0dnOLVPREdawYZ0Op9j+DGlCrNsIxwAAAAcCQgkNzNW6kZDbCqUOUFbfee9lhHI0rJgV8IrpzUc9b33tTUVVLyz78kmZ8qrGzDepgG6sHr+v9n7LqP6Vt283m7RB5GyTvLM2Qhn0LTNUzdU9iPSpQA66Qx+ci2PejFSPkrduGMJyPpToJNCGWPMRzUb7HcXhSBefwgAA4JFBKKGBuVo3EnIroby6OK+OTir3LpTz/OF6HYYkPeKFcXVujZHppllLpB7vR7X2lEkm5wcKHVLRWOscSb+ar7y1RssSXK4uBH+TDB8cF5SxUKZ8HWUMW9JA5Go9GlyUMjE/vL2XWiwvkkUIWiAzzoDmjsoBAMBjglBCA3O1biRksVB6maz+HsdxCEKZ8whCOdI3Jajd2AvHNIVyjMvVhdsJZVp1Y4fhu56TMsYw6DioNbvVfkWqQCgBAA4ehBIamKt1IyGLhNLJZHjRva/vUCptoRxER24SSlUWzY8qI6vRfPQNtd/kqsqNaO6arVfe/UKpDUiiJsRfeYuRyQaXNyWqoxs0NC0TQ8uF0pTP5ep6SSh9+WGno4llodR32C5OS2/8K28pr3sNZXRDFE1pdNjQaL8jNGiE09Z0EAAA8MgglNDAXK0bCVkilKKQ9pbT2ItQqsDlKftu4ib8AmbnfxMTFySJ27lRyTwk/1HOOpNLwaoa5+e7Troj0hnqWcseXf7oFzzZfptk75L1JzNpB+JkITuztnxDyBXf8xkZomuqg/miyJovqSoXa5FK9BuWTuVCRCQXTcvZbHMFFf/0v/rx21Ir6+33SB1To1RtxScBAA4IhBIamKt1IyGLRih7WTxCCS8SszHKWQYAADwyCCU0MFfrRkIQStg/owFJhicBAA4PhBIamKt1IyEIJQAAwMmBUEIDc7VuJAShBAAAODkQSmhgrtaNhCCUAAAAJwdCCQ3M1bqREIQSAADg5EAooYG5WjcSglACAACcHAglNDBX60ZCEEoAAICTA6GEBuZq3UgIQgkAAHByIJTQwFytGwlZKpRXlxfnfr6cNAnjjIMSytEkN/fAfdf/gNisO7a2P4ZnT9dPv7H61hvrZz+1rBrD09W3pGRIT5/uvghbvvho5+qZVFLLv77+6W73hq9nvfvI8gAAwIFQQgNztW4kZJlQXl2cnV3YfIuXulxWygMcoZzP2b1f7rv+h2K32btQDk+T6g1PbYbyOsOzN2KZQfzy6bu24slry5nlaz0hJ68TAAAEhBIamKt1IyFLRygTL4BQpjm7NzZntyefE1ySn+Zl2IYpvGcThQtLhDKfC3u7SdPIpLm/Jc9NVeiHDP2U2pudD1vHCbzn+Y5dqmbjq9GqfZG0JU2FOJpB/AahjBN/57Tnwdnt3tiGUcbrL961wUJZcGOH6nk2KmnFJkI5HVxcJJSxnmcdg6MAAKcEQgkNzNW6kZBbCOXVhXvnfXZuQ5VzjkIoN6KGwQt16+raO9Z2fb1aB1/caf58HmopM/GufqEUZdtEexWZCz42nq5QxU7X1OB0SWRT3XHw4fV8FzyEevJJtF2E7VkKh53lzXFque8RyqlQxhFHdUrnfHHBIfLn31PnlpnoFsrr6482T9/QV+FPn25274bqAQBAQSihgblaNxJy2xHKq6uL82MeoXSmmIui+KUTNR2GTGLn8v3qsLtei2vGQcpbCqU4W8nYRPfG3qrlZL+S78sHN7SCtXy3FEYcV+v1SCjjcqg9W/DEaivIdqs6Y1TDjKpQCl985MYpR9Y4ej39hUrhyCn7hfKLdzNJfToVUwCA0wahhAbmat1IyG2FUnBfqLTlMS+SUBouPwrZHUYoJwYXGOmecluhlPX1Ng45ZrXmy6kVC4XyFux27r22R4Qye4WtX5H81hvrp2KQyQVHQjlb7RfKkcjWogAAThWEEhqYq3UjIcuEUhTy/NKPSl5dnq9WlbfeR//KO/uKpLmjE1CvXv7LlLcVSimZhvQG95LZe56qXNxr/sp7kVBq/sa/8h7clyl95bpaFEpdut9X3jpSGGROJC8bNXwj/Ij7o032G+3pCKX/nmWkWyhdPVmdCCUAQAZCCQ3M1bqRkIUjlO5Nt3/RGdVyzkEJpYrjOJlKDdmPctbVH+XE39946dSc7fXGv/t2Blmtv8ronXQcTczzNVtzxBYdYoJuUSxQvNDnKbN8yYgF9Cc5uqzqGDPVKUOt5pROI32G/ijHbdD8/TE8sz8GlFujz1FZDH8qSLdO/mxQFrLbjfLjr79r+dfXP93yZ4MAACoglNDAXK0bCVkolH0c4AglAAAARBBKaGCu1o2EIJQAAAAnB0IJDczVupEQhBIAAODkQCihgblaNxKCUAIAAJwcCCU0MFfrRkIQSgAAgJMDoYQG5mrdSAhCCffIlyeGHTYAwMGDUEIDc7VuJAShhHvEPOtksMMGADh4EEpoYK7WjYQglHCPmGedDHbYAAAHD0IJDczVupEQhBLuEfOsk8EOGwDg4EEooYG5WjcScjuh1GkXa/MuCgcllMM2zGHTNzXiUu67/jJh6pt85hub50YZzY4jK36Dnxon5o/m1fGkaRj3g3nWlz/5ztvPVt98z6dX3vmJZX/56Wuj1T7e/9DV8+F3bOG91963LWFTzLlb/ba+ADvswGg6ze89+fGv/MqPn3zv6zdflYXP3rQNX736sub79PKrn9+ULyfwqydag6TPnjz57NU3LbuSv6T+733+sst8+dWvhmvfTkmxqTfhwmN7Kserl1zWKwDwWCCU0MBcrRsJuYVQXl2cnV1cXpwdiVB6+ufavh33Xf8ceS6rTXpEGP1KmqTbM2zWNhW2bFnHCPdQ94spVtD8VOvdMc9SRbuNn1UJFX7n7fdWb338geUqmvP2p7Zya27bYDtsT96xwvDmZy+/rF7lTOvz71m287Anz21ZpVBkzlHOFz+LUvj1996M4ljLX1b/956M9XH4/NUnX9tyD9/7PO63erzTjgGARwGhhAbmat1IyGKhvDx3JilWefxCmeby3lTn8pbkDW3YXq9DTpzgO7JAKNPc2TrdtqvHDSCuNy5fxxn1/53Y+QFE//R1hcIE3G5TeirHR7TlDlpWF1QwXQm3tBW9DMWKQmlbJgeX8O2Z0Cj/5Zc/ef0tHTLMkonaB++EMcvM/yzz7Y8t6q0PX//ENn35yaevhapeeUuKaT2uvCy4vahZ6oIfktxL/Y6fvB6GV195++PvSPlPPn7FrQaXjcf4zA7bIV2V9av0nQqWepUIlhsCDORi57zQ3KucLwufvfm9ueTV8pfVL418ov+nY426YIIoW3WU8ckTOQQdd3w1BV4PUsbGNT//3lQoS8crmxikBHh8EEpoYK7WjYQsE0odnPQeefxCuRE1DF6oW1fX/um/XV+v1sEXd5o/0gKHlIk+5ukXyu3GhgwVkcuNq0hNTZ+xw1ZUUN87i/9F90sNUCu06InbWb57VLv/rrVoFuxDrQJfLGwYic9k9W44IWsN+M0HFDXnm89efz9IoUlb9vJazE/tzVXoa37fG96z192m9Ab87vW7fKnBi6OLjfuV3TmV1Pptv3bYyrwfReCcV6lpZUI2Ervhq1crI4gpf3j+5FUvdp89efNryxRq+Uvql7aJEep/XxU1/Nr8UlGnFI90sbojG8gUg7RM34D0ylvrLx6vIJ0TL2QAeBwQSmhgrtaNhCwTSvfdycTZxZVtGHMEQulMMX/ei1/q83/QYcj8USf5pmq767W4ZhykvJ1QTjRQcdoRDS94SFTBzAl1a3wOV/Ldkv5npzVuU/lcJVU0byWUEmetzoi7mKMaZvq1RChjTgjMzM8RK9TBwmevvS1bn73y1nuvvP2hrKZBx7vXP215FFa38E4Q2XesmB22oD2V/cuhhYiXG+GzQb4YVMtPfP29J5nAJcb5i+rXIUYJ/+zN76livpnegGdDm1Iq5E9ekXsf7UB7p3qVAcBDgFBCA3O1biRkmVAmjn2EslsoDZcfH4F3GKFUr7PFnGh4dxXKQeI3rg6tUgjlYxEN3FaFUqMKx39LvIXNtCxxV+HzI4hucFHLpJFF496E0tXjbNJef7s67bAF6ccFQjkZwPPU8nN6YhfVP0jm50/0VbUY5GevxpFIhBLgRQOhhAbmat1IyKkKZfuVd/YVSXNHJ6BByFQubyuUKnbr7exZ6jxOF0pC6Q1v2OnwYLS9WEDJRNNppNsimeH7l34tFHEbikKpY5up1ruj5iVMtSzRKXz+a4uvuffUX37yqfvOoq/QhFIlz77aONrRfupPr7zTdyvNX2WTW/Cvy+2wleZI74hFwieZr34VRxnTK+lavrCo/uuvRCL9VyRFFv2XIB1loZRKqq+8G0jn7PGfLQBwGxBKaGCu1o2E3EYo44vvo3jlreI4TvYkG7If5ayrP8qJv7/x0qk52+uNf/ftDLJaf5X8VznqfvrNRr8qBuIW5WGrI1xeB2NxKarfsExbBS0Qov0jWtdMFtNjOxTJ1n2ZWJHHtWaPROFLKQ0E5pvsPXUYZXTON/ntyycf249m3vrQvWL2Uf4HMV7y4k9zPHup3/ll/FHOW+5HOR5zUL9g9dthOzoH4dKf7xn/cqWSr+L4efjzQNmPY2r5S+u/fv4k/ukfJ6luk36B0hVWp3S/2pZkTjn5Uc7L2V8OqhH/kQQAjwdCCQ3M1bqRkNuOUDY5wBFKeBSceZ0QdtgesfbOMcoTg44BOAQQSmhgrtaNhCCUcI+YZ50MdtgBBuIKMDwJcBgglNDAXK0bCUEo4R4xzzoZ7LABAA4ehBIamKt1IyEIJdwj5lkngx02AMDBg1BCA3O1biQEoYR7xDzrZLDDBgA4eBBKaGCu1o2EIJQAAAAnB0IJDczVupEQhBIAAODkQCihgblaNxKCUAIAAJwcCCU0MFfrRkIQSgAAgJMDoYQG5mrdSMhCoby6OLM5VYTq3IsIJQAAwCGDUEIDc7VuJGS5UNan8I4glAAAAIcMQgkNzNW6kRCEEgAA4ORAKKGBuVo3ErJcKO1992olanll2RMQSgAAgEMGoYQG5mrdSMhCocypj1YilAAAAIcMQgkNzNW6kZA7COVXl+dnF7Y4BqEEAAA4ZBBKaGCu1o2ELBPKi7Ozswsblby8OKv9zhuhBAAAOGQQSmhgrtaNhCwdoby6OLdvUZ6dX1S+QolQAgAAHDQIJTQwV+tGQpYKZRcIJQAAwCGDUEIDc7VuJAShBAAAODkQSmhgrtaNhCCUAAAAJwdCCQ3M1bqREIQSAADg5EAooYG5WjcSglACAACcHAglNDBX60ZCEEoAAICTA6GEBuZq3UgIQgkAAHByIJTQwFytGwlBKAEAAE4OhBIamKt1IyEIJQAAwMmBUEIDc7VuJOQ2Qnl1eXHmp8s5K0+Wc1BCOWyvVyuXNpazX+67fs9us1pvB1s5RobtejU9BDmo1XqzszUAAHg4EEpoYK7WjYQsFsqri/Pzi8ur2qyLjgMcodxt7lv47rf+RWwPz9LEJ4tCLE6JUQIAPDwIJTQwV+tGQhYKperkpS3XORah3EqmG1xcb653me3EfJ+8CA3b63XIkfITOeoUSh2mW623243+vy5uMssaUvZ6myxLx/Fc5qioq2iT6rHyfkNG0rVhF0qPduurl8p3fvdNGZ1Vr/QMndaEUvIRSgCAhwehhAbmat1IyEKhvDw/O784t/fd55eVccqjEMqNqGHwQt26uvZis11fr9bBF3eaPzceKbPe2rKnf4RSlEx9znaQhGpkXCp/I/+aC5m6ncS6PCmdby1K2nazSSWk/k12AO7ds1YmJQb3332DUAIAHBQIJTQwV+tGQpYJ5dWFumT45uTVxcURfIfSMxU+Z4q5yYhfqtkMOgyZm4/k+9Vhd70W14yDlLcXypFZmVHNxGpilHMhG0WMSxckTUq7fwVkZGWm+lqlUE3HCKUbel3nY8AJ2XXfGCcAAOwRhBIamKt1IyHLhfLswlbceGXRKF8koTRcflSwu41QjvTJvHCkh8qehdKVsMU53UJ5a+bt98yOGwAAHgKEEhqYq3UjIcuE0iulveq+qvnk8b/yzr4iae7oBNQbkf8y5SG88q4Lpa25oUF70y1F8m9mjkAoAQBODIQSGpirdSMhS4XSe6R703kk36FUcRwnE5sh+1HOuvqjnPj7Gy+dmrO93vh3384gq/VXULPaicG5PhSbSoWLP8oJP8lJqICJh6WV2a920s9vxvXHbNlB2DKt/570riaUsnuEEgDg4UEooYG5WjcSslwoOzjAEcrDoWJWLzpOgSdH7n4LhE8CADwCCCU0MFfrRkIQygcl/aal8Y1GAACAewahhAbmat1ICEIJAABwciCU0MBcrRsJQSgBAABODoQSGpirdSMhCCUAAMDJgVBCA3O1biQEoQQAADg5EEpoYK7WjYQglAAAACcHQgkNzNW6kRCEEgAA4ORAKKGBuVo3EoJQAgAAnBwIJTQwV+tGQpYJ5YWfIydQmXkRoQQAADhoEEpoYK7WjYQsFcrzS1vUWb0RSgAAgGMEoYQG5mrdSMgyoczJ5XICQgkAAHDIIJTQwFytGwm5rVBeNXwSoQQAADhoEEpoYK7WjYTcUiibPolQAgAAHDQIJTQwV+tGQm4nlG2fRCgBAAAOGoQSGpirdSMhtxLKG3wSoQQAADhoEEpoYK7WjYTcRihv8kmEEgAA4KBBKKGBuVo3EnKrEcqbQCgBAAAOGYQSGpirdSMhCCUAAMDJgVBCA3O1biQEoQQAADg5EEpoYK7WjYQglAAAACcHQgkNzNW6kRCEEgAA4ORAKKGBuVo3EoJQwh74EhzWHQAABw9CCQ3M1bqREIQS9oD51Mlj3QEAcPAglNDAXK0bCUEoYQ+YT5081h0AAAcPQgkNzNW6kRCEEvaA+dTJY90BAHDwIJTQwFytGwlZKpRXl+dnK0djtpyDEsphe71aubSxnP1y3/UvZrfxJ2i9HSzn/jGf2i/vf7j65nurb374HVt477X3bUvYlOUcBtYdge163ydh2K7dyd3s0one7MKSO+ehiK74Db4RMV+D04pjvdk93MXyYLijX29tbTnD9vl6/dVq9fP19nct61aU65FT8JAfUYAZCCU0MFfrRkKWCaVOunhxlZYrSnmAI5S7zf0K333Xv5Ti02or3mCLe8Z8au+oOH74nS+//OCdZ2qQb338geb+5PW31CZfeecnrtABYd3hEZ+5h/6WM5tqjbvYbcane9isN35dtqxjhLss/OKoeZp/D219fLRfbHEpu+fJ/3bPb9879Xru5wIB6AWhhAbmat1IyHKhDBIpy2dBLicci1BuJdMNLq431/kITcz3yT+ph+31OuRI+Yms9QulGzZxo0fbjY4SpYe9PPx0k8vL7WDwBV2+yIE+IEUAZNVHxgp1JTAVSh+Q0X6SzYorc0ONqEx98vFrzvMsvf2pUyzJ/zTlv/Xhdz7RPBPEtz/2aij5r7t8JSv/yltSLBNKPyQZhidNKEv1K9X2lPNlF6+EzFfe9ubqmJTX9ExbW9qvdYdDunDUyYXz607deuPydZxR/99dD43zK5tStVFJLHfQsrqQREqX5AKKxYpCaVuq57dJfmCyp6yl8bpdb92easdb7QcXlF3+vhrXWreetmRHEpsjuXr0lr+Q3ebnqT+GX6w3X9vyQlr13KHTAe4OQgkNzNW6kZBlQvnVV5fnZ8Lq7Oz8PI5VzjgKodyIGgYv1K2ra/9M2q6vV+vgizvNzx5WhpSZPKeWjVDqA1SHhAbZzeD+qxZrQ0qKPBQ3tgP30DHdlWx5ZrtFzU8N0+dmihaKj6r7HKH89LU0ZPiT77z9zEYTP/lYLO21920o0Xmhs7Evv/zO287M3CbNt9HHrB4xNtW1IJRvffy6hLzl9M6ZqBar1l9pTzU/R0dAQxu0/nl7avu17lDGvlY7v2pGeqJEvtSlBj2TPqx2fjUiw/Ld+Xb/lX90bIcs2IdaBb5Y2DBq4LS9vbgGhyPzF6hbG12AKnluTVuvS9PjreW7YP8BEfI2ugjbsxQOO8ubo3uVWv3KUqYiuP6FLS+kWU/qLoCHB6GEBuZq3UjIQqG8ushGKKtGeQRC6Uwxf36KX7oHmw5D5rd4yferw+56La4ZBynHz6mlQjl9jOjjcUJ8dOpj0eMk1HIlIpaYVyhb50+qfqEsNCe6S4n4GlrSK289e+2dT72lOdOy/Jj8Fx9VKOOoYf5qOze8SX766qQ5X73+cnvq+V9+8P7Hr8QRxyCRrfaEkjHJfq07BO3B3CAr59edJy0QXEky/EmKC0p2fiv5bkn/s9Mat6m8FXE7UtHcs1Bq9baYM2qlkjfDr4+Ot5bvlrLrP7VxtAerPVvwxGqX8yBCKR/JW/U6wD5AKKGBuVo3ErJMKC/Ps7fco5URL5JQGi4/3vrvPkI5euwplQdzziA+cLAjlMoH73/6+jsfvva2ky3nYU683JDejNsIpdfBsBCEsly/MG+Pp5A/GnG0yrVkoz2l/Vp3CHICcqGsnd9oPHcVykHiN64OrVK/GWHlYxEN3GaCNTZIjZpdMB3MrjzPqJWKlXO78euj463l63ocoB/Vmi+nVkyaE6tdzm7zVap/8qp6Ce16EEp4RBBKaGCu1o2ELBNK9x1Kk8j8BzoTjv6Vd/YVSXNHJ6D+UeW/TDl5Tt1ZKDXPvmk2Rh6Jo3d44fnjnpWaP+x09GtSYdyaE/PcoE+uO3fFCZm9yxY+eMfEy4uaiKN3sg/e/9B5my4XhXIkdp986kYTg8DlYhedr1Z/qz2lfNcAly+SqpV4ofT1h+XpK+/5fq07lLGv1c5vNJ6pSFXPbyygZBeSFLcf1kjmeHw7FHEb4oWbNzC/sATZJGQZDZzxhba5l8w+bnQBurFTXasdbyt/4195+y8d+8p1tdwP7kBCc7Q1+Qd1yXGJ/G3Cj2l2m5+PgvZVj1aU9RLAw4JQQgNztW4kZJlQuhfdR/Zng1Qcx8nu4EP2o5x19Uc58fc3Xjo1Z3u98e++nUFW6y/jn0WJ7AHjnn8e5wa+Gnluxt8exC+NKbG4ZOo3z/yjaVp/voe0g7yefWCCFVPlRzart57537u4ET6XI04ZY8NgoZWXSlT4Qqwm54LZvpw7FuqvtqfeTv0+pWY+e+Wd0ADvu9mPcuKPhFx+Yb/WHY7Z4NP8/IaTJeXcopxB8SSfUTy/fqugBUK0VxJdM3mSRdOUUCRb92ViRZ7x9eCiLKKD0TvpOJqY52u25oTmzI7XKPVDLKA/ydFlbVijH8ZXuVWn+YuPS/byfLX6StLkzwbtqx49jAXVAOwZhBIamKt1IyFLhbKLAxyhhHvFK9YLz2ygdIp1h0e8Q33n6FBbexE9Z1/Htbf+OdYLBF4UEEpoYK7WjYQglLAHzKdeSPJBzfzPEpWw7ggc5QCU+tKL6Dn7Oq491sPwJDwqCCU0MFfrRkIQStgD5lMnj3UHAMDBg1BCA3O1biQEoYQ9YD518lh3AAAcPAglNDBX60ZCEErYA+ZTJ491BwDAwYNQQgNztW4kBKEEAAA4ORBKaGCu1o2EIJQAAAAnB0IJDczVupEQhBIAAODkQCihgblaNxKCUAIAAJwcCCU0MFfrRkIWC+VlNlNOeeLFF0Iod480J5r+kTsl7XwYvt5tn6/Xs2k2/IQdi6bsWMjw/R+svvu5rTwAP/vx2v25x82PLGNfPOhf/LPT0n1e+HuEAPAYIJTQwFytGwlZKJSX56uziysvkleXl5XJF09thDKfVfiOVO1i93wmlMq92sjuu+89qFAqn2/2LpSPMSFJ8bzUrhNmTAGAhwehhAbmat1IyDKhvLrIZ/C+PD+7sMUxhyOUbrxvvU2TCm+yp/x8rmFHaYTJDxyu46Ta0Qz8hoxkBvnUzdluffVS+c7vfiwZ9ySUs2YqzUAVO5sexqdkls+33/2Bz1x/98e7n2mWjmVqmR9vv+0Kf/uHW81/bqvf/Vzd1IWsvvnDXRiJdOkHawv5sWuN7nf9bas/1OP42ecbX9Ll+/2mduouXFQe4pBDz7u42v+V86Wdl077WrrbZWmOj4wV6kpgel5mJ6DvrAMA3BcIJTQwV+tGQm49Qnl1eXG2WmV6mXFQI5TyJFc/sMe1PLrtUT56hqtMjJ7o80e8KoHEujwpnW8tjjxtN5tUQurfqIgY6iBrrUxKDO6/gapaHMoIpRO4737udvncaeIP/bG75R9sf/RcltUvTRDHlfzoh1ZeF34g5qdbtWQcmPSCaL44hGL+bfjGVa756q8u3+F2bS2ZvaaXvp6dnVL/186X62F/2jVbzNEtan6qd3r5lM9LfSTb1TstDgBwjyCU0MBcrRsJWSiUbpDSD7GcnV+c5+OVGQcmlKNHtXnASAeUiRLMhaAhEAVRkNK+mxJZmZl/ROb7NR56hFIZuaAnGqERRbAijrX8sBC2joQye+WtY5zr7z+3EdBxisWcUOatytAjz0zRM+//1vmS0pblJNRyJaJ2PQjF81K4TgLayto2AIB7AKGEBuZq3UjIYqHMOIJX3sLjCKUrYYtzZv4RKYqIciAjlA8tlFbACWVFGYvtjEgH9Qhl+3x5hmHY3tMIJUIJAA8NQgkNzNW6kZDlI5Th/1Unj+FHOfKo3tcr75pAxLLu23amL1Ik/2bmiJl/RIoiojyGULrXx+7N9c8+3377B+vvP/fCp4an25+7ry02xTHP10rCUGJTKFffDl/N/NEP19kr77Bfnz8eoawJpfR16ZX3vNNq50s6OA5L6mUSKos9P+x0dHNSYfG8xLz8OnHwyhsAHhqEEhqYq3UjIQuF0n1xUjhr/NGgAxyh3IkIuHYnNxCKP8rRr9eNUYMQP0groUhUAPUMyxrVH7NlB2HLtP6J7MxFZLf5arXK0voXtsFxr0Kpeme/g/nB2pulIF4Yf5QTzS++khaxi7+5ib+zsZ/d/HD3ffFItxwKbMUFpZ7v/1g9MqTNd9UXXQH7UqYy+lFO1h51U8t3yjtlPPjX6P/i+ZLwTfwt1uj8xuKSudVa3YkoXz+eynVy72cRAGAOQgkNzNW6kZDFI5Q9HPIr7wNnqVqgIjcjjjfR9gPj4BsIAC8gCCU0MFfrRkJecKEMA4s6fGRZh40IojX3Zku0wTCE8kYO2rr5NwEAPAYIJTQwV+tGQl78EUoAAACYgFBCA3O1biQEoQQAADg5EEpoYK7WjYQglAAAACcHQgkNzNW6kRCEEgAA4ORAKKGBuVo3EoJQAgAAnBwIJTQwV+tGQhBKAACAkwOhhAbmat1ICEIJAABwciCU0MBcrRsJKQvl1dXl5cX52dnq7GI6H86Vy9e5cmabIgglAADAIYNQQgNztW4kpDlCqdN1j60xz7k8Pz+GubwBAABgAkIJDczVupGQZUI5yri6OKsYJUIJAABwyCCU0MBcrRsJuZtQnl3Y8hiEEgAA4JBBKKGBuVo3EoJQAgAAnBwIJTQwV+tGQpYK5Sq95eaVNwAAwHGCUEIDc7VuJGSZUOpvvEOObORHOQAAAMcIQgkNzNW6kZCyUF6er0Zkr7ZFKUPe2DUzEEoAAIBDBqGEBuZq3UhIc4TytiCUAAAAhwxCCQ3M1bqREIQSAADg5EAooYG5WjcSglACAACcHAglNDBX60ZCEEoAAICTA6GEBuZq3UgIQgkAAHByIJTQwFytGwlBKI+SL8Fh3QEAAAtBKKGBuVo3EoJQHiXmUyePdQcAACwEoYQG5mrdSAhCeZSYT5081h0AALAQhBIamKt1IyEI5VFiPnXyWHcAAMBCEEpoYK7WjYSUhfLq6vLy4vzsbDodTi1/wmkJ5W7jpw5abwfLuX/Mp/bL+x+uvvne6psffscW3nvtfdsSNmU5h4F1R2C73vdJGLZrd3I3u3SiN7uw5M55KKIrfoNvRMzX4LTiWG92D3exPBju6NdbW1vOsH2+Xn+1Wv18vf1dy1rOMHy9c/VMK5FT8JAfUYCDB6GEBuZq3UhIc4RyPpe3p5YfOMERyuLTaiveYIt7xnxq76g4fvidL7/84J1napBvffyB5v7k9bfUJl955yeu0AFh3eERn7mH/pYzm2qNu9htxqd72Kw3fl22rGOEuyz84qh5mn8PbX18tF9scSm750kBd8/v2jt5bYH7uUAAjhWEEhqYq3UjIS++ULphEzd6tN3oKFF62MvDTze5vNwOBl/Q5Ysc6ANSBEBWfWSsUFcCU6H0ARntJ9msuDI31IjK1Ccfv+Y8z9LbnzrFkvxPU/5bH37nE80zQXz7Y6+Gkv+6y1ey8q+8JcUyofRDkmF40oSyVL9SbU85X3bxSsh85W1vro5JeU3PtLWl/Vp3OKQLR51cOL/u1K03Ll/HGfX/3fXQOL+yKVUblcRyBy2rC0mkdEkuoFisKJS2pXp+m+QHJnvKWhqv2/XW7al2vNV+cEHZ5e+rca1162lLdiSxOZKrR2/5C9ltfp76Y/jFevO1Ld+OklDepdMBXjwQSmhgrtaNhJzGCKU+QHVIaJCHyeD+K/6xsSElRR6KG3sQuoeOvZCUbHlmu0XNT09RfW6OHkzFR9V9jlB++loaMvzJd95+ZqOJn3wslvba+zaU6LzQ2diXX37nbWdmbpPm2+hjVo8Ym+paEMq3Pn5dQt5yeudMVItV66+0p5qfoyOgoQ1a/7w9tf1adyhjX6udXzUjPVEiX+pSg55JH1Y7vxqRYfnufLv/yj86tkMW7EOtAl8sbBg1cNreXlyDw5H5C9StjS5AlTy3pq3Xpenx1vJdsP+ACHkbXYTtWQqHneXN0b1KrX5lKVOhXP/Clm9HUSj1gLJeAjhtEEpoYK7WjYScilBOHyP6eJwQH536WPQ4CbVciUgCMKtQts6fVP1CWWhOdJcS8TW0pFfeevbaO596S3OmZfkx+S8+qlDGUcP81XZueJP89NVJc756/eX21PO//OD9j1+JI45BIlvtCSVjkv1adwjag7lBVs6vO09aILiSZPiTFBeU7PxW8t2S/menNW5TeSvidqSiuWeh1OptMWfUSiVvhl8fHW8t3y1l139q42gPVnu24InVLudBhHI2jA1wwiCU0MBcrRsJOVWhdFm2WGMQHzjYEUrlg/c/ff2dD19728mW8zAnXm5Ib8ZthNLrYFgIQlmuX5i3x1PIH404WuVastGe0n6tOwQ5AblQ1s5vNJ67CuUg8RtXh1ap34yw8rGIBm4zwRobpEbNLpgOZleeZ9RKxcq53fj10fHW8nU9DtCPas2XUysmzYnVLme3+SrVf0+vvBFKgAyEEhqYq3UjIScrlJpn3zQbI4/E0Tu88Pxxz0rNH3Y6+jWpMG7NiXlu0CfXnbvihMzeZQsfvGPi5UVNxNE72Qfvf+i8TZeLQjkSu08+daOJQeBysYvOV6u/1Z5SvmuAyxdJ1Uq8UPr6w/L0lfd8v9YdytjXauc3Gs9UpKrnNxZQsgtJitsPayRzPL4dirgNRaHMLyxBNglZRgNnfKFt7iWzjxtdgG7sVNdqx9vK3/hX3v5Lx75yXS33gzuQ0BxtTS6US45LJHITFHC3+fkoaFE9Hl55A9wEQgkNzNW6kZCyUF6e6w08cXbRzp9wSELpn0WJ7Knknn8e5wb+QSPPzfjbg/ilMSUWl0z95pl/NE3rz/eQdpDXsw9MsGKq/Mhm9dYz/3sXN8LncsQpY2wYLLTyUokKX4jV5Fww25dzx0L91fbU26nfp9TMZ6+8ExrgfTf7UU78kZDLL+zXusMxG3yan99wsqScW5QzKJ7kM4rn128VtECI9kqiayZPsmiaEopk675MrMgzvh5clEV0MHonHUcT83zN1pzQnNnxGqV+iAX0Jzm6rA1r9MP4KrfqNH/xcclenq9WX0mauOCienYbrSGl/NW5HMaC5gC84CCU0MBcrRsJaY5Q3paDG6F84fCK9cIzGyidYt3hEe9Q3zk61NZeRM/Z13HtrX+O9QIBuB8QSmhgrtaNhCCUR4n51AtJPqiZ/1miEtYdgaMcgFJfehE9Z1/Htcd6GJ4EyEAooYG5WjcSglAeJeZTJ491BwAALAShhAbmat1ICEJ5lJhPnTzWHQAAsBCEEhqYq3UjIQjlUWI+dfJYdwAAwEIQSmhgrtaNhCCUAAAAJwdCCQ3M1bqREIQSAADg5EAooYG5WjcSglACAACcHAglNDBX60ZCEEoAAICTA6GEBuZq3UhIWSivri4vL87PzlazKRYvz890TozV6uy8PvviCyCUu0eao03/6J6S7/zrzdpP+/HzODedw00gsmgqkoUM3//B6ruf28oD8LMfr92fn9z8yDL2xYP+BUI7Ld3nhb+PCACPAUIJDczVupGQ5gjlbM7ui7Oz80uXc3Xlll3ujFMbocxnOb4jc7vYrn++2TmPHH7XLbvcwL3ayO677z2oUCqfb/YulI8xQUrxvNSuE2ZwAYCHB6GEBuZq3UjIMqHMEaM8fKF0433rbZrkeJM95edzHztKI0x+4HAdJ/mOZuA3ZCQzyKeSznbrq5fKd373Y8loC+KwvaVQzpqpNANV7Gy6Gp+SWT7ffvcHPnP93R/vfqZZOpapZX68/bYr/O0fbjX/ua1+93N1Uxey+uYPd2Ek0qUfrC3kx641ut/1t63+UI/jZ59vfEmX7/eb2qm7cFF5iEMOPe+0av9Xzpd2Xjrta+lul6U5PjJWqCuB6XmZnYAFZx0A4B5AKKGBuVo3EnJbodQByqpsHtQIpTzJ1Q/scS2PbnuUj57hKhOjJ/r8Ea9KILEuT0rnW4sjT9vNJpWQ+jcqIoY6yForkxKD+2+gpRbDL9brX0y23auKlEYoncB993O3y+dOE3/oj90t/2D7o+eyrH5pgjiu5Ec/tPK68AMxP92qJePApBdE88UhFPNvwzeucs1Xf3X5Drdra8nsNb309ezslPq/dr5cD/vTrtlijm5R81O908unfF7qI9mu3mlxAIB7BKGEBuZq3UjIrYTy6uK8OjqpHJhQjh7V5gEjHVAmSjAXgoZAFERBSttQVCQrM/OPyHy/xvCLzfr5dC+N8mMKzZkNqs0ZuaAnGqERRbAijrX8sBC2joQye+WtY5zr7z+3EdBxisWcUOatytAjz0zRM+//1vmS0pblJNRyJaJ2PQjF81K4TgLayto2AIB7AKGEBuZq3UjIYqH0Mll9Ee5AKH0JW5wz849IUUSG7fP15utiQLH8vjgAobQCTigrylhsZ0Q6qEco2+fLMwzD9p5GKBFKAHhoEEpoYK7WjYQsEkonkyHnKL5DKcijel+vvGsCEcu6b9uZvkiR/JuZI2b+EZnt93e3m/Tj7lt/h/J2uNfH7s31zz7ffvsH6+8/98Knhqfbn7uvLTbFMc/XSsJQYlMoV98OX8380Q/X2SvvsF+fPx6hrAml9HXplfe802rnSzo4DkvqZRIqiz0/7HR0c1Jh8bzEvPw6cfDKGwAeGoQSGpirdSMhZaG8PLd3fMbZheaKQtq6cSRCKZ4gIuBanNxAKP4oR79eN0YNQvwgrYQiUQHUMyxrVH/Mlh2ELdP6bxDE4Rdr/YNBKd1Qfs/E38H8YO3NUhAvjD/KieYXX0mL2MXf3MTf2djPbn64+754pFsOBbbiglLP93+sHhnS5rvqi66AfSlTGf0oJ2uPuqnlO+WdMh78a/R/8XxJ+Cb+Fmt0fmNxydxqre5ElK8fT+U6ufezCAAwB6GEBuZq3UhIc4TythzyK+8DZ6laoCI3I4430fAD4+AbCAAvIAglNDBX60ZCXnChDAOLOnxkWYeNCKI192ZLtMEwhPJGDtq6+TcBADwGCCU0MFfrRkJe/BFKAAAAmIBQQgNztW4kBKEEAAA4ORBKaGCu1o2EIJQAAAAnB0IJDczVupEQhBIAAODkQCihgblaNxKCUAIAAJwcCCU0MFfrRkIQSgAAgJMDoYQG5mrdSAhCCQAAcHIglNDAXK0bCSkL5dXV5eXF+dnZajaX95Xmuz9/mCZhnIFQAgAAHDIIJTQwV+tGQpojlNO5vHXyxbMLm2/xUpfLSolQAgAAHDIIJTQwV+tGQpYJZQ5CCQAAcKQglNDAXK0bCbmFUF5duHfeZ+c2VDkHoQQAADhkEEpoYK7WjYTcdoTy6kq/Y8kIJQAAwBGCUEIDc7VuJOS2Qim4L1Ta8hiEEgAA4JBBKKGBuVo3ErJMKEUhzy99ztXl+WpVeeuNUAIAABwyCCU0MFfrRkLKQqmymBNHIt2bbssLajkHoQQAADhkEEpoYK7WjYQ0RyhvC0IJAABwyCCU0MBcrRsJQSgBAABODoQSGpirdSMhCCUAAMDJgVBCA3O1biQEoQQAADg5EEpoYK7WjYQglAAAACcHQgkNzNW6kRCEEgAA4ORAKKGBuVo3EoJQAgAAnBwIJTQwV+tGQhBKAACAkwOhhAbmat1ICEIJAABwciCU0MBcrRsJKQvl1dXl5cX52dmqMpe3m0mnMu+icFBCOWyvVyuXNpazXxbXv9v4qYbW28FyTgA56Ec53mG7nnT2MHy92z5fr79ab3/Xsgw7MSd1XgDgZEEooYG5WjcS0hyhnM3l7bi6ODu7uLw4OxKh9Ow29yWUnqX1i+ggLjW2683OFu9KtZ93z2dCqXBeAOBEQCihgblaNxKyWCglT01SrPL4hXIrmW5wcb253mUWEfN98oIxbK/XIUfKT6RjH0I5bDd+OG0l27xR+fG1WDKOoenKsAvFV+tNqsuXkZCdr64pZ2EAb0TDqFzx9TY1NNtxqf1KaUTW73e9SfVY+VmDUutvdbxVQUQoAeC0QSihgblaNxKyTCh1cNJ75PEL5UbUMHihbl1dexHZrq9X6+CLO82fG5mU8VIXubtQjjJUntyalBvvPmwQ692keCm/yRqkkrWWwEFKDO6/+0OMT33O6kztK7c/MD9eyVH5c3lSOt9aHKG83fHO92sglABw2iCU0MBcrRsJWSaU7ruTico3LI9BKJ0p5tYifqkWM+gwZG4Uku9Xh931WlwzDlLuVyhlvSaOaxUpHbjTjCGJpp2ESBY/1bkqhWr8fuqUG15vv0e2T6odRYxLT+sSCg3tOt75fg2EEgBOG4QSGpirdSMhy4QycewjlN1Cabj8qDD7H6Ec6ZUSHckt6H/0f9tYTNfcQokYfA88jlDe9njn+zUQSgA4bRBKaGCu1o2EnKpQtl95Z1+RNHd0AupNw3+Zcs9CORG1/JXxbiPomuTpe12f69aybyqOqAvW3XFvqvfzyrsulLbmvpVpb7pvd7xVQUQoAeC0QSihgblaNxJSFsrJq+3V2YXP98StR/HKW8VxnEwYhuxHOevqj3Li72+8dGrO9nrj3307g6zWXyb8RCURtaryoxZxHHsLPYz/9o5amy8vAWJnbsu0/vlY3x1R49qFPYe9OortLx+vHlNcCUXisaUDG9d/i+OdC+Ju89VqlaX1L2yDA6EEgBMBoYQG5mrdSEhzhPK2HOAIJeyL4zKupYKIUALAiYBQQgNztW4kBKGEBaSfxjS+0XhIhKHQHku0wU6EEgBOAYQSGpirdSMhCCUAAMDJgVBCA3O1biQEoQQAADg5EEpoYK7WjYQglAAAACcHQgkNzNW6kRCEEgAA4ORAKKGBuVo3EoJQAgAAnBwIJTQwV+tGQhBKAACAkwOhhAbmat1ICEIJAABwciCU0MBcrRsJKQvl1dXl5cX52dlsLpyrizP3t/oc1bkXD0ooh22Yw2bJ1Ij93Hf9Lwa78SQ/D0bp71B+vVn7aXJ+vhnNvsjfoQSAEwKhhAbmat1ISHOEcj6Xd3MK78gBjlAunWt7Kfdd/0mRz/J9R+Yz32zXP9/snEcOv+uWXW6AmXIA4ERAKKGBuVo3EnLSQpnm8t5U5/KW5AVj2F6vQ06c4DvSKZR+wMxLjB8Q8/ristfbNBn2xu+0lq/kU1tn2bHanY9qylkYwBvRMKpWe6SymJ3PRW4Df6Nq/X7Xm1SPlZ81KLX+VsfbFsRhi1ACwImCUEIDc7VuJGS5UOrj2yFqOd4YOQqh3IgaBi/Uratrrxbb9fVqHXxxp/lzI5Myk6kH+0coRVlSheJIQV/EpNSTbC2VquZvNpYniGxtsgapZK2loEYN7r/7o97OzMRU/kZeNhc1yVH5c3lSOt9aHKG83fHO95sYfrFe/2KyrVUeAOAFAqGEBuZq3UjIQqHMqY9WHoFQOlPMrUX8Ui1m0GHI3Cgk368Ou+u1uGYcpNy/UI5MJhYr58v/mddHMgmb6lyVQjVutM82l6i2J9u/MGmCbJ9UO4oYl57WJRQa2nW88/0awy826+fTvTTKAwC8WCCU0MBcrRsJuYNQus22OOZFEkrD5UeFuZ8RypHJxGKVfI30OQXqgnV3yu0ZHZUyaYJsnzRpFDEuPa1LueXxzvcrDNvn683XxYBieQCAFw+EEhqYq3UjIcuE8uLs7OzCRiUvL85qv/M++lfe2VckzR2dgHrT8F+mvItQemUZdjrqFvXFvQFe8MpbJCr/puKIumDdnXo7s332vfKuC6WtuW9l2pvu2x3vbL+/u92kH3fzHUoAOFkQSmhgrtaNhJSF8vLcXisaaSTy6uLcvkV5dl4dvTwooVRxHCcThiH7Uc66+qOc+PsbL52as73e+HffziCr9deIPy4RodrqL0q8wajJ7LJNoZJaflaR5LtvEGpm+AlMYCJMd6fRntKPcqbt8S0Sb0sroUg0uXRgdz7eqSAOv1jrHwxKCaEEgNMEoYQG5mrdSEhzhPK2HOAI5eFTM5lDM5zjMq6lgohQAsCJgFBCA3O1biQEoTwIwoCdDtNZlqOW/1gcWntuJAyF9liiDXYilABwCiCU0MBcrRsJQSgBAABODoQSGpirdSMhCCUAAMDJgVBCA3O1biQEoQQAADg5EEpoYK7WjYQglAAAACcHQgkNzNW6kRCEEgAA4ORAKKGBuVo3EoJQAgAAnBwIJTQwV+tGQhBKAACAkwOhhAbmat1ISFkor64uLy/Oz85Wxbm8ry4vZJNSmer7oIRy2IY5bPqmRlzKfddfxP3JxNYfTJQC+/t7irY3v5L+FKWiszD6/DZ7bc+jcfh/9XwozYNeY3j2dP30G6tvvbF+9lPLqjN88dHOlZ8XrtVzHPn3/bfs7c+b8vdN4eBAKKGBuVo3EtIcoZzN5S1cXZyfX1xe1WZddBzgCGX/XNu3477rn/OwcrPbpL9kLk/IKC063eLem7FEih6Q/LgPj2G33e4GJ5SDX7YNNYanyauGpzZj+o3kUZ5aPceSf7sTqx+IrIqbYAYmOEAQSmhgrtaNhCwUStXJS1uucyxCmeby3lTn8pbkHwTD9nodcuIE35ElQpnPSS0+Fh8087mw3eDGeuOyNzaBdpAtfULtQkSY2VopjYj4CWOsJreUHqB5c/LxxtGM2vr8tHzdQQrPhsSKc3kvbI/fkJHtqdxOX71Ubp2RH9qMWfVK55NeQmPVvh6/Ghsgy/6wtqkjrKG1fGUfx+URkdSi0vkdB7TbvbH9wpavv3h3vfvIFr71jdW3vqG+NTyVhdW3smJCrmWOcj3Hk6/I6ey8CCL6gVgQUdpD4fPiL89Y0j46/qO3v+sEwINQQgNztW4kZKFQSs75xbm97z6/rIxTHoVQbkQNgxfq1tV1uKdfr9bBF3eaP79DS5nJ1IP9QimPhWR/8pAIj4/RE0cfHm5NzUWX5OGjAjP4cC2izx7Z4kO0/KiZ8weYq8n2LKXj1u0mG6yRejb+wPJmukdZbYQy1FRuf6C/PUJxhLLSToc+VNdamZQY3H/3T37UirQ/rWeH6w4rnJesVDV/f8flunQ76+kyU8F6+m5a/tYb2qa4kHOjUIZ6jiXfkT6GvUwv8BuQUzMpX/68jK4qJe7nsa9/eAFBKKGBuVo3ErJMKK8u1CVD5tXFxeyNuOMIhNKZYn7nFr/UO/mgw5D5nV/y/eqwu16La8ZByux+LnQLpT4gbDGn9iBxDyK/7n0mFpw8oSYVuLjRg2VUID6mJNf96yDDlYoFPK46W9amRPQppnmT3Zcr6GiPY1qXUGunZ7KzOoVqnJbb5gYaOZKrWvtr56WcX2jQbY7Loy+65f/ENrIB4hotwfriIzdOmRWIvJhCKWdn/M+FGoXz1RUoceXLIhBPtWyQ/9fdaMZg2Xu9TgA8CCU0MFfrRkKWC+XZha2URjA9L5JQGi4/3sLvMEJZuffXHjDuQeTX/RMkFmw/oVzcaD+jAqkVuuQWxkyaGZuhhKbkTHZfrqCnPcq0LqXSTs9kZ/eBNPc+hPLxjmu3c++1PSJY2SvgQV92v7F++sZmGLmjUhDKcj3Hku/pFcrIwlMjp7t8WQRifW5B/6P/28ZiuuYWSsRggCUglNDAXK0bCVkmlF4p7VX3Vc0nj/+Vd/YVSXNHJ6D+pu2/TDm5vXcLpZRMQ2L+S28F4chfgfk9FYTSjWH4Ju2k2OgBNX2AZYFK9gSSxfwbjwHJtsFHrb76yjtRbn+gvz1CLOu+ZWYaUGmnY7q3+2B61PGItPOzYU5ZWfTK+9GO64t3N0ENd7v0ant49sbq6dOdDuZ9tJn/pnsmlLV6jiZfyT+UfSw8NfPrv/p52W0EXdMrI31GHu06gRcXhBIamKt1IyFlobw8t9cqRjYq6TzSZx7HdyhVHMfJ7r1D+vHNel39UU78/Y2XTs3ZXm/8u29nkNX6q6Qv47tv48fS8y/py3POIU8VtyiPDXky+TxdcyrjFqP8hZCEPpJilK6EIuEh5HzRstw3sVxuli15tnvJTvufPoMLPzK4VXvGe067KLZzWr9WeD9Ik0eVx+ZIU/QbrtZ+FQX7/dSo/bX8Rzyu4Zn/2U2yRrXJ6Y9ybOtup8spZa+M5/V4jiVfL8fJtXwjcs66IsrXv6P4eXGNsUtpGGvuI1//8OKBUEIDc7VuJKQ5QnlbDnCEEuCuyLO743Fdc5PlzgIPRN+JBXjRQCihgblaNxKCUAL0cqMUpuHb8Vciavnw+NxieBLghQChhAbmat1ICEIJAABwciCU0MBcrRsJQSgBAABODoQSGpirdSMhCCUAAMDJgVBCA3O1biQEoQQAADg5EEpoYK7WjYQglAAAACcHQgkNzNW6kRCEEgAA4ORAKKGBuVo3EoJQAgAAnBwIJTQwV+tGQspCeXV1eXlxfqYTd48mw7nwc+QEKjMvIpQAAAAHDUIJDczVupGQ5gjlbLLui7PzS1vUWb0RSgAAgGMEoYQG5mrdSMgyoczJ5XICQgkAAHDIIJTQwFytGwm5rVBeNXwSoQQAADhoEEpoYK7WjYTcUiibPolQAgAAHDQIJTQwV+tGQm4nlG2fRCgBAAAOGoQSGpirdSMhtxLKG3wSoQQAADhoEEpoYK7WjYSUhfLy3P4wkHF24fM9N/kkQgkAAHDQIJTQwFytGwlpjlDeFoQSAADgkEEooYG5WjcSglACAACcHAglNDBX60ZCEEoAAICTA6GEBuZq3UgIQgkAAHByIJTQwFytGwlBKAEAAE4OhBIamKt1IyEIJQAAwMmBUEIDc7VuJAShBAAAODkQSmhgrtaNhCCUAAAAJwdCCQ3M1bqREIQSAADg5EAooYG5WjcSUhbKq6vLy4vzs7PVbOrFq8vzM5s9pz5bzrEL5bC9Xm1s+SEZvv+D1Xc/t5UH4Gc/Xn/zvdU339v8yDL2xXa93g62vBd2G7niWnVKgf3t0vbmV7Zrd7kb603fXvbanj6Gvfc6ALzIIJTQwFytGwlpjlDO5vLWSRdDTmMCxmMXyt3mcYRy9933HlQolc83exdKkanNzpb3x8Pq0m4ThHJ8PMNWNuy7Gdv1fvrrfjoeAF5MEEpoYK7WjYQsF8ogkbI8G780DkooN6vrlaSN00RZWF+bEAzXm7XLcZm7YAlWPiZnlltfMlbikn92F+vXMU6XaYFxp1VU7FZ5Smb5fPvdH/jM9Xd/vPuZZulYppb58fbbrvC3f7jV/Oe2+t3P1U1dyOqbP9yFkUiXfrC2kB+7Ful+19+2+kM9jp99vvElXb7fb2qn7sJF5SGO7XqiNYPYWRjgEx+LQqZyZtnrrYvwQ4Mbl73Z+bAgWyqUuxAhmbE/XZDmZV08uHFFq8ktpRblzcnHG1O+lK4JpdYcVubtdyxqj9+Qke2p3E5fvVRunTE6NAYpAaAXhBIamKt1IyHLhNJlCauzs/PzOFY549BGKKMFyqPXXmcP1+vVdXwUe/+Lj+LiCOUoc2e1eQr1h0wvGpq5ln3eQGmE0gncdz93sc+dJv7Q79ct/2D7o+eyrH5pgjiu5Ec/tPK68AMxP92qJePApBdE88UhFPNvwzeucs1Xf3X5Drdra8nsNf1IvwTRomR/IklBtEbuo/Lk1lSwdElkTeVq8OFaRM1LtvgQLT/ay1ylXE22Zykdt243m1RO6tl4ccyb6VSuNkIZaiq3P9DfHqE4Qllpp0Olcq2VSYnB/ddI3QsA0AahhAbmat1IyEKhvLrIRiirRnmYQjn2D1PAPMWn+u2EcuIEjfI1Ri7oiUZoRBGsiGMtPyyErSOhzF556xjn+vvPbQR0nGIxJ5R5qzLUmzITkm5IZpYhxcYSZUbmRMyve4uLBSeGNqnAxY1MalQg+p7k6gBfjis1EUJXnS1rUyJqcZo32X25go72OKZ1CbV2eiY7y9Den9YFAFAAoYQG5mrdSMgyoRxlFMYvjUMUyrEgeqGsPXlvI5RLytc4AKG0Ak4oK8pYbGdETWgqlAX3qQmZEzG/fi9C6ZbcwphJM2MzlNCUnMnuyxX0tEeZ1qVU2umZ7CwDoQSAThBKaGCu1o2ELBNK9x1Ky8l/oDPh8IXSv/KWTP9YHnazN+B+0yBP6OtgOKESl3kfQuleH7s31z/7fPvtH6y//9wLnxqebn/uvrbYFMc8XysJQ4lNoVx9O3w180c/XGevvMN+ff54hLImlHLcY6WR9Wg/g3uZ7DePjCu+Mo4mVxDK9Mp72Emx0V76BU4W8288BiS755V3otz+QH97hFjWfSvTdLzSTsd0b5G8swEAWiCU0MBcrRsJKQvl5bm9ZjPOLny+e9F9bH82yMmcT6NBn/GPctZBLj1xU55vmevrnX9j7r8WWao/vVIXp/TyKmltW+vE38H8YO3NUhAvjD/KieYXX0mL2MXf3MTf2djPbn64+754pFsOBbbiglLP93+sHhnS5rvqi66AfSlTGf0oJ2uPuqnlO+WdMhskSz9ecb9eid1Z+VGOIPFuUeRIPMzn6Zp4pC1G+QshCd15jNKVUCSolvNFy3LfRHS5Wbbk2e4lO+1/6mrFH+Xcoj3jPaddFNs5rV8rjMw1FgCgAkIJDczVupGQ5gjlbTm0EUp4UMR5RpoDDwQdDwD9IJTQwFytGwlBKGH/MFD2CDA8CQBLQCihgblaNxKCUAIAAJwcCCU0MFfrRkIQSgAAgJMDoYQG5mrdSAhCCQAAcHIglNDAXK0bCUEoAQAATg6EEhqYq3UjIQglAADAyYFQQgNztW4kBKEEAAA4ORBKaGCu1o2EIJQAAAAnB0IJDczVupGQslBeXV1eXpyfna3ms3VfZjPllCdefDChDFPU8LecAQAAFoFQQgNztW4kpDlCOZvLW+dklCyfJ9JZmXzx4UYo++bIBgAAgByEEhqYq3UjIcuE8uoin8FbN9vimGVCOZ5T289YbHNhb663YfrsNAdIVn7tFhBKAACARSCU0MBcrRsJufUI5dXlxdlqlellxgKhHK7Xq+s4AbH3SO+Ou41bdps0fy1llY145NYtiVk6rUQoAQAAFoFQQgNztW4kZKFQukHK8B3Ki/N8vDKjXyhtJHKcvF+qUG5cISG82s7NUuGVNwAAwHIQSmhgrtaNhCwWyow9vPL2Qlk0QoQSAADgnkAooYG5WjcSsnyEMvy/brz7j3LcK28RR++Iwy69AS8KpS9vr8gH+4YlQgkAALAIhBIamKt1IyFlobw896+1A3Ek0n1xUjMafzTobj/KWTu5TK/CxSm9dLqt6p2x/Pp6G4oBAABAPwglNDBX60ZCmiOUt2WZUAIAAMDDglBCA3O1biQEoQQAADg5EEpoYK7WjYQglAAAACcHQgkNzNW6kRCEEgAA4ORAKKGBuVo3EoJQAgAAnBwIJTQwV+tGQhBKAACAkwOhhAbmat1ICEIJAABwciCU0MBcrRsJQSgBAABODoQSGpirdSMhCCUAAMDJgVBCA3O1biSkJpSX535KnNXZ+Xj2xauL8zPddNaY5huhBAAAOGQQSmhgrtaNhJSF8iJOrXh15ZZdrpDP7n15nvLHIJQAAACHDEIJDczVupGQ2ghlQowyimPuk6MNYxBKAACAQwahhAbmat1IyE1CqQOUySGnQnl2YctjEEoAAIBDBqGEBuZq3UhIUyj1+5KjQUiEEgAA4AUAoYQG5mrdSEhVKL1MRnv0XJ6vkmDyyhsAAOA4QSihgblaNxJSFEonk2EocuSNsiXkX05GLzMQSgAAgEMGoYQG5mrdSEhJKEUh/Z8MCuTiKErpM7OX31MQSgAAgEMGoYQG5mrdSEhxhPKuIJQAAACHDEIJDczVupEQhBIAAODkQCihgblaNxKCUAIAAJwcCCU0MFfrRkIQSgAAgJMDoYQG5mrdSAhCCQAAcHIglNDAXK0bCUEoAQAATg6EEhqYq3UjIQglAADAyYFQQgNztW4kBKEEAAA4ORBKaGCu1o2EIJQAAAAnB0IJDczVupGQmlBenttsOWkORuHq6vLy4vzsrDVNjnALodxtrlcrS+utZe6LYXu92tjyhM097C4wbDfr9Vo7cb3ZyvJ2sA2PhLbHnVNpj7Tsloe9tTo8cmThqHYby3rQ4wx7FapH5MoUttby752t9P5NnXRg/ayXT0erAeBoQCihgblaNxJSFsqLs7PzS6eMV1du2eVGxDb3K5Q79cidrewftdWKUN4fu816swvP32FQgwtrW9liiw+H+ECUkmGncuCXG1TaKUYT81VSc8t4HOtwe5UOr+9ZN9riiFr+fZL3X4uD6+fehgPAMYBQQgNztW4kpDZCmRCjvFeh3K7T2KRP8syyzI08w0b5Otbo8q3A+jp/qm6zwpL8pk2WoymYpVWV5URiPWtpgKukvd8C7oFvyzmS78eXAukJvcsGELeWG0aj3HBUtuI2DmJDMScT1nwkch2b4aWr0Oq8mqSc9XaOvUIK5pLh9jLeSem4Qv1WNq65lVJ7QldIgNWX7dbaoHKY7TrVI1t1Wzu/Wn+lPbrbVFHq53q+Iccam+6Oe63D1yEg28HB9XNprwBwrCCU0MBcrRsJuUkodYByJo8PMkI5GlbMCnjF9E9M9bz1tX/CqeqFZV8+PgkbI5TzTSqgG6vH76u93zIqKtXtlZG/YQgRuUqMHuJSbdjgFkO+yEEmDVEcfbZbFNQgvEKoQITQ7WYTFl2RTRKgrhHKsWKUlKN8XHoAqaTE2ZZGezR+tdbDlhKD+6+isW5xyGrMu0cPPPRDLd9Rqr/Wnlo/1/IDoz4QxPGy05H6YVzS1ZraMVtX7rufBXc8aRUAjhiEEhqYq3UjIU2hvLo4n41OKo8ulPP84XodhiQ94oVxdW6NkemmWUukHv8ErrWnTHqK68PZCA/5sqilgS15mOfSIZ5kz/7MInQHfmmGalKoJ8rTiCQ6IhhWNpL2XG5nfkQ6fjXaQUF06seV6o/d1WxPKpYjmVk1tjgp6ZqlC7V8z7z+VnuktGWN+7mW79AKM5MbnVNFtqejsWqEaUWu4eOq77ufHdr6VA4AjhiEEhqYq3UjIVWh9DJZ1sZjEMqcRxDK7CHuyZ/RJVFzihekYRJtq1JFyq0/8yPDII4xGyHzyO58XVqPyylQaqcQYwtIU8ftah1XOIg8u9WeUH5Erl1KOqyspGuWLtTyPYX6m+3x1Pq5mC97XCCUB9TPHoQS4IUBoYQG5mrdSEhRKJ1MBmW87+9QKm2hHOQxdpNQ6qNO8+NjUFbjE1PfUPtNrqr8STp3zdYr736h9KKQjSpts2d0lAE3qOT0QgVh498t+i+vjR/b+oSfKIQzCFsfBilgIVpRFAvJtopGwpGrhRSRDX55QqGdyhLRueG4tB2TH8A32qPb8sqVSVY8MHfktsH1jp31Wr5jUplD8ortqfRzNT8w7T1RtI5X3lMevJ89+UUHAMcNQgkNzNW6kZCSUIpC2miPEYXy8txyjLML2zBmkVCqwOUp+27iJvwCZud/ExMXJInbuVHJPCT/Uc46k0vBqhrn57tOj0mRzlDPWvbo8ke/4Mn228RpmJEkQ3AiM82WZ37I2+50eSoMM7vI6lc3sNKiDpuUH+tXFRjl+2wlNUfqyRtabGdopjD2E8uM2C7ax+XiJgdWbM+0fo2JVVudsYxbHbXebfLuWM4v1W+U+6fSz9X8yORMqhnqb4Om5Q+onyOyj3GtAHC8IJTQwFytGwkpjlDelcUjlHCyiNScmqKIs2Wa9kCOto9+HjccAI4bhBIamKt1IyEIJTwO2VDYySlllMg0DJm/ed8re+tnhicBXiwQSmhgrtaNhCCUAAAAJwdCCQ3M1bqREIQSAADg5EAooYG5WjcSglACAACcHAglNDBX60ZCXnCh/BL2inUrAAAcOQglNDBX60ZCEEpYgHUrAAAcOQglNDBX60ZCEEpYgHUrAAAcOQglNDBX60ZCEEpYgHUrAAAcOQglNDBX60ZCakJ5eW6z5aQ5GB21/BHHLpQfvPNs9fantpLxnbffW33zvdVbH39gGWPe/1C3fvPD79h6oJZ/P2jjq7v79LVvvvfKOz+xtZuY94N1a2D0lwkf4e8U+tlhsr36P7p4b3/T8Wayv/oo6JyKtuEhcY3wnTBuT3HmnhFxvh3PjeX3jbR3LxfRvurxjK7s7z358a/8yo+ffO/rN1+Vhc/ejBuGr568+tmrL2vmkzdl+avh2pcZpZc1X2r5/GUtqenVN3389fDmZz7z5SfPdT2UsZDh+ROrTep//uarn39PC/n9hvwnn8XaKnzlWmjp5Vc/j+33xzU6osek2s5b8fzJy4uOa2n5CdZ4fy5Cx9r5ql0/y+6f2Qe7ervL7gMjUv4LIJTTG1bswtBDe7wPPDDDs6frp99YfeuN9bOfWlaLn+6k/Lek/DfWu3fzY15YT8JcrRsJKQvlxdnZ+aXzxasrt+xy6/kTjl0oVRxLQvnlJx+/oq727PVPLGOKumPJ5Gr598JPXn9rgTU2mPeDdatHPrHjiVNmGXsmm+c64AQoZu82bg5Bv/JIZM+FQTrkkW5nOjGOX5L2xB7xDbKVGvlZ1IN55P5sULge7oPJZe20Tz3AmUGwOlEQMbxwrofh81dNKL0xiKD4kl+5fEOqevVNCUw5IpGvvvm1LQvDV68+8auuWKpflMVXKLuIsvX197RCv1xHPNULq6Aymu09NfgAaLVzL0jfhvr3jp6g2JPu2vCLsqV8/QiL75/uXtOcAyvdB8ZY/gsxQjm+YY17I7sbHwbNszVieJr8b3i6uSloeCa++JFf3ulyil1UT465WjcSUhuhTIg5FsWxli8cllB+8vFrb7mRxZScEX7yacp/68PvmCPqGF5WcmRUXrCmmpXV88pbz5I4lvND/VqPG0p860PT03J7Zu2Pu67lV4QyjFyOGy+U6yn3g3WrQ1Ruevtb9vGVz5b/J+Rmt/X/Znah+RTT8d+bUrPlGbZryd9sTSx0eZcko1CP3Hp0xeXrPN76/0lK0tzoepu2TB+jbZNGpvLWntDksOaXUx+4JoXl0nEp+QbZR4xe0h4hVSNZslwWSlupt193EAPcplCo2v7UThX6+AArH1e1/X6D2+QzBNeu9TbbgW20FidSk0v1OAr96atJk9ynrkpIkVGuEwL1ABECGzt0mU2Ti0KZoy7o6skdbiQfcZPU/2QW73AK+L3MQW8kF7XQhkBBKL/35ud+vE2HCUNR1wnx8CVKC/geGMSJbXDxsydJjqUHNOfN4fmbTzT2ZpmrtTMbkRUd93lKPlL7ajodYYBwdFy+/S7fp7zPfc60H0r79QeuA8O+ttFB6QCzVDvt0uL140kfti6kuF6Z+lnP648fO9mq2xr5IpQd9xPJG+0g+ziOPu+V/AKzj6/SOPTqfUAZ3bCsTwKFHrXj9LWEotYgKxvX3Eq5H6r91kY7vnqYObvdG9svbPn6i3fXOyeLsuDGINULh6eysPpWViyQC2W5nj7M1bqRkJuEUgciS++2a/mOAxJKN6ZodiXGpm7kxM7lv/a+WZeTrTTuWBmhlHBvohIbhxu1zkL91XxF6w859lq52p6sni9/og5qL9xr+braGKGcHVqjnvYI5ehjHJDMzs+L3CPkqe4/vvr5jWHbTfaPKPkwb9KNaXyvcPj7h/uUyn9kMZYp1xN2JTc/lZBBQ33A6M6jlWXHoTcPHarTEaLB/ddl5gFxv7Jk+XpcIbd+XK4BYYvkh55Y2J68Gi0t1diKvzkaWS2V9mvlsdFCWK213x2v7dk33y2OGmQbsl0X+tORei+gJ0zu45aXtVM35Q0dUaonP9x08FJSHwZuRXInUbPuEEQUnAeoGQSBGEvhnJJQxtHHYTQqmbljGrxs1a+vwr3QqMC1WuEZj/zlI6ZFobweYp2joxg1SY/F1/nVExtSVUQun2Se7RRKjk4rHNx/W5TbOR7iTQO6ruUm1l/LjsZ+Xzqu1gjlvHxjv+qRbpOeiDzKuePsXwKl68cYf0xuQD8LruyQfZLzj11+Hyjn2whl6fO49PNey98X9ftA/gl1rUjtnq0rQ7zh5JHaQ6lkqr/xPCr22w2M9tJiKoJP303L33pD2xQXEj/d6qvtb+TWWK2nA3O1biSkKZRXF+fFUchafuBwhFLNLP/KY3j1nIbrsvTa+1aqKJRZVcnYWvWX8j1OKNOqUG+P7suvvvLWs9fe+TTUWcsXFgllo56mUMonbjW+mB2aO378lnEfdFsW4sdMq52Q6isIhH3w5ZYqn2yt0MrU6on7DfeSUMG07tEHv3wXyGKyAtmeZXOIynIDPlYjXYkxS9szyZHwUO2oJn2U5C0ttF+WR6fQr1bb70qEbe7mGjNLx+WZtDbDNXy0aZKRH860jzKm9eRhjtiE0ZZ5w2Rz6TqfkuxKx6X8ONaPM5MoCKWEZOKYbzV3EeHIhtnmPjRnLlIlsha+LPsdVVsQryGMUOrIXH4USSJT85xCWeW2i8yZ+o4iUGpnZtue5NxSPrXTDC9yV6Gs71dKViTbRb366qgHbkKvtto1PUGu1VA0LU4uYPcx0IVKfhTK0mU/IbZLSltW9nkXavkFCtVL1KQNY+ofaNW6wHTH7kDH1aaBVGln3tujKi2q1Q+lfqtROuCsogItEfziIzdOWRibVL746XZXH6F8LKH00jgfg6zl5xyJUI6ULqcklEm8LLlqby+U4/rb7fng/U9ff+fD1+wVeaq2kr9IKJVa/Y8glG7JLRQoCER2E/CE9Uo9cb97EMqYPwp2e9DCTt5ifqU9taqXtmeS4xoRF/OaRqsWNS4yFkpXk5TRopZVQ/7lv40jE/MmZtQ3ht0lJhl5W6d9lDGtZ3yIQmzCaMu8YbK5RyhboqPMhdK/Ak4pD3deMjIVVZMbTVHIR/VqtMrMxEsKv/pVkM5RkwTzp8ws1erq7VwslLN23tTPyiBdt+8RytsIpXSF1i8FpDFp1LZJ7/1TL1XzEsOHTS5g9zHQhUp+VShdli3WGH3eM2r5d6P+gR7fsMa4A80PTQrHgdS8Eof1Q57d7IdCv91Ed8hu595re0QEs0HHQV92v7F++sZmCF+OnJCJY6OeGzFX60ZCikLppDG80M6+K1nLn3Isr7zFlrw8ffD+h+6Ns1vxeve286pPPn39rWcaPjZC/6ZYy+evqrXwqP5CvqNgdbX2aH56F//BO6EZtXxlJJSTfU133aqn0A/WrUrxY+w+roXPy+DufqPy6ZM+fuUtnzj5xPvlCTHE/SPTfUymt4QkGeV63A1GF0LzYwWjO4/KYHYc1buARus3e7Ktbg+2KsvxoGvHlXfZoPu1iIXtkaz4j3NXS7gPxgNUZMvoNBTarw2KJbQmW5GlYvulnaMdh9jacSmyNm2/kfeeR6+N6itvK5uuh0CpnixD22NroxoLDcu7o4UOK2ajfZMfkcyEMr0zdeROJuhvej4LP8fxiMEkWdFXrt5jRsI3954SS4RSRfaJfzf9tfsy5fgotNlfvTnSRNfOShvuLpS+n2Md2atnyY+jrV/Ljsb9UBHKKIVPPnt51Nvz8rX9VoQyvaMX9B8PN58XIf/Q5Mzvn5MrNV7Fkl+8D5Tz60KpeYs+77X8fVG/D7Q+odP7gK5vfCX+y4/jSK12cj+s9YNS6rcb6A/54t1NNsoY727DszdWT5/udNDxo83Tb8SRyG3yy5+KRK6iOFbq6cFcrRsJKQmlqKJevgkTx1r+jIP9UU7tRzMrsSVvTkbc5PLVJmU5mpYXU03qbbH+tz58XYVMo/xXLcv5VpumqH1KsT1eNGNKv+Cp5HsLzDdJMoNMzU5fGK3X4xj3w+1/lCOfeWFSXD5b7jKSW8PoM+zudx73o+3CBp8ru/Or/i6cVv2O5vX4ZrjtblHCfJALcFriyG4hISQwPWTdnuXF4nYfd9WH5cpxpf26HafDXdaeUe/Y4c2K+57KmLQ/9aEj7/1K++UWHH/TMilfOq5a+2cNDVv0krLfT03qn10PSrWevD2xP+PhaqEQOukiKZJ1UIP0o43Rq+TwIw+X7wxJLM2/zLXfZIg55atKUYCc97iSonFWvwrl53G/9SG3SPpzPNnuUhtiCjInLfE5/m8VjaPc0U21L/15ox+LFj/x32uc1j8W0wKVdgrlH+WI2o76wUKqxyWod4b+7Chf/VGOJD2ccKLlxFnjJ6f7RqeUy3H6+fT4SzNchulD6kvHa96tFu8DGlXIf++9fxhijexSX/Z5r98H9kPtPpDdsPK+i30SsSOLnSfquNPlcY9r3OTjXuyHaf19twiNK5/hEsMz/7ObZI1qk9Mf5YSt7k235ew+yvcxr6cTc7VuJKQ4QnlXDksoM6ZvomEh1q0e+UyNP0azjF7kg93/MTssltwgDpGDb//jXxq3vqxPgWWDjtDi4S80G6E8Bh7oPnDs9/O9Yq7WjYScgFDmg3D5n+OB5Vi3BkYf8uo/r6ukf2hnf47hWMj+iXqUt6CjaH8afrBR3sfheP+9c3+k74BORxDhViy/f96dYxHKB7gPHPv9/D4wV+tGQk5rhBLuiHUrAAAcOUc0QgkPj7laNxKCUMICrFsBAODIQSihgblaNxKCUMICrFsBAODIQSihgblaNxKCUMICrFsBAODIQSihgblaNxKCUMICrFsBAODIQSihgblaNxKCUMICrFsBAODIQSihgblaNxKCUMICrFsBAODIQSihgblaNxJSE8rLc5sVJ8216Li6vLAtkw05xy6UbsrB8dSIDp23UP+YZeVPo08n1AnU8u+HMFNOcXc6Wc5oep4m836wbg3c8e9Q3hk/60G2V//HxB7xbxZmf81MeKS/r+ka4Tth3J6bZ7CI80h47mHGizbS3r1cRPuqxzO6sv2EKE++52dJyf6st86k8pmbIuWzJ2/6qRfjTCop2V9tzGZkibNOpxl0/OwsoYyFpBlo/KQ1YbKZbAaXJ09unPI7zUDjav48tj+b6MVyHpVqO2/F8ycvLzqupeUn2HkPf6HTjsXPlFO7fpbdP7MPdvV2l90HRqT8F0Aopzes2IWhh/Z4H3hghmdP10+/odN2d81w89OdlLeZct6dHfNHG9m0ZCJvwVytGwkpC+XF2dn5pdPFqyu37HLd5ItnF7ZyqctlpTx2oSzMte2xv5GeJr+eMp3yO1DLvxdGc3nfhXk/WLd65BO7p5lyOsnmbw04AYrZu42bG8uvPBLZc2GQDnmk25lO+OCXpD2xR3yDbKVGfhb1YB65PxsUrof7YHJZO+1TD3BmEKcQFNtL0y0OOhm3F0pvDHEu7/GU0G/qJH6jWb8Lc3z7VVcs1S+O4iuUXUTZ+vp7WqFfriOeOppOMNt7avAB0GrnXhjPn75v8jmE8rnFK9ePsPj+6e41zbld0n1gjOW/ECOU4xvWuDeyu/Fh0DxbI4anySOHpzfOwT08E+80X9zpcu6gP90+fWM7vLt+LKHMEYksztl9NEKZzeUdkp9rO587O86gk0947VJmVF6wppqV1VObKzzLD/VrPW4oMU3PXWzPrP1x17X8ilCmOb7Hjlipp9wP1q0OUbnp7W/Zx1c+W/6fkDqXd/qnZD51avz3ptRseYbtWvI3WxMLXd4lySjUI7ceXXH5Op+t/n+SkuLc2T5G26YTjutS2Jdla5m45pdTH7gmheXScSn5BtlHjF7SHiFVI1myXBZKW6m3X3cQA9ymUKja/tROFfr4ACsfV7X9foPb5DME1671NtuBbbQWJ1KTS/U4qnN52xXhltKRB6TIKNcJgXqACEGcJMapoVsqE4UyR13Q1ZM7nBNTW06bpP7KTNBOAf182Z3kohbaECgI5ffe/NxmphZzDUVdJ8TDlygt4HtgECe2wcXPniQ59jPrSOXP/YzkN8tcrZ2FObUd+Ujtq+l0FEdefftdvk95n/ucaT+U9usPXAeGfW3jgwqnUjokyy9eP570YetCiuuVqZ/1/NDix0626rZGvghlx/1E8kY7yD6Oo897Jb/A7OOrNA69eh9QRjcs65NAoUftOH0toag1yMrGNbdS7odqv7XRjq8eZs5u98b2C1u+/iK4oCy4MchsLu+sWGAilFKVlo+VdGOu1o2E3CSUbkxyrI2SpV1Z1kzHAQmlG1M0uxJjUzdyYufyX3vfrMvJVhp3rIxQSrg3UYmNw41aZ6H+ar6i9Ycce61cbU9Wz5c/UQe1F+61fF1tjFDODq1RT3uEcvQxDkhm5+dF7hHyVHdFB/38xrDtJvvHmHyYN+nGNL5XOPz9w31K5T+yGMuU6wm7kpufSsigoT5gdOfRyrLj0JuHDtXpCNHg/usy84C4X1myfD2ukFs/LteAsEXyQ08sbE9ejZaWamzF3xyNrJZK+7Xy2GghrNba747X9uyb7xZHDbIN2a4L/elIvRfQEyb3ccvL2qmb8oaOKNWTH246eCmpDwO3IrmTqFl3CCI6zgPUDIIo3DSldUko4+jjMBqVzNwxDV626tdX4V5oVOBarfCMR/7yEdOiUF4Psc7RUYyapMfi6/zqiQ2pKiKXTzLPdgolR6cVDu6/LcrtHA/xpgFd13IT669lR2O/Lx1Xa4RyXr6xX/VIt0lPxChKVdKPVWeUrh9j/DG5Af0suLJD9knOP3b5faCcbyOUpc/j0s97LX9f1O8D+SfUtSK1e7auDPGGk0dqD6WSqf7G86jYbzcw2kuLqVA+fTctfysIol9I/HSrr8i/kYujjlxGGX1koby6OK9p45VuO/wRSjWz/CuP4dVzGq7L0mvvW6miUGZVJWNr1V/K9zihTKtCvT26L7/6ylvPXnvn01BnLV9YJJSNeppCKZ+41fhidmju+PFbxn3QbVmIHzOtdkKqryAQ9sGXW6p8srVCK1OrJ+433EtCBdO6Rx/88l0gi8kKZHuWzSEqyw34WI10JcYsbc8kR8JDtaOa9FGSt7TQflkenUK/Wm2/KxG2uZtrzCwdl2fS2gzX8NGmSUZ+ONM+ypjWk4c5YhNGW+YNk82l63xKsivRhTD0lY0pFoRSQjJxzLeau4hwZMNscx+aMxepElkLX5b9jqotiNcQRih1ZC4/iiSRqXlu+M0qt11kztR3FIFSOzPb9iTnVnuL7TTDi9xVKOv7lZIVyXbIGRkHttGrrXZNT5BrNRRNi5ML2H0MdKGSH4WydNlPiO2S0paVfd6FWn6BQvUSNWnDmPoHWrUuMN2xO9BxtWkgVdqZ9/aoSotq9UOp32qUDjirqEBVKIUvPnLjlIWxSeWLn253aYRyt1PFjKnv65iGuVo3ElIVSi+TZWH0uMFLWx5zJEI5UrqcklAm8bLkqr29UI7rb7fng/c/ff2dD1+zV+Sp2kr+IqFUavU/glC6JbdQoCAQ2U3AE9Yr9cT97kEoY/4o2O1BCzt5i/mV9tSqXtqeSY5rRFzMaxqtWtS4yFgoXU1SRotaVg35l/82jkzMm5hR3xh2l5hk5G2d9lHGtJ7xIQqxCaMt84bJ5h6hbImOMhdK/wo4pTzcecnIVHK5bJGP6tVolZmJlxR+9asgnaMmCeZPmVmq1dXbuVgoZ+28qZ+VQbpu3yOUhyeUuUYpPmxyAbuPgS5U8qtC6bJsscbo855Ry78b9Q/0+IY1xh1ofmhSOA6k5pU4rB/y7GY/FPrtJrpDRATTfWc8uDjoy+431k/f2AwVO5wIqOfxRiidTIbRx/w7lKKQQTKvLs9Xq8rw5bG88hZb8vL0wfsfujfObsXr3dvOqz759PW3nmn42Aj9m2Itn7+q1sKj+gv5joLV1dqj+eld/AfvhGbU8pWRUE72Nd11q55CP1i3KsWPsfu4Fj4vg7v7jcqnT/r4lbd84uQT75cnxBD3j0z3cZveEpJklOtxNxhdCM2PFYzuPCqD2XFU7wIard/syba6PdiqLMeDrh1X3mWD7tciFrZHsuI/zl0t4T4YD1CRLaPTUGi/NiiW0JpsRZaK7Zd2jnYcYmvHpcjatP1G3nsevTaqr7ytbLoeAqV6sgxtj62Naiw0LO+OFjqsmI32TX5EMhPK9M7UkTuZoL/p+Sz8HMcjBpNkRV+5eo8ZCd/ce0osEUoV2Sf+3fTX7suU46PQZn/15siiXDsrbbi7UPp+jnVkr54lP462fi07GvdDRSijFD757OVRb8/L1/a7V6HMPzQ58/vn5EqNV7HkF+8D5fy6UGreos97LX9f1O8DrU/o9D6g6xtfif/y4zhSq53cD2v9oJT67Qb6Q754d5NGGdOr7eHZG6unT3c6NvnR5mkacdwmv/ypjkrO3fHRhNK+JJlI3ujedPvMxvjlwf4op/ajmZXYkjcnI25y+WqTshxNy4upJvW2WP9bH76uQqZR/quW5XyrTVPUPqXYHi+aMaVf8FTyvQXmmySZQaZmpy+M1utxjPvh9j/Kkc+8MCkuny13JcmtYfQZdvc7j/vRdmGDz5Xd+VV/F06rfkfzenwz3Ha3KGE+yAU4LXFkt5AQEpgesm7P8mJxu4+76sNy5bjSft2O0+Eua8+od+zwZsV9T2VM2p/60JH3fqX9cguOv2mZlC8dV639s4aGLXpJ2e+nJvXPrgelWk/entif8XC1UAiddJEUyTqoQfrRxuhVsihFHIb0hiSW5l/m2m8yxJzyVaUoQM57XEnROKtfhfLzuN/6kFsk/TmebHepDTEFmZOW+Bz/t4rGUe7optqX/rzRj0WLn/jvNU7rH4tpgUo7hfKPckRtR/1gIdXjEtQ7Q392lK/+KEeSHk440Xbi4lmOBW5ELsfp59PjL81wGaYPqS8dr3m3WrwPaFQh/733/mGINbJLfdnnvX4f2A+1+0B2w8r7LvZJxI4sdp6o406Xxz2ucZOPe7EfpvX33SI0rnyGSwzP/M9ukjWqTboc9Uv7UU7Y6t50W87uo8k+4ovvR3vlfRcOSygzpm+iYSHWrR75TI0/RrOMXuSD3f8xOyyW3CAOkYNv/+NfGre+rE+BZYOO0OLhLzQboTwGHug+cOz3871irtaNhJyAUOaDcPmf44HlWLcGRh/y6j+vq6R/aGd/juFYyP6JepS3oKNofxp+sFHex+F4/71zf6TvgE5HEOFWLL9/3p1jEcoHuA8c+/38PjBX60ZCTmuEEu6IdSsAABw5RzRCCQ+PuVo3EoJQwgKsWwEA4MhBKKGBuVo3EoJQwgKsWwEA4MhBKKGBuVo3EoJQwgKsWwEA4MhBKKGBuVo3EoJQwgKsWwEA4MhBKKGBuVo3EoJQwgKsWwEA4MhBKKGBuVo3EoJQwgKsWwEA4MhBKKGBuVo3ElITyss0IU6YgzFDp12szbsoHLtQuikHx1MjOnTeQv1jlpU/jT6dUCdQy78fwkw5xd3pZDmj6XmazPvBujVwx79DeWf8rAfZXv0fE3vEv1mY/TUz4ZH+vqZrhO+EcXtunsEiziPhuYcZL9pIe/dyEe2rHs/oyvYTojz5np8lJfuz3jqTymdufpfPnrzpp16MM6mkZH+1MZuRJc46nWbQ8bOzhDIWkmag8ZPWhMlXshlcnjy5ccrvNAONq/nz2P7JRC+PTbWdt+L5k5cXHdfS8nMmpz7VVrt+lt0/sw929XaX3QdGpPwXQCinN6zYhaGH9ngfeGCGZ0/XT7+h03Z3TW/z052Ut5ly3s2O+ae7bAYdy+vDXK0bCSkLZZqz++rKLbtcQ3MuLrMZvmccu1AW5tr22N9IT5NfT5lO+R2o5d8Lo7m878K8H6xbPfKJ3dNMOZ1k87cGnADF7N3GzY3lVx6J7LkwSIc80u1MJ3zwS9Ke2CO+QbZSIz+LejCP3J8NCtfDfTC5rJ32qQc4M4hT6ontpekWB52M2wulN4Y4l/d4Sug3dRK/0azfhTm+/aorluoX3/IVyi6ibH39Pa3QL9cRTx1NJ5jtPTX4AGi1cy+M50/fM3lPumvDL7qTXrp+hMX3T3evac7tku4DYyz/hRihHN+wxr2R3Y0Pg+bZGjE8TR45PI1zedcYnol3mi/udDnN1hjnBNflJZ1hrtaNhNRGKBPij7k6Xp671UnumMMSymwu75D8XNv53NlxBp18wmuXMqPygjXVrKye2lzhWX6oX+txQ4lpeu5ie2btj7uu5VeEMs3xPXbESj3lfrBudYjKTW9/yz6+8tny/4TUubzTPyXzqVPjvzelZsszbNeSv9maWOjyLklGoR659eiKy9f5bPX/k5QU5872Mdo2nXBcl8K+LFvLxDW/nPrANSksl45LyTfIPmL0kvYIqRrJkuWyUNpKvf26gxjgNoVC1fandqrQxwdY+biq7fcb3CafIbh2rbfZDmyjtTiRmlyqx1Gdy9uuCLeUjjwgRUa5TgjUA0QI4iQxTg3dUpkolDnqgq6e3OFG8hE3Sf1PZvEOJy5+vuxOclELbQgUhPJ7b37uBwt1mDAUdZ0QD1+itIDvgUGc2AYXP3uS5NjPrCOVP/czkt8sc7V2FubUduQjta+m01EcefXtd/k+5X3uc6b9UNqvP3AdGPa1lQ5q2qXF68eTPmxdSHG9MvWzntcfP3ayVbc18kUoO+4nkjfaQfZxHH3eK/kFZh9fpXHo1fuAMrphWZ8ECj1qx+lrCUWtQVY2rrmVcj9U+62Ndnz1MHN2uze2X9jy9Rfv2uCiLLixxmwu76xYYCqUYYdOOnsGOw1ztW4k5CahdMOR8Z13Gq48FqF0Y4pmV2Js6kZO7Fz+a++bdTnZSuOOlRFKCfcmKrFxuFHrLNRfzVe0/pBjr5Wr7cnq+fIn6qD2wr2Wr6uNEcrZoTXqaY9Qjj7GAcns/LzIPUKe6q7ooJ/fGLbdZP+Ikg/zJt2YxvcKh79/uE+p/EcWY5lyPWFXcvNTCRk01AeM7jxaWXYcevPQoTodIRrcf11mHhD3K0uWr8cVcuvH5RoQtkh+6ImF7cmr0dJSja34m6OR1VJpv1YeGy2E1Vr73fHann3z3eKoQbYh23WhPx2p9wJ6wuQ+bnlZO3VT3tARpXryw00HLyX1YeBWJHcSNesOQUTHeYCaQRCIm6a0LgllHH0cRqOSmTumwctW/foq3AuNClyrFZ7xyF8+YloUyush1jk6ilGT9Fh8nV89sSFVReTySebZTqHk6LTCwf23Rbmd4yHeNKDrWm5i/bXsaOz3peNqjVDOyzf2qx7pNumJmOxFzuZoyFkoXT/G+GNyA/pZcGWH7JOcf+zy+0A530YoS5/HpZ/3Wv6+qN8H8k+oa0Vq92xdGeINJ4/UHkolU/2N51Gx325gtJcWU6F8+m5a/pZzxLiQ+OlWX5FPXm1/tHn6xvrpN9ZPn25Gr8JvxlytGwlpCuXVhR+OjLjvTiYy1RxxOEKpZpZ/5TG8ek7DdVl67X0rVRTKrKpkbK36S/keJ5RpVai3R/flV19569lr73wa6qzlC4uEslFPUyjlE7caX8wOzR0/fsu4D7otC/FjptVOSPUVBMI++HJLlU+2VmhlavXE/YZ7SahgWvfog1++C2QxWYFsz7I5RGW5AR+rka7EmKXtmeRIeKh2VJM+SvKWFtovy6NT6Fer7XclwjZ3c42ZpePyTFqb4Ro+2jTJyA9n2kcZ03ryMEdswmjLvGGyuXSdT0l2JboQhr6yMcWCUEpIJo75VnMX5yKWdZOweuYiVSJr4cuy31G1BfEawgiljszlR5EkMjVPJSlUbrvInKnvKAKldma27UnOLeVTO83wIncVyvp+pWRFsgVpUnUXRfRqq13TE+RaDUXT4uQCdh8DXajkR6EsXfYTYruktGVln3ehll+gUL1ETdowpv6BVq0LTHfsDnRcbRpIlXbmvT2q0qJa/VDqtxqlA84qKlAVSuGLj9w4ZWFsUvnip9tdNhL5xbvx/jU8e1oOqWCu1o2EVIXSy2RZGIUjGaFsCd9Y6XJKQpnEy5Kr9vZCOa6/3Z4P3v/09Xc+fM1ekadqK/mLhFKp1f8IQumW3EKBgkBkNwFPWK/UE/e7B6GM+aNgtwct7OQt5lfaU6t6aXsmOa4RcTGvabRqUeMiY6F0NUkZLWpZNeRf/ts4MjFvYkZ9Y9hdYpKRt3XaRxnTesaHKMQmjLbMGyabe4SyJTrKXCj9K+CU8nDnJSNTyeWyRT6qV6NVZiZeUvjVr4J0jpokmD9lZqkKVW/nYqGctfOmflYG6bp9j1DeRih1VHVy0m+k9/6pl6p5ieHDJhew+xjoQiW/KpQuyxZrjD7vGbX8u1H/QI9vWGPcgeaHJoXjQGpeicP6Ic9u9kOh326iO2S3c++1PSKU2aDjoC+731g/fWMzVN5fZwI6EtP8e5kdmKt1IyFFoXQyGUYfy+r4QrzyFlvy8vTB+x+6N85uxevd286rPvn09beeafjYCP2bYi2fv6rWwqP6C/mOgtXV2qP56V38B++EZtTylZFQTvY13XWrnkI/WLcqxY+x+7gWPi+Du/uNyqdP+viVt3zi5BPvlyfEEPePTPdxm94SkmSU63E3GF0IzY8VjO48KoPZcVTvAhqt3+zJtro92Kosx4OuHVfeZYPu1yIWtkey4j/OXS3hPhgPUJEto9NQaL82KJbQmmxFlortl3aOdhxia8elyNq0/Ubeex69NqqvvK1suh4CpXqyDG2PrY1qLDQs744WOqyYjfZNfkQyE8r0ztSRO5mgv+n5LPwcxyMGk2RFX7l6WRkJ39x7SiwRShXZJ/7d9Nfuy5Tjo9Bmf/XmSBNdOyttuLtQ+n6OdWSvnp292YavZUfjfqgIZZTCJ5+9POrtefnafmtCOa6h6dmJ/EOTM79/Tq7UeBVLfvE+UM6vC6XmLfq81/L3Rf0+0PqETu8Dur7xlfgvP44jtdrJ/bDWD0qp326gP+SLd+OPaUQK491tePbG6unTnTriR5un34iCuE1++VOR0VUQUPcdSiujy48glCKLevkmJuoYX3wf/itv1aLsRye1H82sxJa8ORlxk8tXm5TlaFpeTDWpt8X63/rwdRUyjfJftSznW22aovYpxfZ40Ywp/YKnku8tMN8kyQwyNTt9YbRej2PcD7f/UY585oVJcflsuctIbg2jz7C733ncj7YLG3yu7M6v+rtwWvU7mtfjm+G2u0UJ80EuwGmJI7uFhJDA9JB1e5YXi9t93FUflivHlfbrdpwOd1l7Rr1jhzcr7nsqY9L+1IeOvPcr7ZdbcPxNy6R86bhq7Z81NGzRS8p+PzWpf3Y9KNV68vbE/oyHq4VC6KSLpEjWQQ3SjzZGr5LDjzxcvjMksTT/Mtd+kyHmlK8qRQFy3uNKisZZ/SqUn8f9drxgTX+OJ9tdakNMQeakJT7H/62icZQ7uqn2pT9v9GPR4if+e43T+m8cuqu0Uyj/KEfUdtQPFlI9LkG9M/RnR/nqj3Ik6eGEE+1P3HQEukco5XKcfj49/tIMl2H6kPrS8Zp3q8X7gEYV8t977x+GWCO71Jd93uv3gf1Quw9kN6y872KfROzIYueJOu50edzjGjf5uBf7YVp/3y1C48pnuMTwzP/sJlmj2uT0Rzlhq3vTbTm7j7J9jPItrw9ztW4kpDhCeVcOSygzpm+iYSHWrR75TI0/RrOMXuSD3f8xOyyW3CAOkYNv/+NfGre+rE+BZYOO0OLhLzQboTwGHug+cOz3871irtaNhJyAUOaDcPmf44HlWLcGRh/y6j+vq6R/aGd/juFYyP6JepS3oKNofxp+sFHex+F4/71zf6QRuOkIItyK5ffPu3MsQvkA94Fjv5/fB+Zq3UjIaY1Qwh2xbgUAgCPniEYo4eExV+tGQhBKWIB1KwAAHDkIJTQwV+tGQhBKWIB1KwAAHDkIJTQwV+tGQl5woQQAAIA5CCU0MFfrRkIQSgAAgJMDoYQG5mrdSAhCCQAAcHIglNDAXK0bCUEoAQAATg6EEhqYq3UjITWhvDy32XLSHIzKaBKd6tyLDySUu+vVShN/dBgAAGARCCU0MFfrRkLKQnlxdnZ+6TzyShQym7W7OYV35OFGKJ1TIpQAAACLQCihgblaNxJSG6FMjBzyPoRyuN6sbaxxtb72M2UOW7e6ud76Tevr9Mfrs/Jrt4BQAgAALAKhhAbmat1IyE1CqQOU2TtvWbX33foy3A9izlkglMP1enUdJzD1Hundcbdxy26T5q+lrLIRj/TTL4lZOq1EKAEAABaBUEIDc7VuJKQplFcX540ByfpoZb9Q2kjkOHm/VKHcuEJCeLWdm6XCK28AAIDlIJTQwFytGwmpCqWXycoQpOfy/OzCFscsFcqiESKUAAAA9wRCCQ3M1bqRkKJQOpkML7rzgciLs7OzC1u5vDir/c576StvEUfviMMuvQEvCqUvb6/IB/uGJUIJAACwCIQSGpirdSMhJaHMvyjpyLxRXdNnjv+e0Ii7/Chn7eQyvQoXp/TS6baqd8by6+ttKAYAAAD9IJTQwFytGwkpjlDelWVCCQAAAA8LQgkNzNW6kRCEEgAA4ORAKKGBuVo3EoJQAgAAnBwIJTQwV+tGQhBKAACAkwOhhAbmat1ICEIJAABwciCU0MBcrRsJQSgBAABODoQSGpirdSMhCCUAAMDJgVBCA3O1biQEoQQAADg5EEpoYK7WjYQglAAAACcHQgkNzNW6kZCaUF42JsS5urw481vPypPlIJQAAACHDEIJDczVupGQslCKMJ5fOle8unLLLtdxdXF+fnF5VZt10YFQAgAAHDIIJTQwV+tGQmojlAkxyiSUqpOZXVZAKAEAAA4ZhBIamKt1IyE3CaUOUGbvtS/Pz84v7G14GMScg1ACAAAcMgglNDBX60ZCmkJ5Je44GpAUvcy+OXl1ccF3KAEAAI4PhBIamKt1IyFVofQyOfFFFcqzC1tx45VFo0QoAQAADhmEEhqYq3UjIUWhdDIZVHH0HUqnlOH3OjWfRCgBAAAOGoQSGpirdSMhJaH0L7Yzxq+9w18U4juUAAAAxwlCCQ3M1bqRkOII5V1BKAEAAA4ZhBIamKt1IyEIJQAAwMmBUEIDc7VuJAShBAAAODkQSmhgrtaNhCCUAAAAJwdCCQ3M1bqREIQSAADg5EAooYG5WjcSglACAACcHAglNDBX60ZCEEoAAICTA6GEBuZq3UgIQgkAAHByIJTQwFytGwlBKAEAAE4OhBIamKt1IyE1oQzT4azSHIzCZAqdysyLtxHKYbt2Va63Q76asd5K/m7jF7VQKrPZhS0OV9LIspX1ZufqH+XbPpXafh0WkxUHAAA4ShBKaGCu1o2ElIXy4izMq3h15ZZdruanWRh1w16FciJqoxy34hd3m/VavNCvZPmKW5UCeU2SF0pfD+KEWflJSU9tv57RVgAAgOMEoYQG5mrdSEhthDIh4jiayztQyVb2KpRqfZbl0PXtxiRxLHyy5gcr86os0y/Lprhyg1BO9+sJWwEAAI4YhBIamKt1IyE3CWVtHLKmmY59CaV7wzx+hR0s0FzQhdkGXdm4KoZcFFM9ymgnNaGMZS0rw+1wFgMAAHBUIJTQwFytGwlpCuXVxXlFG5s+ef8jlJLtN7v/pg1h9DFb1IJpUFKHKNN+rKoxtf16wlYAAIAjBqGEBuZq3UhIVSi9TJa/I3mDT97DdygzogWqKW6TUE5+fuN+qaNosfSWe7SaC2XMr+3X094KAABwFCCU0MBcrRsJKQqlk8nworsgjzf45L0IZfTAzAJlMb6YzuVQiH6YLQn6q5yoml1CmUcLk60AAADHCEIJDczVupGQklCKL9oonzGxx5t8cg9CKau274SKXRyGtML+V9uptM/OSm0n45ZZ4AzZQW2/EYQSAABeABBKaGCu1o2EFEco78peRigPE4QSAABeABBKaGCu1o2EHJBQuuHAQ7Y1G9VEKAEA4NhBKKGBuVo3EnIoQgkAAAAPBkIJDczVupEQhBIAAODkQCihgblaNxKCUAIAAJwcCCU0MFfrRkIQSgAAgJMDoYQG5mrdSAhCCQAAcHIglNDAXK0bCUEoAQAATg6EEhqYq3UjIQglAADAyYFQQgNztW4kpCaUl+c2W06ag9FxlW2ozpazQCgnM9asN7s9/5HHbAdh1u8Zrkxhay3/wBm2m/Xa/VlPnex8PCVlJ4UZg27XD/d+fkeM/uo8f4MeAKAOQgkNzNW6kZCyUF6ciS46j7y6cssu10+62JjjO7BohFKe+3FyQ51q+z4EzrnFZLbvMbrRFkfU8g8XaXGytmEQt7zRqibzlXtGPuZWbHkhD3F+PVL5+DhmGQAAYCCU0MBcrRsJqY1QJnJxnCyfjQYvE3cRyrSy225smGy92eZeoCNwYcM6iY4G+2wNyCXKdqFymGWn8rJVt7Xz/Vib1GDtig2t7rfSzmp+AWm5L5nTMsSG+RXbOdtBOhcmlFnP+D5Yb1w9rm/cqkT4anxs7CgXoptSnRISV/Z3fj3ShFi3EY4BAAAmIJTQwFytGwm5SSin2nh5fiaszs7Oz8fvwnOWCqVpgpI//4chLOdDTU4SbAhOHCOOeG03myx0t9lEDVKlcZuGzCid2tiKUxWrp5bvUFda63YpMLj/1vdba2ctfz9IiysGVe+f6ghlPCeWJWiu7kGkTwVy8P1lW1ItWTNSPcp9nF9PXkfExacwAAAwEEpoYK7WjYQ0hfLq4nzyWlty0ghl1ShvPUKpohDHlNJAlUhcLguqeSE/yN9YWxwhIipPvpgZj+IsRhdq+Z7JVqGxXy1tWamdSi2/QKH6sZRNSS0UlwpIi1rtbL/y1hotS4gdEvxNMnxwXFCyjhrl38f59WiBzDgDmjsqBwAACkIJDczVupGQqlB6mZwY4+V5Nlw5Whlxe6FMq25sKdjWpIwxDDpOZroz9p6MTKwcvqLMeBTZQfCkcr5nslWp7jcxamdGLf8uzHoqNLnVznLvmlCOyTrqNkKZVvd2fg2pAqEEAOgGoYQG5mrdSEhRKJ1MBlmcfYcyy9+7UOo7TmcAkrve+Fei/kuLsYxuiCIimhE2yKIYil/OyNRGiXtzkVk1mbgU8x2TyhySV9pvtZ21/H2hxhfqF6TvfJNr7RQ0xJVxg4amZXoGsoO1fnO5ul4SSl9eztc6G0aNBRQ54D2f30ho0AinrekgAADAQCihgblaNxJSEkpRRRvNM7LX3uqaPnPyMjxngVCqYIzIRcRyNttcUcRP/K9C/LbMnZz/Wb6zkliFxcadudVUXMq6TV6VyvnThmbyMtuvy621s97+feG00Mh3UG6nMDpil5t6LiFHHDohLEo/+pLaG7EWqUS/Yel6edptvutHu7j9+bV8Q+qYGqXsI+4PAAAyEEpoYK7WjYQURyjvyqIRSoD9IPI6NspZBgAAGAglNDBX60ZCEEp4cRgNSDI8CQBQB6GEBuZq3UgIQgkAAHByIJTQwFytGwlBKAEAAE4OhBIamKt1IyEIJQAAwMmBUEIDc7VuJAShhAV8CQ7rDgCAowWhhAbmat1ICEIJCzCfOnmsOwAAjhaEEhqYq3UjIQglLMB86uSx7gAAOFoQSmhgrtaNhCCUsADzqZPHugMA4GhBKKGBuVo3ElITyss0Ic54fsVsw3Sm78hCodSZXdZuDpT1ZhunCnwsxnPESItCa8KkLw/cvmp7HgPzqf3y/oerb763+uaH39GVn7z+lixn6a2PP3ClGnzwzrPV25/ayoNg3RFIf/FyMjPQfD6fu5LtIJ8UdIQrU9hayz90hmdP10+/sfrWG+tnP7WsFj/d7d5YfUvKf2O9+8jyhqc+x9LTp7svbMu4/Lu7Z2/4uUe3useU4q4n+ZrcXoYvPtq5ds4bWW4/fycVHhuEEhqYq3UjIWWhvDgLunh15ZZdrnB5vjq7uPIieXV5WZl8cZFQ7rLJs6+HQWdsDmv5LNAPiDx3435VdvO7/mM8Bartefj+MZ/aO+qUXiiN77z9Xr8jLiq8F6w7PPn5cVdIOluy6T4Ezl2F8sGpX4m60RZH1PIfnGbrRwxPk4cNT22m+TqDGGEor8uh/GhZ/PLpu35ZbHL7Raj/i5+KLwahfBpPqsTmLphvuv7i3aStQt5aT7394wsH4KFBKKGBuVo3ElIboUyIUUahzJfdYOWFLY5ZIJTu0WjLOZLvRmEi6c67i1NV6yzQlhfGbfQpla24jfkc0DoYGh5kac7rtQ6RxmaM7vO5HwiuvdkzQSi1J7TfysY1t5I1Jxtv9K2WAKsv7bbUHqsxkZcWSvUUmFWjTA8w48svP33NDxy+/el33n7mRhA/fP0TJ1mffPpaHFx868Pv+Ew3fPiKz/zme6+8nQ03ZuVfeUuqagmljkFKybc/tvHLuNPYnphiVKU9X37yccq39ExrK5cvH691h0O6MO9iO0F+WU51OjGl60SpXIeV60SwXUycLJWXrbqtnV+9Tqr7rX1eavlNtCHVyyzHCZ8tJ3uTBTc6qH5mo49WbCKRUeYmQpnqyXWwwsggw+rEMo2ZUJbb75ET2dkLAPcAQgkNzNW6kZCbhFIHKLN33mmE8ury4my1yvQyY4FQNp8rY5eLDEOIyFVrdHOWasMGtxifJBJhpVx52+Cz3aJQrVUoPQLK7dEdp5ISZ1u2m2yQQna8yR7AEr9aa3OlxOD+a7nl9lT6p1bPHvCSpbanmqUKaK+bP/lYrPG193/iCzj/c5Y2Ql9nv/KOL6OiZsticqG2yHzQ0e302etuF1p/9iq8MEJZa4/LL+y32f758Vp3KKNzLsgZ8nblyC+WxnVbuA7r14leS27TkF1h+WUupdehnlq+o3Sd1PZba2ct/wZGn44WUyELI4vOKZ0jxgXjo83TN/TV89Onm927MVv8L72kDvZZGFCcM5PO+Nb7NkIZ26+4/urqBoD9g1BCA3O1biSkKZRXF+f5iKRDDNM/Ks/OC1s9txJKfbgZ4WFbFqY0ICIPw/xhLs9Xe6xk1qU78Esz9PEa6okPXSFriY7bjO737vE5ymm0J7U/HqbkWdlIFlF+ylbb0xDKUj0FCs2RfdRjM8Ea+Z8zMG9dKb32vtv0/sevZCOCXuYmRtjzynuUMy4/L1xrT22/jfYL8+O17hC0BzOZGZ11WZEzEbqzep2UrsPGdSLF54uTMy7h/rKv5XsmW4XGfrW0ZU0/L+X8EoX6864o0BKyLz5y45RZAeGLd+P5GJ49jZvyEUoJFOnUTR1COQp03GmEciSU8hG+4fAB7g+EEhqYq3UjIVWh9DJZ+9mNY0+vvMc31PwZVxIm92/68NSaRNuqVJFy58/MGcMgz/psZEV2Md+vIbsY19dqT9h5nq1Ztjin3Nhqe0r94+g46NvhdaoicCPlMkYjf2mE8kGEstCeplCW2u+Y12/dIci5bQhlWm1eJ57RdVi9TqSiEb6iyRmXHfjwWr6ncJ1U95uYfl4CtfwihV2X2e3sS43KeLBQvwr5rTfWT0X4ksONBC7Tu4kX2urM8Gb8dPK+W5jnJApCWW2/gFDCI4JQQgNztW4kpCiUTibDi+7x9ya/Cop5pTpZHJ9c+KMcfcRlwxrb7EET5c0N7rjbsj4RN/7dnP/y1/h2rI+pGOVxT3JbH9xLPx+iFcUHvGSniqoCJ7gnclb7De2RzdMfrsuu5IBtZUL5KdsQSiue+sdTrmcPeJ2aC5YXR8n0rvbB+x86jzRjc++Of/LBO5oZXjdnovnJp+6bkbcXStVB/+1MreqZ7qLWHpdfe+VdKO9oCeXs7Ogpj+v6Dthtrl8nteuwcp1MTm3cm4vMqsnEtJjvmFTmkLzi9VlrZy3/Bkq7LvPFu/FHNiKL8SoXIww/1v5ok/222plitlwUyi8+2vjvX7o6kwK6kcvsg1RQQGGRUNba78hvTgAPDUIJDczVupGQklDGt9qBJJTui5NC/BV4kUVCKfdgfcAa6eEkuAfgNFseoSFvu9Pl6QN2Zl9Z/fqstNLyJN6k/FR/qF7Ia1YzGGO7abfHxU0alA5L2hP2PK0/xlTao5T6p1rPXlCZUpmzl8JmZp7Rj1qexd/f2G9ZvimeF34N4+Us/jjmrQ9ff8fX+ez1T8p/NsiNILpVifXyFzY54q7TfmvtSfuV9uc/BqqVLx2vdYdjdMXNLpN4zmrXSe06LFwnsQqLjTtzq6OrwW3y7ljOb1wnxeuz8Xmptb+J7GNyNdcZntkf/cmt0eeon4U/CRS2/nR7458NGn/9Uf+sj89/+nSbDXYKIw11ZH82aPSqfbeL+S5lA5/z9htyQvt7AWDfIJTQwFytGwkpjlDelYVC+UKz5MF5+HidemGYvgHvxrrDI262X22H04ALBx4XhBIamKt1IyEI5X2RDQG9OEppPnXUxAFOHYnM/pzQEqw7Agw0wWIYnoTHBqGEBuZq3UgIQgkLMJ86eaw7AACOFoQSGpirdSMhCCUswHzq5LHuAAA4WhBKaGCu1o2EIJSwAPOpk8e6AwDgaEEooYG5WjcSglACAACcHAglNDBX60ZCEEoAAICTA6GEBuZq3UgIQgkAAHByIJTQwFytGwlBKAEAAE4OhBIamKt1IyE1oby6vDi3SXHiJIwOnZZRN5ydjbJHIJQAAACHDEIJDczVupGQslBeXYgv2nyLl7oc3FEn8E7L+RzfOQglAADAIYNQQgNztW4kpDZCmciFMvdJtc6KUSKUAAAAhwxCCQ3M1bqRkIZQijD6V97JGqdCeXZhy2MQSgAAgEMGoYQG5mrdSMhNI5RX7juTtRFKhBIAAOAIQSihgblaNxJyk1AKmThenq/SeCWvvAEAAI4ThBIamKt1IyFloRSFPL/0Q5FXIpHJIq8u4m++L89rPolQAgAAHDQIJTQwV+tGQiojlO5Nt36D0n2HMr7lFmSD5aeX31MQSgAAgEMGoYQG5mrdSEhFKO8GQgkAAHDIIJTQwFytGwlBKAEAAE4OhBIamKt1IyEIJQAAwMmBUEIDc7VuJAShBAAAODkQSmhgrtaNhCCUAAAAJwdCCQ3M1bqREIQSAADg5EAooYG5WjcSglACAACcHAglNDBX60ZCEEoAAICTA6GEBuZq3UgIQgkAAHByIJTQwFytGwmpCeXVZZgq5yxOtqgT6Fxq/llrmhzhFkK5WV2vt7acs9tcr1aWigWKbNfr7WDL19fDdrNer/VY1putLGebHoGta0lAWhRas9tY1sO2r9qeR2dn531n6zU4vy0O9/zOGLbP1+uvVqufr7e/a1nCMP40A8CeQCihgblaNxJSFsqri7OzC5uo+1KXx/p4eb53oSzjlOImn5ghT+5NCtpt1ptdeB4Ng7hHfDptZYstPiR5+1SG8qflYzw9q+15pP7J6LgAOL83ccDnN2f3PHnk7nnesvEHGgD2A0IJDczVupGQ2ghl4r6FctjaQNRqYzme7Trkh9T5TNmus8ePe4Dbco7k25iNkUJ28sz1eevN1nLlkWZZ8jTOVtzGQZwm5mRCow9vy9YhtNiM0fNRGpI/LAvCUWpPaL+VjWtuJWtONh7lWy0BVl/abak9VmMiLy2U6ikj53cdzuB6c+3bYyd9E87y+jo1dLjehFO/dgut+l1/2XJOvf2cX12xGhN5aaFUzwJm1SvTAx+z2/w8bR9+sd58bcuCVNcOBoDlIJTQwFytGwlpCOXVhXvnfXZuQ5WJexih1FfbY6FUbjNCOXp8ylrjSVQZoRmGEJHXNXqoSbVhg1sM+fKwzyRgvbUNPtstCtVahdKjs9we3XEqKXG2ZbvZpHjZ8SbzLYlfrbW5UmJw/7Xccnsq/VOr52ZEH2M3+C8zeINSv1yba6YvP4hZOq0st8HD+X308yvt9LaohaX6rHlLmArl+he2rEiDZt0GAHcDoYQG5mrdSMhNI5RXV/qdyft/5b03oZRH2ip7pKWnsj4kjfAYLT9Q08CTPFSzB/z1IGrh68qeyroDvzTDP2l9PclJRi3R8Z+0QSgIR709qf3xMPXwJ2QRqTdyqu1pCEepnjLDzgYafRoJZTzj4UTnZqnceAGklnB+s2Ij7vX8DqZ6g2+Z1Vhopmxr1tkUSmlqfpwAsAcQSmhgrtaNhNwklIL7QqUte45IKLOHsid/VpYeqPL0jQNP02hblSpSbsezd5CHbW0Ea4rsYlxfqz1h53m2ZtninHJjq+0p9Y+j46CNQd93x1qmI5R3F8ppj4yaVmo/5zdR6h9Hx0Hvnd3mq9SayStvbSpCCbBnEEpoYK7WjYSUhVIU8vzSK+PV5flqNXnrfUSvvPVRlB7YwjZ7VsaHuxskchqqD/yNf8fnv0Q2fozpk3aiBM4IbH0YpICFaEVRFCQ7VbREOG5oj6rG5IfNsis5YFuZUBaFhnBY8dQ/nnI9JdwZDJWoXLaFciSggzTg5gtAG8n59ZTPy32e3z0y/GITfpSz2/x83OL8JADAfkAooYG5WjcSUhmhdG+6/YuqqJaCymXOZOQysFQo/VflfIqPjTxTUz5w1WQ2mOEel0aSAMHpwTRbnuEhb7vT5dGTTLdOn85Z/fqst9KiApuUn+oP1Qt5zfLInGC7abfHxU0alA5L2hP2PK0/xlTao5T6p1pPDRVHdwZFJe3XNhs5qHBaxSmdROqyP8XxRznr620o1oTzKzza+d0jw/b5avWVpNGfDRKkj6ZtB4C7glBCA3O1biSkIpR34xYjlPtEnokP+Rh8XMQJeNS+wHB+T+wDDfBgIJTQwFytGwl5EYVSR2Ve/KdwNpSEcryAcH4NhicB7geEEhqYq3UjIS+mUAIAAEADhBIamKt1IyEIJQAAwMmBUEIDc7VuJAShBAAAODkQSmhgrtaNhCCUAAAAJwdCCQ3M1bqREIQSAADg5EAooYG5WjcSglACAACcHAglNDBX60ZCEEoAAICTA6GEBuZq3UhITSivLsNUOWfn+TSLl2kCnfrsi0uFUudNGc+76OfcK0zGCAAAAHcGoYQG5mrdSEhZKK8uzs4ubP7uS102d0xzfF9pkckU35GlQlmcyLs8uzcAAADcGYQSGpirdSMhtRHKRC6UOWKUexHK6ZzdQSK9UNpQ5TrN8Z3menb5fg5imxu6WB4AAADGIJTQwFytGwlpCKUYo3+3XdJGN4ZZe+e9txHKlXmh+uJaTFJtcr26jhP7eo/0Zay825TKAwAAwAyEEhqYq3UjITeNUF5dXZzP1FHzaqOTyv5fee9UFsUVbSRynLxfFssDAADAHIQSGpirdSMhNwml4AYjbTnIZG1s0nPfQlk0RYQSAACgE4QSGpirdSMhZaFMP7756uryfLWy4Ugnk2G0cl/foRRUEzf2Rnu7vl5vNbMsiO6VtxWWtV16A45QAgAAdIJQQgNztW4kpDJC6d50uz8PpN+hTArpswL7Ekoh/s5m7WQxvtpWuXR2qCl8jTL/Uc6kvDqll063FQAAAOYglNDAXK0bCakI5d24hVACAADAg4FQQgNztW4kBKEEAAA4ORBKaGCu1o2EIJQAAAAnB0IJDczVupEQhBIAAODkQCihgblaNxKCUAIAAJwcCCU0MFfrRkIQSgAAgJMDoYQG5mrdSAhCCQAAcHIglNDAXK0bCUEoAQAATg6EEhqYq3UjIQglAADAyYFQQgNztW4kpCaUV5dhqpw02aJSyx9xYEI5bDfr9VrbvN5sZXnr5218NLQ9rgulPdIyN9HkcrZWh0eOLBzVbmNZD3qcYa9C9YhcmcLWWv69s5Xe952UNV9Zb3Z77ryj7J+7cVifuwP7vNTbs5QhXcUAi0AooYG5WjcSUhbKq4uzswubV/FSl9Pki8X8CQcllLtNZgfDoAYX1rayxRYfDrn/x4fHsNOHgV9uUGmnPAljvj6886fK4zxl3F6lw+t71o22OKKWf5/k/efPS+xN2XQf7Tmu/inSbH2OFDyoz934fB/C56XanqX9M76QAXpBKKGBuVo3ElIboUzUxPE4hNI9KGw5R/JtbMBId+Sd3Nt9npif5cot27Lkrp+tuI2iH6GytcTGB0M+ErmOzfBSUXh25dUk5ay3c/wckYL5Q8XtZbyT0nGF+q1sXHMrpfaErpAAqy/brbVh4hypHtmq29r51for7dHdpopSP9fzDTnWSY/FVd1VXCn2m1Kpv9rOI+ufMtqQ/JgqyKEWK7QrLJFOQamfs4/aXT93rrK0t/x0C6694+Mqnndrv5WNa26l3P/V81Vsj9WYyEsLpXpc1LT1ADeDUEIDc7VuJKQhlFcX7t322bkNSQZq+YkDEsrm82/8TIkMQ4jIb/mjm7ZUGza4xZAvD5XsYRPF0We7RUGfPP6xoQ+eELrdbMKiK7JJz+NKO6utE0qPmPJx6QGkkhJnWxrt0fjVWg9bSgzuv4rGusUhqzHvHj3w0A+1fEep/lp7av1cyw+M+kCQ8u6cePLOa1wPhfrr/XZc/VNBmjK9rko0iz3S565aqzBdV+7781JtT6V/avUIsmHWfICbQCihgblaNxJy0wjl1dXFeWkkspbvOEih1JuxEW7X5Rt3GuCQm3f2IFEPsGdGdvfXHfilGbIp1pOefTnpgScPFCsbSXuuPGCyI9LxitEOCg/I+nGl+mN3NduTiuVIZlaNLU5KumbpQi3fM6+/1R4pbVnjfq7lO7TCzABcRjpCOTGx/6r9Vqq/0U4pPl+UpcPsnwmF+vOumJFaeDifuwP7vNTbU/m81+pR9GouxwBUQSihgblaNxJyk1AK7ouTtpxTyz+0V97jG21+Ty7duJ3ihZv7JNpWpYqUW7/HR4ZBnk3ZSEmO7M7XpfW4nAKVB0yMLSBNHberdVzhIPLsVntC+RH541FJh5WVdM3ShVq+p1B/sz2eWj8X82WPDaFMq81+84zqr7bzyPqnRmHXJWY9lceVerHVz7YqVaTcjnZMj0t2Md+v4To4r6953m3nebZm2eKccmOr7Sn1j6N+0Agl3AKEEhqYq3UjIWWhFFU8v/Sjj1eX56tVeLtdy59wUD/K0SdFeDAI2+yeHB8i8uAxvdAHy8a/S/JfVhrfpvWOPnn0uCePrQ86smUhWlF8IEm2VTR6UOWPJCkiG/zyhEI7lSUPyBuOS9sx+SFuoz26La9cmWTFA3NHbhtc79hzt5bvmFTmkLxieyr9XM0PTHsvOxUuwCtfvd9q9VfaKdnH1T8VSrsuIvUf0udOOKjPi1BtT2zL+PNeq0fIOwOgF4QSGpirdSMhlRFK90bbj6REhVRq+WMOSijttmykh43gHkPTbHlWhLztTpdHd2rdOn0KZPXrM8VKyyNnk/Jj/XrrH+X7bCU1R+rJG1psZ2imkLdQ6p9gu2gfl4ubHFixPdP6NSZWbXXGMm511Hq3ybtROb9Uv1Hun0o/V/MjozM53W3qnVq/1euftfM4+6eM7CP0zE0c1OdOT3cgr3l24sNu2u1xcZMGFfu/er4q7VFK/dM4766t3WcFIIJQQgNztW4kpCKUd+PAhBI6WCAKLwryjJ46CkAfh/R54UKG24FQQgNztW4kBKE8dbKhj5NTSgZ2YCkH93lheBJuC0IJDczVupEQhBIAAODkQCihgblaNxKCUAIAAJwcCCU0MFfrRkIQSgAAgJMDoYQG5mrdSAhCCQAAcHIglNDAXK0bCUEoAQAATg6EEhqYq3UjIQglAADAyYFQQgNztW4kBKEEAAA4ORBKaGCu1o2E1ITy6jJMiXN2fjGbEUenXazNuyg8kFDurlcrTfxNXwAAgEUglNDAXK0bCSkL5dXF2dmF+eKlLudK6TdenD26UArOKRFKAACARSCU0MBcrRsJqY1QJiZCeXnuTFKscl9COVxv1jbWuFpf+7lrh61b3Vxv/ab1dZoLIiu/dgsIJQAAwCIQSmhgrtaNhDSEUpzRv/JO4qiDk351X0I5XK9X13EiWu+R3h13G7fsNmn+WsoqG/HIrVsSs3RaiVACAAAsAqGEBuZq3UjITSOUV1cX52mE0n13MjF+FZ7oF0obiRwn75cqlBtXSAivtnOzVHjlDQAAsByEEhqYq3UjITcJpeC+M2nLkT2NUHqhLBohQgkAAHBPIJTQwFytGwkpC6V7s+1HH690VHLujnt95S3i6B1x2KU34EWh9OXtFflg37BEKAEAABaBUEIDc7VuJKQyQunedNt77aCWkfji++6vvJXxj3LWTi7Tq3BxSi+dbqt6Zyy/vt6GYgAAANAPQgkNzNW6kZCKUN6NZUIJAAAADwtCCQ3M1bqREIQSAADg5EAooYG5WjcSglACAACcHAglNDBX60ZCEEoAAICTA6GEBuZq3UgIQgkAAHByIJTQwFytGwlBKAEAAE4OhBIamKt1IyEIJQAAwMmBUEIDc7VuJAShBAAAODkQSmhgrtaNhCCUAAAAJwdCCQ3M1bqRkJpQXl2GqXLOzrP5cK4ubP4cpTr3IkIJAABwyCCU0MBcrRsJKQuleOPZhenipS4HpWxO4R1BKAEAAA4ZhBIamKt1IyG1EcoEQgkAAPCCgVBCA3O1biSkIZT2entkkPkrb9mQ3oWPQCgBAAAOGYQSGpirdSMhN41QXl1dnGcjlDn10UqEEgAA4JBBKKGBuVo3EnKTUAoijmcXtjzi8rycj1ACAAAcNAglNDBX60ZCykIpChneZ19dnqffc0t+/mOd2u+8EUoAAIBDBqGEBuZq3UhIZYTSvekufVUyzy++CFcQSgAAgEMGoYQG5mrdSEhFKO8GQgkAAHDIIJTQwFytGwlBKAEAAE4OhBIamKt1IyEIJQAAwMmBUEIDc7VuJAShBAAAODkQSmhgrtaNhCCUAAAAJwdCCQ3M1bqREIQSAADg5EAooYG5WjcSglACAACcHAglNDBX60ZCEEoAAICTA6GEBuZq3UgIQgkAAHByIJTQwFytGwmpCeXVZZgSZz4jjmw7s23lyXJuIZTDdu1qXG+H0bqx3ux8/vX1bmN5xmZnGyRmY0HrzWa93rrMrLjlOCa1xPrz/NAWYdIcJdVmMVlxAACAgwahhAbmat1ISFkor8QYszm7c2+8ujg/v7i8qs266LidUE6FTDwtyqJuTuYozMtLzibkDDvd7JcVV3q3GUVo+Vi97CsrPynpGe3RrdiyY7QVAADgsEEooYG5WjcSUhuhTIyEUnXSRLPB/oVyVmBe3uXEccwRsklrGnuiZfpl2ZTtqymUutGyMubtAQAAOFgQSmhgrtaNhDSE8urCvdc+yw3y8vzsPL0Lv6yMU96HULb90qFaaC/ON9shbVR1dGtDLoqS68p6RpXVhDKWtayMUnsAAAAOFIQSGpirdSMhN41QXl2JP8YRSu+YYfXq4mKf36GcCtlioUyMXmFno4/ZotaQ6nMuGuurCaXL1Y2WlYFQAgDAEYFQQgNztW4k5CahFNwXKuOi6KRfFi7Py7/KeZRX3mNSsCyNCHVKDVn1o9VcKGN+e483tQcAAOCAQCihgblaNxJSFkpRyPA+++ryfLVKb71VKW2TbCn75H38KCcfW1Rm5d2YZPwKZdTAkRwKaUNaEnRIM+2tRyjzaGGyFQAA4JBBKKGBuVo3ElIZoXRvuv2I3vSrkuqRxQ2JPQilrLudGGJvYWNlxFGFchP+bJCWl7xUia87hq6320ktVmJWuyJ1TZrjQCgBAOBYQSihgblaNxJSEcq7sZ8RyqMCoQQAgCMCoYQG5mrdSMgBCaUb9jtGK7NRTYQSAACOBYQSGpirdSMhhyKUAAAA8GAglNDAXK0bCUEoAQAATg6EEhqYq3UjIQglAADAyYFQQgNztW4kBKEEAAA4ORBKaGCu1o2EIJQAAAAnB0IJDczVupEQhBIAAODkQCihgblaNxKCUAIAAJwcCCU0MFfrRkJqQnl1GabKOTtP8yte2Ow5RmXmRYQSAADgoEEooYG5WjcSUhbKq4uzswubv/tSl00cL85Gs3ojlAAAAMcIQgkNzNW6kZDaCGUiF8qcXC4nIJQAAACHDEIJDczVHL/9279tS4F5joQ0hPLKv+Aue6NsrPokQgkAAHDQIJTQwFzNIfqYG+Rk1SMhN41QXl1dnBdGKJs+iVACAAAcNAglNDBXc3iDFCbLORJyk1AK7suStmy0fRKhBAAAOGgQSmhgrhYwiwxYboaElIVSFPL80o9KXl2er1YTe7zBJxFKAACAgwahhAbmahnmkiWbFCSkMkLp3nS7Pw2k36GcvPC+yScRSgAAgIMGoYQG5mpjajYpSEhFKO8GQgkAAHDIIJTQwFytGwlBKAEAAE4OhBIamKt1IyEIJQAAwMmBUEIDc7VuJAShBAAAODkQSmhgrtaNhCCUAAAAJwdCCQ3M1bqRkKlQAgAAAMDJYpK4BIm6lxFKAAAAADgREEoAAAAAuBMIJQAAAADcCYQSAAAAAO7EAqH0EzgKtg4AAAAAx4b53F6Nrlcobc/YJAAAAMCRY1a3P6/rEkrbJzYJAAAA8EJgbrcnu7tZKG1v2CQAAADAC4QZ3j4cjxFKAAAAgJPD3O7BRig9tk+cEgAAAODIMavbn9f1CqVge8YpAQAAAI4W87m9Gt0CoQQAAAAAmINQAgAAAMCdQCgBAAAA4E4glAAAAABwJxBKAAAAALgTBaEEAAAAAFjESChJJBKJRCKRSKRbJBNKG7UEAAAAAFgIQgkAAAAAdwKhBAAAAIA7gVACwOHyXShhvQMAcDAglABwuIg8/X9gDEIJAAcIQgkAhwtCOQehBIADBKEEgMMFoZyDUALAAYJQAsDhglDOQSgB4ABBKAHgcEEo5yCUAHCAIJQAcLgglHMQSgA4QBBKADhcEMo5CCUAHCAIJQAcLgjlHIQSAA4QhBIADpdHE8p/9O+vAn/57/3Xlqm5ce2//nt/ebX69/+RX3lIEEoAOEAQSgA4XB5HKNUmR+IYVpJQ5mr5wCCUAHCAIJQAcLg8hlCqQY5GHlOGaeSsxIOCUALAAYJQAsDh8ghCWbBFyfLDkU4o/97jDU46EEoAOEAQSgA4XB5HKKe+GB1T34ULjzc6qSCUAHCAIJQAcLgc4gjlP5ICjzlEiVACwAGCUALA4fIIQjk3ypQRfoqjI5WPNkyJUALAAYJQAsDh8hhCOfFFXQkDkkEovWQ+0jAlQgkABwhCCQCHy+MIpaAaaWRDkUko/cqjOCVCCQAHCEIJAIfLownlAYNQAsABglACwOGCUM5BKAHgAEEoAeBwQSjnIJQAcIAglABwuCCUcxBKADhAEEoAOFwQyjkIJQAcIAglABwuCOUchBIADhCEEgAOF4RyDkIJAAcIQgkAhwtCOQehBIADBKEEgMMFoZyDUALAAYJQAsDhIvIEc6x3AAAOBoQSAAAAAO4EQgkAAAAAdwKhBAAAAIA7YUJJIpFIJBKJRCLdMv2Dj///BHTdzMuVvoUAAAAASUVORK5CYII=;movable=0;resizable=0;rotatable=0;deletable=0;editable=0;locked=1;connectable=0;" parent="1" vertex="1">
          <mxGeometry width="880" height="736" as="geometry" />
        </mxCell>
        <mxCell id="0QQ6OHD0hhYpONrDDD78-1" value="" style="endArrow=none;html=1;rounded=0;strokeWidth=6;strokeColor=light-dark(#000000,#FF0080);movable=0;resizable=0;rotatable=0;deletable=0;editable=0;locked=1;connectable=0;" parent="1" edge="1">
          <mxGeometry width="50" height="50" relative="1" as="geometry">
            <mxPoint x="148" y="510" as="sourcePoint" />
            <mxPoint x="248" y="510" as="targetPoint" />
          </mxGeometry>
        </mxCell>
        <mxCell id="lZ6kjSFE1a1UzAyqOsCn-1" value="&lt;strong&gt;PSP Memory Base Address (&lt;/strong&gt;&lt;code&gt;0x0000_01??_????_????&lt;/code&gt;&amp;nbsp;or &lt;code&gt;0x0000_02??_????_????&lt;/code&gt;&lt;strong&gt;)&lt;/strong&gt;" style="text;html=1;align=center;verticalAlign=middle;whiteSpace=wrap;rounded=0;fontStyle=1;textShadow=0;fontColor=light-dark(#000000,#FF0080);fontFamily=Calibri;movable=0;resizable=0;rotatable=0;deletable=0;editable=0;locked=1;connectable=0;fontSize=14;" parent="1" vertex="1">
          <mxGeometry x="110" y="468" width="520" height="30" as="geometry" />
        </mxCell>
        <mxCell id="iF3ngfGkhjskTfrCsv2Q-1" value="" style="endArrow=none;html=1;rounded=0;strokeWidth=6;strokeColor=light-dark(#000000,#008000);movable=0;resizable=0;rotatable=0;deletable=0;editable=0;locked=1;connectable=0;" parent="1" edge="1">
          <mxGeometry width="50" height="50" relative="1" as="geometry">
            <mxPoint x="389" y="527" as="sourcePoint" />
            <mxPoint x="469" y="527" as="targetPoint" />
          </mxGeometry>
        </mxCell>
        <mxCell id="iF3ngfGkhjskTfrCsv2Q-2" value="&lt;strong&gt;address of pointer to player object (&amp;gt;&amp;nbsp;&lt;/strong&gt;&lt;code&gt;0x0880_0000)&lt;/code&gt;" style="text;html=1;align=center;verticalAlign=middle;whiteSpace=wrap;rounded=0;fontStyle=1;textShadow=0;fontColor=light-dark(#000000,#008000);fontFamily=Calibri;movable=0;resizable=0;rotatable=0;deletable=0;editable=0;locked=1;connectable=0;fontSize=14;" parent="1" vertex="1">
          <mxGeometry x="330" y="498" width="320" height="30" as="geometry" />
        </mxCell>
        <mxCell id="iF3ngfGkhjskTfrCsv2Q-3" value="" style="rounded=0;whiteSpace=wrap;html=1;strokeWidth=6;strokeColor=light-dark(#000000,#C04000);fillColor=none;movable=0;resizable=0;rotatable=0;deletable=0;editable=0;locked=1;connectable=0;" parent="1" vertex="1">
          <mxGeometry x="811" y="405" width="42" height="60" as="geometry" />
        </mxCell>
        <mxCell id="iF3ngfGkhjskTfrCsv2Q-4" value="&lt;div&gt;&lt;strong&gt;offsets to members&lt;/strong&gt;&lt;/div&gt;&lt;div&gt;&lt;strong&gt;of player object&lt;/strong&gt;&lt;/div&gt;" style="text;html=1;align=center;verticalAlign=middle;whiteSpace=wrap;rounded=0;fontStyle=1;textShadow=0;fontColor=light-dark(#000000,#C04000);fontFamily=Calibri;movable=0;resizable=0;rotatable=0;deletable=0;editable=0;locked=1;connectable=0;fontSize=14;" parent="1" vertex="1">
          <mxGeometry x="750" y="370" width="120" height="30" as="geometry" />
        </mxCell>
        <mxCell id="iF3ngfGkhjskTfrCsv2Q-6" value="" style="endArrow=none;html=1;rounded=0;strokeWidth=6;strokeColor=light-dark(#000000,#808000);movable=0;resizable=0;rotatable=0;deletable=0;editable=0;locked=1;connectable=0;" parent="1" edge="1">
          <mxGeometry width="50" height="50" relative="1" as="geometry">
            <mxPoint x="180" y="548" as="sourcePoint" />
            <mxPoint x="275" y="548" as="targetPoint" />
          </mxGeometry>
        </mxCell>
        <mxCell id="iF3ngfGkhjskTfrCsv2Q-7" value="&lt;strong&gt;readInteger so that resolved PSP address is explicitly 4Bytes long&lt;/strong&gt;" style="text;html=1;align=center;verticalAlign=middle;whiteSpace=wrap;rounded=0;fontStyle=1;textShadow=0;fontColor=light-dark(#000000,#808000);fontFamily=Calibri;movable=0;resizable=0;rotatable=0;deletable=0;editable=0;locked=1;connectable=0;fontSize=14;" parent="1" vertex="1">
          <mxGeometry x="442" y="550" width="380" height="30" as="geometry" />
        </mxCell>
        <mxCell id="iF3ngfGkhjskTfrCsv2Q-8" value="" style="endArrow=none;html=1;rounded=0;strokeWidth=6;strokeColor=light-dark(#000000,#808000);movable=0;resizable=0;rotatable=0;deletable=0;editable=0;locked=1;connectable=0;" parent="1" edge="1">
          <mxGeometry width="50" height="50" relative="1" as="geometry">
            <mxPoint x="274" y="548" as="sourcePoint" />
            <mxPoint x="442" y="565" as="targetPoint" />
          </mxGeometry>
        </mxCell>
        <mxCell id="iF3ngfGkhjskTfrCsv2Q-9" value="" style="endArrow=none;html=1;rounded=0;strokeWidth=6;strokeColor=light-dark(#000000,#FF0080);movable=0;resizable=0;rotatable=0;deletable=0;editable=0;locked=1;connectable=0;" parent="1" edge="1">
          <mxGeometry width="50" height="50" relative="1" as="geometry">
            <mxPoint x="200" y="491" as="sourcePoint" />
            <mxPoint x="200" y="509" as="targetPoint" />
          </mxGeometry>
        </mxCell>
      </root>
    </mxGraphModel>
  </diagram>
</mxfile>
